<?xml version="1.0" encoding="utf-8" ?><svg xmlns="http://www.w3.org/2000/svg" xmlns:xlink="http://www.w3.org/1999/xlink" width="1024" height="1024" viewBox="0 0 1024 1024"><path fill="#242223" d="M503.829 204.6C505.027 204.468 506.234 204.424 507.44 204.468C517.988 204.752 522.75 215.512 526.551 223.865C535.847 244.425 539.916 266.964 538.396 289.477C539.262 290.222 540.023 290.886 540.81 291.732C563.034 315.622 580.061 344.394 585.116 376.991C587.565 392.778 587.218 403.462 586.911 419.061L757.255 419.086L808.5 419.083C818.416 419.093 829.167 419.38 839.004 418.958C838.946 424.061 839.004 429.288 839.01 434.401C829.812 433.753 816.607 434.139 807.138 434.137L748.664 434.147L676.168 434.534C645.345 434.498 615.709 434.065 584.753 434.51C581.89 448.175 578.331 457.453 572.336 469.859C576.44 468.716 579.293 467.934 583.513 467.445C587.511 466.89 592.281 467.168 596.148 466.157C622.772 459.202 651.189 448.703 678.151 443.938C680.49 445.583 684.207 448.326 687.058 449.567C696.465 453.661 711.255 453.528 719.254 459.235C721.129 460.572 720.779 466.77 720.738 469.226C727.946 465.507 732.09 466.297 739.887 466.238C751.924 466.149 762.283 465.533 773.599 470.603C780.869 473.859 789.553 475.661 796.298 480.254C801.224 483.623 801.783 487.371 802.715 492.742C805.147 492.758 816.705 492.604 818.862 493.135C832.441 496.664 849.48 501.54 860.698 510.056C866.408 514.39 865.195 528.699 865.181 535.292L865.058 561.868L865.334 641.888C874.06 641.882 883.081 641.995 891.777 641.665C891.819 651.774 891.763 661.883 891.606 671.991L636.75 671.89L533.575 671.958L498.683 671.956C491.728 671.955 483.516 671.739 476.721 672.286C470.69 680.746 465.042 685.393 456.041 690.293C443.47 697.135 421.734 697.662 409.182 691.053C400.149 686.297 401.515 684.604 389.584 680.692C371.389 687.079 355.104 684.065 340.126 672.007L217.42 671.934C189.555 671.934 159.608 671.355 131.935 672.094L131.983 642.056C138.887 641.585 150.281 641.999 157.524 642.052C157.422 637.908 157.477 634.686 157.683 630.54C150.162 622.801 148.184 609.9 155.307 600.67C158.715 596.253 163.778 595.788 169.032 595.533C168.952 593.857 168.887 592.181 168.839 590.504C167.976 561.132 170.824 560.414 199.053 560.486L229.824 560.536L337.931 560.651L341.668 552.88C333.077 550.429 324.665 547.387 316.494 543.775C265.737 520.895 228.225 477.076 220.911 421.074C216.771 389.374 223.657 363.519 236.598 335.056C235.9 333.7 235.269 332.31 234.706 330.892C225.256 307.347 225.451 269.256 233.612 244.741C236.507 236.047 247.065 236.962 254.717 236.878C281.435 236.731 307.806 242.942 331.65 254.998C337.903 252.218 346.961 249.49 353.663 247.777C381.755 240.599 408.45 237.492 437.108 242.826C449.943 226.905 483.683 209.242 503.829 204.6ZM728.031 616.175C738.206 616.187 751.61 615.835 761.461 616.352L761.309 608.375L761.418 544.949C761.432 530.777 761.199 515.959 761.529 501.881C762.658 500.856 764.248 499.714 764.686 498.424C763.111 499.562 762.861 499.764 761.512 501.152C761.503 495.059 761.214 483.094 762.065 477.609C751.572 477.288 738.827 477.131 728.332 477.593C727.757 482.838 727.977 490.48 727.98 495.951L728.007 525.03L728.031 616.175ZM494.44 332.661C468.314 336.337 456.71 346.974 431.762 352.61C389.743 362.035 339.951 340.806 309.061 381.62C296.757 397.876 292.857 417.728 295.787 437.689C301.355 475.624 331.289 501.411 366.131 512.792C373.582 514.867 381.024 516.974 388.687 518.085C427.001 523.64 468.733 517.244 502.557 498.066C526.853 484.538 548.459 463.544 555.903 436.004C562.288 412.386 560.935 384.606 548.616 362.99C536.65 341.994 518.649 331.192 494.44 332.661ZM338.518 646.707C341.186 656.42 344.456 662.392 353.503 667.587C361.713 672.262 371.424 673.546 380.566 671.166C382.776 670.569 385.225 669.72 387.37 668.93C393.806 670.92 395.745 671.028 402.661 669.754C406.405 680.445 420.585 682.57 430.439 683.758C419.382 679.551 412.199 673.078 417.194 659.982C419.495 653.947 423.47 648.318 425.541 642.134C431.909 624.215 431.658 604.897 429.186 586.395C428.188 601.24 422.823 620.72 415.438 633.766C410.895 642.676 404.006 653.743 394.054 657.389C391.378 658.369 390.322 657.338 388.107 655.902C384.769 656.089 385.947 658.371 381.28 660.133C374.3 662.769 366.77 663.522 359.786 660.071C355.52 657.952 352.285 654.205 350.813 649.674C349.846 646.607 350.411 642.541 352.115 639.731C355.446 634.238 361.363 632.546 366.255 628.265C382.602 613.961 388.13 591.312 385.366 570.367C385.3 569.86 384.925 569.047 384.718 568.593L384.653 569.492C383.209 588.011 371.071 609.491 356.756 621.198C343.649 631.918 319.176 645.99 305.126 628.837C299.823 622.306 300.54 610.785 308.166 606.271C313.772 602.649 320.1 602.148 326.082 599.41C338.457 594.024 347.485 581.701 352.969 569.763C354.885 565.593 356.509 559.942 358.532 556.158C357.917 555.119 356.345 555.027 355.069 554.756C346.804 567.281 342.053 578.268 329.83 588.051C317.324 598.061 299.851 592.596 293.823 610.672C289.783 622.785 294.638 636.356 305.382 643.179C316.446 650.206 326.4 649.145 338.518 646.707ZM628.939 491.801C635.068 507.971 626.935 520.877 611.74 526.371C606.81 528.34 602.25 528.388 600.371 534.205C597.314 543.667 591.016 555.498 590.619 565.472C590.193 576.158 582.154 597.414 589.764 605.51C599.95 611.838 611.161 612.438 621.822 606.798L622.58 606.403C629.937 571.969 634.695 536.356 642.202 501.858C643.248 497.054 644.385 490.85 644.907 485.985L644.521 485.537C640.553 487.094 632.169 490.056 628.939 491.801ZM818.537 613.894C817.719 589.122 818.421 562.71 818.461 537.779C810.766 537.422 803.088 537.252 795.41 536.918C788.34 536.61 781.731 535.495 774.507 535.386C774.512 560.477 773.833 589.382 774.632 614.212L803.27 614.154C806.346 614.158 816.034 614.339 818.537 613.894ZM469.565 585.475C474.739 614.626 473.198 642.371 456.894 668.714C453.949 673.472 449.997 676.578 445.614 679.899L451.172 677.783C459.706 673.349 469.962 666.183 474.058 657.124C482.672 638.073 483.939 619.548 483.023 598.967C493.934 601.107 507.345 599.879 517.443 595.017C520.271 596.648 522.415 598.03 525.699 598.66C532.417 599.949 539.685 597.856 543.123 591.568C545.32 587.551 544.743 584.548 544.276 580.199C551.83 581.962 559.024 584.077 566.195 579.65C571.943 576.101 573.971 569.211 571.696 563.04L570.721 560.336C572.369 559.128 573.685 558.264 575.424 557.188C575.652 555.385 575.95 553.393 576.072 551.594C586.404 548.365 588.866 543.69 587.143 533.376C589.809 528.965 591.769 525.957 594.89 521.87L594.545 521.557C578.285 530.364 576.274 540.596 565.668 553.729C551.313 571.505 524.255 584.049 501.785 586.942C491.467 588.27 479.798 587.392 469.565 585.475ZM577.353 609.933C566.967 617.744 562.321 618.972 549.458 619.119C551.325 624.266 551.757 627.073 551.556 632.596C550.777 636.462 550.333 638.456 549.042 642.15L613.374 642.043C625.889 642.052 640.231 641.772 652.653 642.246C652.785 635.519 653.088 612.82 652.384 606.493C641.254 612.706 626.814 619.008 614.379 621.239C601.843 623.489 585.647 620.202 577.353 609.933ZM686.606 616.026C691.173 615.977 712.119 616.217 715.43 614.385L716.171 613.36C715.505 611.738 715.623 611.421 713.783 610.52C712.183 610.518 710.131 610.721 708.806 610.109C711.488 609.417 712.658 609.515 715.392 609.483C715.586 594.037 715.645 578.59 715.57 563.143C715.567 554.076 715.807 543.582 715.489 534.652C705.371 534.261 696.859 533.808 686.609 534.016C686.484 561.159 686.288 588.908 686.606 616.026ZM269.897 595.533C270.749 586.863 270.871 582.555 270.491 573.673C279.007 574.443 293.305 574.016 302.25 574.014C307.141 574.01 322.478 574.373 326.511 572.852L326.57 573.068L325.888 573.2L325.097 572.598C293.813 571.471 258.475 571.902 227.02 571.921L198.05 571.876C194.458 571.87 186.483 571.653 183.418 572.037C178.782 575.692 180.93 579.857 180.644 585.178C180.476 588.296 180.407 591.085 182.112 593.824C184.642 596.049 209.153 595.358 214.468 595.376L269.897 595.533ZM283.201 606.869L283.794 606.613C282.082 605.574 272.632 606.007 269.872 606.066C250.223 605.333 226.455 605.965 206.59 606.024L181.656 606.091C177.825 606.091 173.798 605.725 169.993 606.035C168.118 606.188 166.332 606.402 164.928 607.777C162.992 609.674 162.621 613.784 162.855 616.308C163.049 618.396 163.771 621.05 165.572 622.35C166.546 623.054 167.675 623.136 168.828 623.21C179.466 623.895 262.493 624.172 266.439 622.64C268.264 621.931 269.485 619.55 269.971 617.793C270.885 614.494 270.521 610.508 270.505 607.076C274.451 607.025 279.333 607.1 283.201 606.869ZM774.503 531.089C791.711 529.898 801.023 530.801 817.561 531.096L818.304 530.749C818.875 524.333 818.373 511.548 818.263 504.569C809.752 503.687 784.867 503.893 775.552 504.198C773.791 506.308 774.492 527.246 774.503 531.089ZM686.643 642.555L715.41 642.534C715.405 635.038 715.251 626.914 715.496 619.469C705.894 619.754 696.221 619.491 686.607 619.616C686.537 627.262 686.549 634.909 686.643 642.555ZM728.02 642.501C737.201 642.523 752.847 642.145 761.51 642.825L761.427 624.538C750.341 624.745 739.253 624.756 728.166 624.573C727.979 630.547 727.931 636.525 728.02 642.501ZM451.052 246.373C453.145 247.082 456.168 248.005 458.11 248.888C465.737 240.316 478.745 233.228 489.187 228.417C494.7 226.105 501.644 222.858 507.423 221.979C516.83 238.694 518.887 244.785 524.03 263.212C523.451 255.849 515.44 215.602 506.764 216.543C488.892 221.194 463.653 233.086 451.052 246.373ZM169.824 642.896C186.277 642.007 204.677 643.155 221.269 642.789C226.199 642.681 232.805 643.122 237.477 642.837L237.213 632.717C215.739 632.869 190.817 631.852 169.886 632.746L169.824 642.896ZM153.402 651.241C151.678 651.255 150.32 651.033 148.937 651.956C151.174 652.97 282.121 652.177 293.508 652.179L296.154 652.197L296.495 651.751C291.65 650.015 164.659 651.079 153.402 651.241ZM645.392 597.66C652.873 593.933 664.572 568.074 667.872 559.834L667.773 558.88C664.825 565.495 644.872 594.656 645.392 597.66ZM714.231 531.261L715.212 531.167C715.807 528.085 715.48 508.959 715.466 504.66C706.847 504.489 695.177 504.294 686.57 504.685L686.526 532.033C693.58 531.708 707.342 531.085 714.231 531.261ZM493.643 627.067C503.703 611.851 521.883 612.299 533.505 625.466C535.915 630.604 535.881 633.344 535.334 638.898C535.215 640.108 534.873 641.79 535.03 642.933C536.528 642.623 538.163 641.259 538.915 639.952C548.064 624.058 527.758 608.15 513.082 609.28C506.186 610.031 502.426 611.547 496.61 615.323C496.468 621.083 496.176 621.847 493.643 627.067ZM853.515 594.301C853.482 597.275 853.084 611.726 853.965 613.686C854.035 610.186 854.62 596.945 853.515 594.301ZM250.593 316.793C245.55 300.096 246.776 275.045 249.802 258.123C250.169 256.9 250.201 255.665 251.577 255.218C254.806 254.169 258.553 254.235 261.93 254.379C277.598 255.044 299.614 258.276 313.843 265.303C315.562 264.471 317.473 263.489 319.216 262.76C300.313 254.049 273.528 247.264 252.683 248.674C250.192 248.917 247.333 249.125 244.889 249.502C239.634 270.06 236.74 303.848 246.313 322.99L250.593 316.793ZM702.213 464.758C694.27 463.016 680.178 461.219 675.004 455.729L674.706 455.693C667.955 456.949 656.611 460.358 649.77 462.333C637.395 465.973 624.975 469.455 612.512 472.781C620.868 477.171 622.936 479.072 627.769 487.327C631.48 485.7 634.498 484.665 638.379 483.42C652.357 479.539 666.288 475.494 680.17 471.286C686.697 469.327 695.899 466.105 702.213 464.758ZM853.191 519.859C853.173 526.09 852.928 533.633 853.521 539.661C854.692 533.582 854.239 526.079 854.178 519.815C852.343 515.298 826.881 506.931 821.126 505.436L820.742 505.848C823.757 507.389 826.973 507.919 829.9 509.244C836.998 512.457 846.74 515.544 853.191 519.859ZM781.345 619.733L774.577 620.01C774.561 627.338 774.7 635.261 774.499 642.538L813.125 642.523L818.485 642.58C818.419 635.04 818.256 627.265 818.421 619.746C806.431 619.355 793.404 619.586 781.345 619.733ZM587.462 478.634C564.679 482.016 560.256 493.242 544.796 507.368C522.782 527.482 500.037 533.238 471.273 533.725C484.767 536.032 493.646 536.54 507.458 533.871C520.435 531.243 532.842 526.8 543.531 519.098C561.424 506.205 571.826 484.133 596.819 484.017C604.641 483.981 608.946 484.792 614.754 490.299C614.82 488.998 614.59 489.32 613.68 488.301C607.827 481.743 596.203 477.491 587.462 478.634ZM789.073 488.556C784.251 485.38 771.894 480.099 766.106 479.52C768.618 480.857 786.655 488.148 789.073 488.556Z"/><path fill="#242223" d="M363.26 387.241C396.389 384.696 410.879 427.122 396.343 452.203C391.63 460.333 384.96 464.309 375.968 466.557C368.52 466.927 363.984 466.803 357.145 463.182C328.533 448.032 327.75 393.742 363.26 387.241ZM368.674 420.596C371.711 421.789 373.355 422.621 376.695 422.52C384.097 419.988 387.956 414.064 385.417 406.28C384.461 403.275 382.35 400.773 379.549 399.325C377.71 398.387 375.318 397.921 373.262 398.024C361.51 401.533 362.301 412.185 368.674 420.596Z"/><path fill="#242223" d="M500.067 366.094C505.826 365.717 511.704 366.083 516.746 369.018C544.369 385.093 546.57 436.252 511.561 444.417C504.421 444.848 499.514 444.329 493.32 440.357C474.51 428.292 468.195 397.725 480.47 379.237C484.979 372.409 492.038 367.674 500.067 366.094ZM514.431 400.633C528.332 394.119 521.946 375.282 507.734 376.004C493.505 382.492 500.026 403.213 514.431 400.633Z"/><path fill="#242223" d="M432.204 482.857C428.099 479.269 424.283 474.674 422.559 469.396C421.236 465.345 418.907 455.585 426.236 456.658C429.133 457.082 433.075 458.816 436.125 459.602C438.609 460.241 441.158 460.599 443.722 460.668C450.525 460.866 457.522 458.067 462.757 453.891C472.938 445.768 473.991 454.122 473.174 462.897C472.489 470.242 469.702 475.231 465.462 481.113C456.401 491.332 442.573 490.454 432.204 482.857Z"/><defs><linearGradient id="gradient_0" gradientUnits="userSpaceOnUse" x1="449.55923" y1="487.50253" x2="447.47208" y2="473.21198"><stop offset="0" stop-color="#504D4F"/><stop offset="1" stop-color="#6B6968"/></linearGradient></defs><path fill="url(#gradient_0)" d="M432.204 482.857C434.318 471.356 459.977 468.118 465.462 481.113C456.401 491.332 442.573 490.454 432.204 482.857Z"/><path fill="#929393" d="M553.776 651.241C554.116 651.206 554.456 651.176 554.797 651.151C564.842 650.381 584.272 651.008 595.192 651.008L675.627 650.993L794.74 650.94C819.717 650.892 844.789 650.988 869.767 651.082C872.085 651.091 872.673 651.032 874.14 652.3C867.995 652.82 858.727 652.516 852.266 652.506L812.753 652.474L686.922 652.519L594.43 652.529L568.192 652.59C564.679 652.599 557.31 652.813 554.288 652.414L553.776 651.241Z"/><defs><linearGradient id="gradient_1" gradientUnits="userSpaceOnUse" x1="535.90442" y1="542.03387" x2="510.4296" y2="576.3429"><stop offset="0" stop-color="#393736"/><stop offset="1" stop-color="#565658"/></linearGradient></defs><path fill="url(#gradient_1)" d="M481.319 561.422C487.936 560.689 495.716 561.107 502.658 560.786C512.857 560.315 521.698 558.182 531.753 557.222C536.966 556.725 545.743 552.097 550.582 551.855C551.632 553.028 551.366 552.359 551.42 553.924C547.265 561.413 507.078 567.401 498.737 567.087C497.368 566.514 495.694 565.131 494.873 564.882C490.904 563.681 485.338 561.752 481.319 561.422Z"/><defs><linearGradient id="gradient_2" gradientUnits="userSpaceOnUse" x1="517.36548" y1="484.16061" x2="524.57672" y2="500.47031"><stop offset="0" stop-color="#232222"/><stop offset="1" stop-color="#5F5E5E"/></linearGradient></defs><path fill="url(#gradient_2)" d="M492.996 511.368C508.967 504.515 522.457 495.442 534.847 483.261C540.692 477.515 541.583 474.329 548.779 469.988C540.965 487.976 515.844 504.919 498.504 513.332C496.706 512.399 494.997 512.505 492.996 511.368Z"/><path fill="#929393" fill-opacity="0.074509807" d="M153.402 651.241C164.659 651.079 291.65 650.015 296.495 651.751L296.154 652.197L293.508 652.179C282.121 652.177 151.174 652.97 148.937 651.956C150.32 651.033 151.678 651.255 153.402 651.241Z"/><path fill="#393838" d="M459.213 525.406C470.461 520.976 481.644 515.781 492.996 511.368C494.997 512.505 496.706 512.399 498.504 513.332C494.898 516.494 475.393 523.415 469.836 524.356C467.106 524.819 462.185 525.225 459.213 525.406Z"/><path fill="#797879" d="M461.918 560.798C468.773 561.43 474.439 561.385 481.319 561.422C485.338 561.752 490.904 563.681 494.873 564.882C495.694 565.131 497.368 566.514 498.737 567.087C484.916 567.495 474.791 565.996 461.508 561.997L461.918 560.798Z"/><path fill="#575757" d="M444.565 662.933C447.796 660.788 450.663 658.471 454.44 660.83C455.934 666.662 442.751 670.283 438.055 668.19L437.51 667.33C438.281 664.001 441.613 664.926 444.565 662.933Z"/><path fill="#393838" d="M444.565 662.933C447.796 660.788 450.663 658.471 454.44 660.83C450.768 662.519 448.615 662.803 444.565 662.933Z"/><path fill="#393838" d="M377.946 640.877C384.098 641.372 386.678 642.595 385.259 649.078C380.094 648.642 376.307 646.813 377.946 640.877Z"/><path fill="#F1F2F1" fill-opacity="0.0078431377" d="M853.191 519.859C846.74 515.544 836.998 512.457 829.9 509.244C826.973 507.919 823.757 507.389 820.742 505.848L821.126 505.436C826.881 506.931 852.343 515.298 854.178 519.815L853.191 519.859Z"/><path fill="#393838" d="M239.118 632.254C243.715 632.145 281.309 631.419 282.902 632.482L282.004 632.861C269.329 633.375 251.265 633.21 238.332 632.942L239.118 632.254Z"/><path fill="#393838" d="M397.083 645.19C398.172 645.679 397.663 645.369 398.439 646.539C397.58 649.823 392.466 651.18 389.536 651.839C388.327 651.415 388.778 651.627 387.794 650.648C387.751 646.747 394.044 645.715 397.083 645.19Z"/><path fill="#797879" fill-opacity="0.32941177" d="M853.191 519.859L854.178 519.815C854.239 526.079 854.692 533.582 853.521 539.661C852.928 533.633 853.173 526.09 853.191 519.859Z"/><path fill="#929393" fill-opacity="0.078431375" d="M766.106 479.52C771.894 480.099 784.251 485.38 789.073 488.556C786.655 488.148 768.618 480.857 766.106 479.52Z"/><path fill="#393838" fill-opacity="0.63137257" d="M853.515 594.301C854.62 596.945 854.035 610.186 853.965 613.686C853.084 611.726 853.482 597.275 853.515 594.301Z"/><path fill="#575757" fill-opacity="0.53725493" d="M269.872 606.066C272.632 606.007 282.082 605.574 283.794 606.613L283.201 606.869C279.427 606.242 274.363 606.718 269.872 606.066Z"/><path fill="#575757" d="M453.642 558.978C456.482 559.512 459.155 559.939 461.918 560.798L461.508 561.997C458.784 561.306 456.223 560.096 453.642 558.978Z"/></svg>