<?xml version="1.0" encoding="utf-8" ?><svg xmlns="http://www.w3.org/2000/svg" xmlns:xlink="http://www.w3.org/1999/xlink" width="733" height="597" viewBox="0 0 733 597"><clipPath id="cl_3"><rect width="733.42383" height="597"/></clipPath><g clip-path="url(#cl_3)"><path fill="#072D56" transform="scale(0.583008 0.583008)" d="M604.3 25.6464C609.21 25.6361 615.264 28.0392 618.152 32.142C630.646 49.8896 640.927 76.7091 645.533 97.5784C648.823 112.496 647.848 130.465 646.84 144.938C697.546 199.472 723.416 256.916 723.989 332.515C784.357 331.366 848.686 332.532 909.17 332.827L1192.61 332.599C1192.38 341.708 1192.69 350.077 1192.16 359.286C1140.68 360.35 1085.06 359.154 1033.27 359.123L723.294 359.151C722.918 369.144 718.779 388.173 716.349 398.217C733.119 396.099 744.061 400.368 756.351 398.9C763.671 398.025 787.663 390.476 795.898 388.097C814.885 382.452 834.108 377.62 853.51 373.617L854.837 374.43C886.791 394.286 919.185 372.922 917.832 421.656C931.787 422.807 953.333 424.994 966.755 427.916C965.352 384.686 971.165 389.831 1011.85 388.886C1038.3 388.27 1062.68 395.43 1087.92 402.699C1096.46 405.159 1101.98 417.462 1104.59 424.98C1124.72 424.826 1139.59 426.44 1158.12 434.882C1172.13 441.266 1184.84 442.772 1194.49 456.132C1196.87 474.475 1195.46 505.284 1195.43 524.064L1195.31 642.109C1206.89 641.694 1221 641.488 1232.5 641.888C1232.68 655.591 1232.64 669.295 1232.39 682.997C1144.3 684.1 1054.36 683.204 966.12 683.211L682.821 683.117C635.763 683.148 586.804 682.515 539.898 683.438C523.646 707.875 490.502 730.686 459.069 715.892C449.268 711.278 445.587 703.454 442.662 693.515C434.714 697.607 426.775 696.465 418.124 695.696C393.515 710.838 364.422 708.487 347.232 683.377C315.616 682.77 282.831 683.209 251.098 683.203L8.86084 683.062C8.84712 671.084 9.33769 653.659 8.101 642.241C19.6721 640.939 54.3067 640.917 65.6685 641.984C65.2809 638.261 65.4439 630.584 65.4301 626.526C62.0888 623.335 59.3838 620.459 56.2724 617.09C55.0716 612.011 54.3787 606.826 54.2072 601.609C53.3718 579.892 65.1248 572.877 84.9103 572.407C82.6136 565.992 81.2277 559.287 80.792 552.488C78.3409 515.618 97.4026 517.601 125.994 517.047C176.733 516.066 229.213 518.687 279.757 515.999C271.395 508.999 263.145 503.469 254.616 495.807C224.37 468.813 201.615 434.457 188.565 396.073C166.862 331.764 175.202 266.365 205.178 206.271C201.862 198.507 199.068 190.529 196.814 182.39C188.955 153.516 189.675 131.461 195.027 102.582C196.665 93.7362 197.636 87.6712 202.171 79.7142C204.052 78.613 207.586 76.6559 209.709 76.3746C248.083 71.3009 295.036 86.0434 327.215 105.848C389.016 82.6764 447.525 76.2391 512.739 84.781C530.075 59.2359 574.003 31.0254 604.3 25.6464ZM707.845 594.732C699.997 609.331 695.193 613.862 677.974 615.821L674.116 616.27C675.599 626.042 675.392 631.924 672.646 641.704C684.476 641.454 696.246 641.743 708.071 641.834C739.821 642.076 771.646 641.318 803.385 641.647C816.793 641.587 830.714 641.339 844.079 641.579C843.452 630.915 843.316 621.089 843.218 610.409C816.465 623.38 758.266 644.15 736.1 610.605C734.049 607.499 730.431 591.962 730.062 591.609C721.46 595.528 717.351 595.892 707.845 594.732ZM784.133 429.777C790.414 428.91 794.477 427.786 800.635 426.126C821.74 419.795 862.467 408.083 883.46 403.949L883.784 403.186C872.273 399.541 857.87 395.694 847.174 390.895C823.853 397.431 791.584 405.121 769.774 412.838C776.097 418.496 780.652 421.884 784.133 429.777Z"/><path fill="#3C9ADA" transform="scale(0.583008 0.583008)" d="M379.083 529.047C350.753 520.788 330.409 511.929 305.474 495.79C149.631 394.926 186.256 172.884 361.125 119.027C439.482 94.8958 532.341 96.4807 602.204 142.775C651.305 175.292 685.557 225.906 697.488 283.577C704.908 320.434 702.622 356.343 693.711 392.843C687.088 419.971 683.013 416.325 665.394 433.837C630.029 468.99 590.464 491.662 540.957 499.83L550.079 501.879C653.371 517.155 683.485 402.85 746.256 419.411C753.481 421.465 757.682 423.913 762.227 430.086C767.309 437.107 768.045 450.438 759.778 455.139C746.819 462.506 735.351 457.693 725.51 471.866C720.366 488.384 726.255 515.039 698.726 506.056C696.773 505.414 694.826 504.752 692.886 504.073L691.365 507.737C693.215 527.908 692.203 544.58 668.16 548.62C660.982 546.735 658.418 545.203 651.73 542.086L649.831 544.177C650.708 551.961 652.778 563.892 647.015 569.828C627.792 589.631 563.854 587.41 544.574 571.918C545.746 582.261 546.77 616.078 543.097 624.073C540.003 648.09 527.121 677.724 507.531 692.852C506.842 693.384 506.144 693.906 505.437 694.415C489.576 707.355 456.521 708.182 462.4 679.719C466.322 670.398 470.669 662.126 474.281 652.604C482.403 631.198 482.657 609.931 483.955 587.425C481.274 596.705 479.727 605.974 475.686 614.849C470.07 632.268 454.451 666.251 436.691 674.275C427.823 679.707 423.528 678.038 416.362 671.294C412.587 676.379 410.95 679.016 405.945 682.894C386.419 695.134 353 682.029 364.508 658.067L366.367 655.484C373.496 646.75 386.273 641.591 393.942 632.526C402.604 622.289 407.293 611.073 411.281 598.415C415.662 578.679 416.184 570.705 416.067 551.093C416.386 547.452 416.088 539.872 416.033 535.915C406.685 535.459 388.858 531.157 379.083 529.047Z"/><path fill="#247EBD" transform="scale(0.583008 0.583008)" d="M544.574 571.918C552.116 571.012 564.464 571.873 572.915 571.105C603.965 568.281 623.703 558.625 649.831 544.177C650.708 551.961 652.778 563.892 647.015 569.828C627.792 589.631 563.854 587.41 544.574 571.918Z"/><path fill="#8BC9F1" transform="scale(0.583008 0.583008)" d="M550.079 501.879C653.371 517.155 683.485 402.85 746.256 419.411L743.613 422.031C712.32 418.409 684.828 452.786 664.171 471.931C633.907 499.981 600.224 512.749 558.931 508.872C555.073 508.552 548.856 507.121 546.228 504.109L546.415 502.809C548.602 501.902 547.823 501.987 550.079 501.879Z"/><path fill="#247EBD" transform="scale(0.583008 0.583008)" d="M691.365 507.737C693.215 527.908 692.203 544.58 668.16 548.62C660.982 546.735 658.418 545.203 651.73 542.086C663.558 537.513 682.819 516.793 691.365 507.737Z"/><path fill="#247EBD" transform="scale(0.583008 0.583008)" d="M364.508 658.067C367.932 658.879 370.503 654.718 371.609 659.196C375.635 675.489 400.233 673.12 404.896 677.642C405.271 679.395 405.679 681.124 405.945 682.894C386.419 695.134 353 682.029 364.508 658.067Z"/><path fill="#247EBD" transform="scale(0.583008 0.583008)" d="M462.4 679.719C471.722 681.611 479.075 694.396 493.893 690.897C497.765 690.489 500.883 689.556 504.087 691.072L505.437 694.415C489.576 707.355 456.521 708.182 462.4 679.719Z"/><path fill="#8BC9F1" transform="scale(0.583008 0.583008)" d="M432.537 666.901C453.141 657.469 462.3 635.388 471.129 615.799C472.614 612.502 474.605 605.957 477.204 603.981C477.291 606.578 475.59 610.615 475.686 614.849C470.07 632.268 454.451 666.251 436.691 674.275C432.415 673.635 420.787 675.707 419.552 669.062C423.539 665.273 427.604 666.306 432.537 666.901Z"/><path fill="#247EBD" transform="scale(0.583008 0.583008)" d="M692.886 504.073C696.363 499.126 720.059 474.31 725.51 471.866C720.366 488.384 726.255 515.039 698.726 506.056C696.773 505.414 694.826 504.752 692.886 504.073Z"/><defs><linearGradient id="gradient_0" gradientUnits="userSpaceOnUse" x1="430.05899" y1="530.39001" x2="437.45901" y2="538.84399"><stop offset="0" stop-color="#67B9E8"/><stop offset="1" stop-color="#97D7F9"/></linearGradient></defs><path fill="url(#gradient_0)" transform="scale(0.583008 0.583008)" d="M493.893 690.897C495.664 689.875 496.856 690.016 498.614 689.24C521.389 679.204 526.957 660.222 535.926 639.16C540.682 636.505 541.036 629.231 542.128 624.073L543.097 624.073C540.003 648.09 527.121 677.724 507.531 692.852C506.842 693.384 506.144 693.906 505.437 694.415L504.087 691.072C500.883 689.556 497.765 690.489 493.893 690.897Z"/><defs><linearGradient id="gradient_1" gradientUnits="userSpaceOnUse" x1="362.48599" y1="514.53998" x2="356.83099" y2="510.815"><stop offset="0" stop-color="#A0D8F4"/><stop offset="1" stop-color="#66C3F9"/></linearGradient></defs><path fill="url(#gradient_1)" transform="scale(0.583008 0.583008)" d="M411.281 598.415C413.42 603.859 409.218 613.102 406.875 618.432C397.873 638.908 388.89 650.115 366.367 655.484C373.496 646.75 386.273 641.591 393.942 632.526C402.604 622.289 407.293 611.073 411.281 598.415Z"/><path fill="#8BC9F1" transform="scale(0.583008 0.583008)" d="M746.256 419.411C753.481 421.465 757.682 423.913 762.227 430.086C754.98 430.699 749.364 425.978 743.613 422.031L746.256 419.411Z"/><path fill="#FEFEFE" transform="scale(0.583008 0.583008)" d="M606.95 259.094C675.872 252.947 685.687 339.264 670.826 387.989C652.361 448.537 581.588 478.593 524.109 488.065C481.477 495.092 439.077 493.526 397.729 479.923C351.906 464.386 319.87 436.705 315.827 386.332C313.812 361.228 319.134 330.523 336.568 311.44C379.743 264.175 450.77 291.701 505.561 283.286C541.88 277.459 568.777 261.837 606.95 259.094Z"/><path fill="#072D56" transform="scale(0.583008 0.583008)" d="M409.004 320.714C462.439 318.752 482.053 424.858 417.503 430.764C359.403 428.971 349.669 330.011 409.004 320.714Z"/><path fill="#FEFEFE" transform="scale(0.583008 0.583008)" d="M419.813 339.408C438.854 337.568 443.134 357.593 428.263 368.413C410.081 371.161 404.057 351.002 419.813 339.408Z"/><path fill="#072D56" transform="scale(0.583008 0.583008)" d="M601.173 295.762C646.061 289.467 667.886 384.999 616.523 404.239C596.862 405.833 585.967 395.775 578.413 378.373C566.101 350.005 569.279 309.632 601.173 295.762Z"/><path fill="#FEFEFE" transform="scale(0.583008 0.583008)" d="M612.845 311.853C629.322 311.416 633.836 330.288 621.095 340.712C605.041 343.221 600.109 323.429 612.845 311.853Z"/><path fill="#072D56" transform="scale(0.583008 0.583008)" d="M505.317 449.839C498.991 443.645 487.617 428.731 491.648 419.642C496.247 417.505 518.89 429.863 531.744 425.282C538.758 422.781 554.972 412.272 558.516 411.514C566.506 420.546 556.391 440.693 550.106 448.635C537.91 461.515 518.355 461.424 505.317 449.839Z"/><path fill="#F23F43" transform="scale(0.583008 0.583008)" d="M505.317 449.839C515.47 436.21 539.145 434.808 550.106 448.635C537.91 461.515 518.355 461.424 505.317 449.839Z"/><path fill="#F23F43" transform="scale(0.583008 0.583008)" d="M1060.1 439.558C1080.48 439.621 1105.54 439.378 1125.47 442.246C1140.34 444.928 1165.93 456.427 1179.32 464.214C1179.29 522.023 1178.33 583.202 1179.73 640.774C1161.55 641.025 1143.36 640.948 1125.18 640.539C1103.54 639.925 1082.44 640.532 1060.46 639.538C1059.88 630.262 1060.09 619.258 1060.04 609.85L1060.02 587.983L1059.99 498.049L1060.11 474.614C1060.38 463.201 1060.14 451.029 1060.1 439.558Z"/><path fill="#CC2D2B" transform="scale(0.583008 0.583008)" d="M1125.47 442.246C1140.34 444.928 1165.93 456.427 1179.32 464.214C1179.29 522.023 1178.33 583.202 1179.73 640.774C1161.55 641.025 1143.36 640.948 1125.18 640.539L1125.25 609.819C1125.45 602.542 1125.52 595.26 1125.45 587.979C1124.62 560.05 1124.44 525.779 1125.2 497.869C1125.35 490.319 1125.23 482.411 1125.24 474.83C1124.73 464.084 1123.9 452.853 1125.47 442.246Z"/><path fill="#F23F43" transform="scale(0.583008 0.583008)" d="M1060.1 439.558C1080.48 439.621 1105.54 439.378 1125.47 442.246C1123.9 452.853 1124.73 464.084 1125.24 474.83C1103.69 474.521 1081.69 474.681 1060.11 474.614C1060.38 463.201 1060.14 451.029 1060.1 439.558Z"/><path fill="#F23F43" transform="scale(0.583008 0.583008)" d="M1125.25 609.819L1125.18 640.539C1103.54 639.925 1082.44 640.532 1060.46 639.538C1059.88 630.262 1060.09 619.258 1060.04 609.85C1081.51 609.879 1103.86 610.214 1125.25 609.819Z"/><path fill="#FDA069" transform="scale(0.583008 0.583008)" d="M1060.11 474.614C1081.69 474.681 1103.69 474.521 1125.24 474.83C1125.23 482.411 1125.35 490.319 1125.2 497.869C1103.69 497.866 1081.44 497.608 1059.99 498.049L1060.11 474.614Z"/><path fill="#FDA069" transform="scale(0.583008 0.583008)" d="M1060.02 587.983C1081.68 587.976 1103.85 587.71 1125.45 587.979C1125.52 595.26 1125.45 602.542 1125.25 609.819C1103.86 610.214 1081.51 609.879 1060.04 609.85L1060.02 587.983Z"/><path fill="#F96D1B" transform="scale(0.583008 0.583008)" d="M883.784 403.186C901.621 406.409 899.223 412.119 899.811 429.095C895.384 430.165 888.997 431.501 884.789 432.779C884.575 479.754 884.678 526.731 885.096 573.707C870.762 579.468 856.288 585.434 841.903 591.015C828.637 596.489 815.285 601.747 801.851 606.79C791.831 610.591 765.078 613.704 756.054 605.741C750.574 598.113 750.008 585.027 749.939 575.93C749.721 546.944 749.073 517.819 750.013 488.876C750.285 480.447 755.134 477.305 762.76 475.317C785.608 469.362 785.822 449.261 784.133 429.777C790.414 428.91 794.477 427.786 800.635 426.126C821.74 419.795 862.467 408.083 883.46 403.949L883.784 403.186Z"/><path fill="#F89618" transform="scale(0.583008 0.583008)" d="M784.133 429.777C790.414 428.91 794.477 427.786 800.635 426.126C801.275 435.174 801.174 444.129 801.265 453.185C801.783 504.301 800.021 555.714 801.851 606.79C791.831 610.591 765.078 613.704 756.054 605.741C750.574 598.113 750.008 585.027 749.939 575.93C749.721 546.944 749.073 517.819 750.013 488.876C750.285 480.447 755.134 477.305 762.76 475.317C785.608 469.362 785.822 449.261 784.133 429.777Z"/><path fill="#CC2D2B" transform="scale(0.583008 0.583008)" d="M883.784 403.186C901.621 406.409 899.223 412.119 899.811 429.095C895.384 430.165 888.997 431.501 884.789 432.779C884.575 479.754 884.678 526.731 885.096 573.707C870.762 579.468 856.288 585.434 841.903 591.015C842.376 584.538 850.331 558.498 852.63 550.031C859.014 526.356 864.981 502.572 870.529 478.688C876.748 452.913 884.01 430.493 883.46 403.949L883.784 403.186Z"/><path fill="#26B450" transform="scale(0.583008 0.583008)" d="M985.05 403.668L1024.81 404.488C1029.17 404.572 1032.9 404.291 1036.93 405.819C1038.79 408.399 1038.47 414.315 1038.47 417.694C1038.52 458.938 1038.53 500.193 1038.56 541.436L1038.61 601.444C1038.64 613.144 1039.07 627.128 1038.3 638.596L1024.79 640.248C1011.65 640.337 998.622 640.517 985.49 639.982L985.25 621.447C985.139 612.017 984.672 602.607 984.672 593.171L984.595 472.187C984.581 451.328 983.822 423.834 985.05 403.668Z"/><path fill="#017A33" transform="scale(0.583008 0.583008)" d="M1024.81 404.488C1029.17 404.572 1032.9 404.291 1036.93 405.819C1038.79 408.399 1038.47 414.315 1038.47 417.694C1038.52 458.938 1038.53 500.193 1038.56 541.436L1038.61 601.444C1038.64 613.144 1039.07 627.128 1038.3 638.596L1024.79 640.248C1011.65 640.337 998.622 640.517 985.49 639.982L985.25 621.447C985.139 612.017 984.672 602.607 984.672 593.171C985.12 596.346 984.724 597.525 986.422 599.662C995.375 600.725 1015.09 600.163 1024.86 600.135C1026.03 537.385 1025.59 467.358 1024.81 404.488Z"/><path fill="#26B450" transform="scale(0.583008 0.583008)" d="M985.25 621.447C996.995 621.593 1013.55 621.303 1024.9 622.197C1024.89 627.586 1025.1 635.027 1024.79 640.248C1011.65 640.337 998.622 640.517 985.49 639.982L985.25 621.447Z"/><path fill="#FEC81D" transform="scale(0.583008 0.583008)" d="M903.527 438.879C931.53 438.345 939.329 439.731 966.768 443.28L966.701 639.366L955.609 639.406C939.947 639.93 919.377 639.359 903.741 638.92C903.247 631.208 903.4 622.449 903.362 614.648C903.489 606.344 903.515 598.037 903.439 589.732C902.261 557.597 903.215 518.308 903.269 485.866C903.288 474.355 903.388 462.844 903.565 451.333L903.527 438.879Z"/><defs><linearGradient id="gradient_2" gradientUnits="userSpaceOnUse" x1="657.93298" y1="460.64099" x2="692.93103" y2="460.36401"><stop offset="0" stop-color="#FFCF04"/><stop offset="1" stop-color="#FFA929"/></linearGradient></defs><path fill="url(#gradient_2)" transform="scale(0.583008 0.583008)" d="M903.527 438.879C931.53 438.345 939.329 439.731 966.768 443.28L966.701 639.366L955.609 639.406C956.096 634.61 954.7 622.047 954.902 615.531C955.638 609.07 954.976 596.699 954.765 589.84C953.832 576.652 954.461 555.33 954.458 541.561C954.454 525.646 953.87 504.097 954.837 488.569C940.772 486.722 917.976 486.44 903.269 485.866C903.288 474.355 903.388 462.844 903.565 451.333L903.527 438.879Z"/><path fill="#FEF9D3" transform="scale(0.583008 0.583008)" d="M903.565 451.333C920.535 451.007 938.777 452.259 955.125 457.263C955.309 465.082 955.779 480.983 954.837 488.569C940.772 486.722 917.976 486.44 903.269 485.866C903.288 474.355 903.388 462.844 903.565 451.333Z"/><path fill="#FEF9D3" transform="scale(0.583008 0.583008)" d="M903.439 589.732C919.384 589.18 938.571 589.773 954.765 589.84C954.976 596.699 955.638 609.07 954.902 615.531C954.7 622.047 956.096 634.61 955.609 639.406C939.947 639.93 919.377 639.359 903.741 638.92C903.247 631.208 903.4 622.449 903.362 614.648C903.489 606.344 903.515 598.037 903.439 589.732Z"/><path fill="#FEC81D" transform="scale(0.583008 0.583008)" d="M903.362 614.648C920.717 615.222 937.765 615.027 954.902 615.531C954.7 622.047 956.096 634.61 955.609 639.406C939.947 639.93 919.377 639.359 903.741 638.92C903.247 631.208 903.4 622.449 903.362 614.648Z"/><path fill="#3C9ADA" transform="scale(0.583008 0.583008)" d="M379.083 529.047C388.858 531.157 406.685 535.459 416.033 535.915C416.088 539.872 416.386 547.452 416.067 551.093L411.592 556.101C401.167 567.786 399.669 598.924 381.971 616.416C375.306 624.529 356.174 645.949 344.8 635.73C343.865 634.884 342.985 633.979 342.165 633.021L341.649 630.963C337.289 635.754 334.771 639.826 329.362 643.387C322.366 646.922 314.385 648.002 306.7 646.455C288.294 642.834 282.04 628.625 285.719 611.488L287.503 609.228C293.652 597.111 304.407 595.367 316.589 593.494C339.722 588.73 350.786 573.242 363.053 554.656C367.366 544.299 370.045 536.188 379.083 529.047Z"/><defs><linearGradient id="gradient_3" gradientUnits="userSpaceOnUse" x1="365.91101" y1="456.35999" x2="345.069" y2="490.138"><stop offset="0" stop-color="#01659E"/><stop offset="1" stop-color="#017DBA"/></linearGradient></defs><path fill="url(#gradient_3)" transform="scale(0.583008 0.583008)" d="M379.083 529.047C388.858 531.157 406.685 535.459 416.033 535.915C416.088 539.872 416.386 547.452 416.067 551.093L411.592 556.101C401.167 567.786 399.669 598.924 381.971 616.416C382.563 612.605 383.113 611.691 384.679 608.073C387.94 605.775 393.799 583.141 395.101 578.37C397.803 568.475 398.582 549.38 384.93 546.951C376.431 545.438 369.728 549.819 363.053 554.656C367.366 544.299 370.045 536.188 379.083 529.047Z"/><path fill="#247EBD" transform="scale(0.583008 0.583008)" d="M285.719 611.488C287.927 611.493 290.513 611.039 291.675 613.154C294.793 618.838 295.85 621.281 300.507 625.974C308.951 634.486 321.081 635.653 329.362 643.387C322.366 646.922 314.385 648.002 306.7 646.455C288.294 642.834 282.04 628.625 285.719 611.488Z"/><path fill="#8BC9F1" transform="scale(0.583008 0.583008)" d="M342.165 633.021C345.999 624.857 349.053 630.305 357.623 628.632C368.726 626.466 376.987 612.392 384.679 608.073C383.113 611.691 382.563 612.605 381.971 616.416C375.306 624.529 356.174 645.949 344.8 635.73C343.865 634.884 342.985 633.979 342.165 633.021Z"/><path fill="#8BC9F1" transform="scale(0.583008 0.583008)" d="M316.589 593.494C319.621 595.171 318.75 593.996 319.954 596.576C316.987 601.698 303.273 603.374 297.572 605.559C295.294 606.432 289.398 609.077 287.503 609.228C293.652 597.111 304.407 595.367 316.589 593.494Z"/><path fill="#FEC81D" transform="scale(0.583008 0.583008)" d="M235.493 532.984C246.978 532.205 299.508 530.291 307.7 532.479C319.549 535.646 331.158 543.357 342.736 547.91C332.208 566.914 327.391 573.691 304.52 573.06C291.505 572.7 277.064 572.751 263.953 572.71L215.416 572.666C207.337 572.652 194.603 572.949 186.857 572.082C187.003 563.292 187.67 541.623 186.145 533.589C191.075 532.261 228.4 532.862 235.493 532.984Z"/><path fill="#F89618" transform="scale(0.583008 0.583008)" d="M235.493 532.984C246.978 532.205 299.508 530.291 307.7 532.479C319.549 535.646 331.158 543.357 342.736 547.91C332.208 566.914 327.391 573.691 304.52 573.06C291.505 572.7 277.064 572.751 263.953 572.71L263.351 533.176C254.318 533.279 244.436 533.618 235.493 532.984Z"/><path fill="#F23F43" transform="scale(0.583008 0.583008)" d="M101.919 625.612C112.428 624.823 123.945 624.968 134.526 625.094C177.91 625.605 221.49 624.421 264.848 625.044C266.315 635.961 268.193 641.852 271.898 652.302C255.628 654.45 231.006 652.558 214.117 653.133C210.726 653.249 185.617 653.097 182.879 652.666C151.977 652.519 117.066 653.064 86.3717 651.431C85.7234 646.39 85.0218 641.333 84.5484 636.275C83.3649 623.6 93.3649 625.445 101.919 625.612Z"/><path fill="#CC2D2B" transform="scale(0.583008 0.583008)" d="M101.919 625.612C112.428 624.823 123.945 624.968 134.526 625.094C177.91 625.605 221.49 624.421 264.848 625.044C266.315 635.961 268.193 641.852 271.898 652.302C255.628 654.45 231.006 652.558 214.117 653.133C210.726 653.249 185.617 653.097 182.879 652.666C183.378 652.459 184.1 651.812 184.574 651.443C185.473 644.826 185.152 633.011 185.166 625.977C160.149 625.975 126.222 627.001 101.919 625.612Z"/><path fill="#247EBD" transform="scale(0.583008 0.583008)" d="M622.972 663.542C614.195 666.695 600.895 667.024 592.001 665.995C558.226 662.09 564.051 626.377 587.385 612.164C600.181 604.372 613.413 601.132 627.869 604.252C643.747 606.838 659.058 614.207 655.96 633.373C654.408 642.987 646.116 652.911 637.426 657.143C633.751 660.467 627.754 662.079 622.972 663.542Z"/><path fill="#3C9ADA" transform="scale(0.583008 0.583008)" d="M627.869 604.252C643.747 606.838 659.058 614.207 655.96 633.373C654.408 642.987 646.116 652.911 637.426 657.143C633.751 660.467 627.754 662.079 622.972 663.542C622.2 663.333 621.43 663.117 620.663 662.891C599.74 656.675 604.198 634.682 617.296 622.944C624.375 616.603 627.38 617.087 635.195 613.668L636.31 613.169C626.689 609.838 623.524 609.617 613.238 609.198C619.36 603.941 619.766 604.2 627.869 604.252Z"/><path fill="#8BC9F1" transform="scale(0.583008 0.583008)" d="M627.869 604.252C643.747 606.838 659.058 614.207 655.96 633.373C654.408 642.987 646.116 652.911 637.426 657.143C637.673 655.573 644.552 645.275 645.96 641.683C650.73 629.512 651.006 617.121 636.31 613.169C626.689 609.838 623.524 609.617 613.238 609.198C619.36 603.941 619.766 604.2 627.869 604.252Z"/><path fill="#FEF9D3" transform="scale(0.583008 0.583008)" d="M186.857 572.082C173.03 571.055 112.9 574.077 105.639 569.142C103.464 567.664 102.529 564.601 102.243 562.103C101.56 556.148 100.595 540.932 104.624 536.479C106.102 534.844 108.528 534.589 110.651 534.351C118.221 533.5 126.142 534.085 133.749 534.16C151.056 534.33 168.898 534.889 186.145 533.589C187.67 541.623 187.003 563.292 186.857 572.082Z"/><path fill="#26B450" transform="scale(0.583008 0.583008)" d="M191.699 612.718L121.349 612.528C111.428 612.505 84.7645 613.085 77.087 611.087C73.1231 607.241 73.744 595.454 76.696 590.976C78.0767 588.881 82.4284 588.434 84.8572 588.355C97.5312 587.94 110.289 588.156 122.984 588.194C148.836 588.309 174.69 588.266 200.545 588.065C202.035 588.489 204.021 588.657 204.404 589.755C206.466 595.691 205.078 605.679 205.124 612.156C200.86 612.305 195.884 612.346 191.699 612.718Z"/><path fill="#247EBD" transform="scale(0.583008 0.583008)" d="M729.833 513.368L730.236 513.757C732.819 520.301 733.951 560.429 730.644 567.619C724.496 580.984 710.515 579.105 698.467 573.262C697.9 578.755 697.69 582.773 695.951 588.034C685.694 600.032 673.84 600.12 659.728 596.031C654.495 593.024 653.593 592.26 649.176 588.259C661.051 579.892 663.541 577.232 668.392 563.738C686.728 559.187 702.081 550.791 705.906 530.318L707.047 524.363C718.337 522.232 721.659 521.31 729.833 513.368Z"/><path fill="#28598C" transform="scale(0.583008 0.583008)" d="M689.846 655.915L1060.41 656.038L1153.64 656.114C1167.41 656.038 1190.9 655.052 1203.93 656.151C1205.71 658.223 1205.13 658.321 1205.39 661.687L849.129 661.765L744.208 661.733C731.244 661.757 702.395 662.771 691.164 661.474C689.371 659.196 689.975 659.524 689.846 655.915Z"/><path fill="#017A33" transform="scale(0.583008 0.583008)" d="M200.545 588.065C224.117 589.597 249.021 587.998 272.884 589.087C268.459 598.586 266.783 602.399 264.97 612.605C240.548 612.981 216.121 613.018 191.699 612.718C195.884 612.346 200.86 612.305 205.124 612.156C205.078 605.679 206.466 595.691 204.404 589.755C204.021 588.657 202.035 588.489 200.545 588.065Z"/><path fill="#28598C" transform="scale(0.583008 0.583008)" d="M39.4611 655.232C48.6429 655.482 57.4936 654.925 66.8126 655.398C68.3821 657.436 67.9567 658.668 68.2706 661.719C60.5228 661.784 47.7338 662.266 40.3993 661.44C39.0374 659.311 39.5383 658.225 39.4611 655.232Z"/><path fill="#072D56" transform="scale(0.583008 0.583008)" d="M142.884 757.515C197.202 751.351 246.177 790.527 252.093 844.871C258.009 899.215 218.611 948.01 164.241 953.679C110.219 959.312 61.8024 920.223 55.9241 866.227C50.0459 812.231 88.9155 763.639 142.884 757.515ZM156.883 915.892C164.999 914.595 172.697 913.263 179.406 908.108C217.018 879.206 210.201 796.786 153.819 795.088C148.67 795.684 142.902 796.518 138.051 798.377C97.7782 813.815 96.3477 882.344 127.764 906.93C136.425 913.705 146.207 915.792 156.883 915.892Z"/><path fill="#F96D1B" transform="scale(0.583008 0.583008)" d="M623.823 760.529L667.245 760.417C701.284 760.304 741.109 760.414 766.472 786.613C801.745 823.046 798.013 890.568 763.059 925.562C733.45 951.756 703.241 952.195 665.745 951.867C651.67 951.723 637.593 951.715 623.516 951.843L623.565 827.657C623.574 807.105 622.809 780.486 623.823 760.529ZM728.033 901.806C748.853 879.128 750.757 830.185 726.824 808.453C709.678 792.885 688.188 796.966 667.43 795.134C666.956 835.574 667.862 876.44 667.291 916.758C690.632 917.266 709.93 919.029 728.033 901.806Z"/><path fill="#072D56" transform="scale(0.583008 0.583008)" d="M532.825 817.698C571.036 814.957 604.282 843.602 607.221 881.798C610.157 919.993 581.684 953.387 543.504 956.521C505.043 959.679 471.352 930.952 468.393 892.475C465.434 854.001 494.334 820.458 532.825 817.698ZM543.097 921.506C577.519 914.576 572.428 847.039 533.216 853.202C525.514 855.282 518.96 858.433 515.099 865.84C503.29 888.496 511.075 925.988 543.097 921.506Z"/><path fill="#F96D1B" transform="scale(0.583008 0.583008)" d="M857.112 820.751C877.024 819.291 895.999 820.283 912.961 832.259C942.631 853.205 946.6 899.482 926.226 928.13C915.604 943.063 900.257 950.596 882.516 953.324C780.714 968.293 770.121 831.279 857.112 820.751ZM870.41 922.218C874.168 921.54 877.705 920.998 881.134 919.163C906.83 905.403 900.94 851.325 867.714 852.27C846.488 857.262 841.402 867.699 840.805 889.023C840.333 905.902 851.47 924.511 870.41 922.218Z"/><path fill="#F96D1B" transform="scale(0.583008 0.583008)" d="M1114.47 820.76C1131.73 819.279 1146.13 820.694 1161.98 827.911C1161.53 837.866 1161.32 847.761 1160.8 857.744C1149.01 852.764 1113.59 840.159 1107.43 858.697C1108.88 865.85 1121.15 870.603 1128.14 872.145C1161.32 879.46 1186.1 906.232 1160.74 938.629C1151.45 950.495 1131.27 953.78 1115.99 954.562C1096.08 954.294 1087.09 951.855 1068.65 944.905L1068.83 910.925C1079.32 917.088 1090.11 921.756 1102.12 924.104C1110.4 925.724 1129.13 925.809 1131.06 914.932C1127.04 903.263 1091.82 899.328 1081.65 889.707C1074.78 884.112 1069.21 876.534 1068.5 867.111C1066.22 836.801 1089.28 823.628 1114.47 820.76Z"/><path fill="#072D56" transform="scale(0.583008 0.583008)" d="M428.566 784.904C429.703 788.427 429.223 818.576 429.209 824.108L461.405 823.847L461.352 854.896C450.816 854.696 439.942 854.78 429.376 854.726C429.127 872.436 425.582 904.052 433.841 918.883C436.449 920.379 439.156 921.691 441.84 923.053C450.866 922.671 454.396 921.659 462.794 918.703C463.319 928.952 462.986 938.633 463.77 949.164C455.17 951.811 449.091 953.008 440.226 953.895C373.745 963.569 390.678 894.36 388.607 854.481L370.492 854.102C370.568 844.823 370.431 835.542 370.083 826.269L389.12 826.386C388.292 816.324 388.583 801.496 388.51 791.062C401.072 789.012 416.153 785.796 428.566 784.904Z"/><path fill="#F96D1B" transform="scale(0.583008 0.583008)" d="M1010.05 820.777C1026.22 819.516 1038.01 819.391 1053.11 825.736C1053.27 837.296 1053.27 848.859 1053.11 860.419C1041.66 854.287 1028.73 850.083 1015.74 854.323C1007.23 857.107 1000.29 863.344 996.614 871.505C989.257 887.68 994.979 911.395 1012.44 918.561C1026.31 924.25 1040.56 920.36 1053.65 914.818C1054.27 923 1054.08 934.053 1054.19 942.453C1054.23 942.962 1054.03 945.478 1053.99 946.075C1049.94 950.921 1039.76 952.315 1033.15 953.504C966.208 965.543 926.189 900.148 963.384 845.116C973.055 830.807 992.422 823.048 1010.05 820.777Z"/><path fill="#072D56" transform="scale(0.583008 0.583008)" d="M330.668 819.99C339.22 819.315 352.692 822.552 361.079 824.525C360.93 835.909 360.644 847.473 360.935 858.84C349.246 853.715 335.945 850.226 323.431 854.692C315.534 857.443 309.155 863.389 305.856 871.073C301.772 880.532 301.753 893.155 305.762 902.644C308.927 910.293 315.133 916.281 322.892 919.17C337.047 924.54 350.098 920.226 362.925 914.41C362.884 924.122 364.58 936.814 363.125 946.526C362.928 947.849 361.985 947.897 360.402 948.765C335.669 958.392 300.232 956.394 279.855 937.928C254.119 914.607 252.575 866.925 276.486 841.638C291.894 825.341 309.05 820.996 330.668 819.99Z"/></g></svg>