<?xml version="1.0" encoding="utf-8" ?><svg xmlns="http://www.w3.org/2000/svg" xmlns:xlink="http://www.w3.org/1999/xlink" width="598" height="580" viewBox="0 0 598 580"><clipPath id="cl_4"><rect width="597.55859" height="580"/></clipPath><g clip-path="url(#cl_4)"><path fill="#083668" transform="scale(0.566406 0.566406)" d="M34.9282 543.961L34.8222 357.328L34.8346 287.8C34.8204 250.072 34.1635 217.59 43.5916 180.368C52.444 144.999 70.5356 112.614 96.0139 86.5269C145.826 35.9854 212.743 21.9954 281.113 21.7552L635.723 21.7535L739.811 21.7464C776.598 21.7341 808.821 21.1567 845.021 27.5426C932.087 42.9044 995.366 102.779 1013.45 189.759C1021.34 227.687 1020.04 259.756 1020.06 298.426L1020.07 397.05L1020.07 743.23C1020.03 832.279 997.965 900.07 922.277 953.696C889.388 971.367 864.201 983.644 825.964 986.34C821.427 986.661 809.23 987.454 805.492 988.427C795.363 987.998 778.64 988.943 767.506 988.999L678.851 989.101L391.336 989.061L307.576 989.061C248.973 988.983 207.171 989.592 152.344 964.938C148.334 962.622 145.204 960.901 141.002 958.854C133.414 953.6 125.578 947.943 117.883 942.931C113.044 939.368 105.693 932.566 101.338 928.173C27.0717 853.266 35.0094 766.828 34.7834 671.878C34.9529 629.359 34.356 586.404 34.9282 543.961Z"/><defs><linearGradient id="gradient_0" gradientUnits="userSpaceOnUse" x1="311.42999" y1="445.14099" x2="253.298" y2="432.15799"><stop offset="0" stop-color="#52A1DC"/><stop offset="1" stop-color="#104F8C"/></linearGradient></defs><path fill="url(#gradient_0)" transform="scale(0.566406 0.566406)" d="M34.9282 543.961C36.1237 538.355 35.5639 507.053 35.91 498.091C37.1285 508.25 36.5298 527.559 36.5281 538.669L36.5069 629.271C36.5033 637.05 34.9953 672.808 38.5482 676.601L38.9191 675.785C35.9135 671.53 38.8661 667.92 38.0485 664.689C35.2425 653.605 38.8202 642.915 38.8466 631.785C38.9014 609.154 43.5634 588.715 48.0222 566.736C50.0053 555.668 50.2225 543.29 52.5924 532.382C58.5116 505.128 63.5886 477.637 69.4266 450.395C71.2843 441.734 71.4768 434.822 72.8877 426.453C75.1216 413.208 78.6163 399.976 80.4016 386.602C83.4336 366.367 86.2644 346.953 90.5943 327C95.8885 302.604 103.298 283.983 112.875 261.176C118.932 246.75 124.408 231.017 130.571 216.504C133.096 210.56 137.023 205.502 139.453 199.863C146.817 182.778 156.379 176.906 162.471 158.223C155.286 192.938 156.573 247.067 169.609 279.617C150.147 331.932 148.819 375.544 162.252 429.435C159.762 436.577 170.492 449.034 168.313 459.553C162.939 485.492 155.962 511.187 150.463 537.16C149.317 542.58 147.551 547.742 146.785 553.196C140.751 553.168 134.5 553.226 128.492 552.924C129.327 553.616 135.919 554.296 137.673 554.737C83.1211 554.654 80.9667 553.961 81.4841 609.553C50.7064 616.186 50.0212 640.106 65.9655 662.98L60.357 680.003C50.6428 680.903 37.0525 684.281 34.7834 671.878C34.9529 629.359 34.356 586.404 34.9282 543.961Z"/><defs><linearGradient id="gradient_1" gradientUnits="userSpaceOnUse" x1="302.077" y1="481.40799" x2="318.483" y2="484.957"><stop offset="0" stop-color="#5AA6DB"/><stop offset="1" stop-color="#7CC5F0"/></linearGradient></defs><path fill="url(#gradient_1)" transform="scale(0.566406 0.566406)" d="M162.252 429.435C168.929 450.13 174.7 463.372 185.772 482.597C185.732 482.927 185.693 483.257 185.654 483.587C189.968 509.018 181.043 528.668 174.435 552.753L180.063 552.748C181.119 554.118 180.92 553.408 180.983 554.76C169.108 555.514 149.926 554.882 137.673 554.737C135.919 554.296 129.327 553.616 128.492 552.924C134.5 553.226 140.751 553.168 146.785 553.196C147.551 547.742 149.317 542.58 150.463 537.16C155.962 511.187 162.939 485.492 168.313 459.553C170.492 449.034 159.762 436.577 162.252 429.435Z"/><defs><linearGradient id="gradient_2" gradientUnits="userSpaceOnUse" x1="315.19199" y1="490.98801" x2="358.47699" y2="499.90201"><stop offset="0" stop-color="#76C5F1"/><stop offset="1" stop-color="#DEFFFF"/></linearGradient></defs><path fill="url(#gradient_2)" transform="scale(0.566406 0.566406)" d="M185.772 482.597C206.493 513.37 225.427 534.22 256.962 554.916C232.468 554.909 205.252 555.5 180.983 554.76C180.92 553.408 181.119 554.118 180.063 552.748L174.435 552.753C181.043 528.668 189.968 509.018 185.654 483.587C185.693 483.257 185.732 482.927 185.772 482.597Z"/><path fill="#2599E7" transform="scale(0.566406 0.566406)" d="M192.128 301.557C195.622 289.793 201.697 278.522 208.06 268.141C268.095 170.174 399.187 127.097 507.676 159.74C562.025 176.092 606.995 209.592 633.554 260.194C659.767 309.794 664.703 368.565 648.462 422.302C646.897 427.474 645.608 430.872 643.049 435.588C617.75 448.067 617.559 453.976 597.989 472.591C574.826 494.625 524.202 520.347 492.55 526.011C510.029 529.157 515.84 527.995 530.877 529.489C538.645 528.399 543.676 527.285 551.329 525.396C572.786 518.294 595.948 503.848 610.499 486.504C629.401 463.972 635.968 450.039 668.727 450.861C702.15 453.729 718.418 488.221 681.308 502.031C667.675 507.106 660.267 515.917 652.133 527.483C669.306 525.937 667.071 540.525 657.832 549.879L646.666 551.971C641.665 557.864 639.41 561.81 635.629 568.572C642.073 571.265 647.381 576.234 642.656 583.724C636.102 594.105 626.319 597.073 614.599 596.333L606.628 591.554L597.892 596.284L600.596 606.792C593.08 621.953 572.266 630.208 564.139 611.608C546.139 629.791 512.162 622.994 490.042 617.357C495.702 640.185 494.388 676.038 484.979 697.743C491.842 701.401 492.581 706.752 487.635 712.787C482.281 719.319 478.052 720.578 469.874 721.457C463.077 725.022 458.668 731.765 452.711 735.167C428.353 749.077 407.847 737.132 415.23 709.168C422.412 694.24 427.477 665.978 427.708 649.726C424.226 645.017 426.073 640.581 426.255 634.331C425.123 634.368 424.438 634.502 423.322 634.666C421.884 637.378 420.832 641.214 419.844 644.225L418.487 644.168L416.638 649.173C414.195 660.384 406.171 683.582 399.842 693.078C393.363 704.395 379.291 718.152 367.373 705.211C364.445 707.254 360.523 713.784 357.576 715.802C334.151 731.851 305.945 722.421 308.666 691.525C320.358 656.216 363.398 676.317 367.036 605.343C366.903 602.354 367.194 601.746 366.075 599.073C355.192 640.694 336.288 648.329 301.028 668.08C288.559 676.405 285.988 688.936 268.379 683.331C251.064 677.821 242.533 657.478 249.037 640.736C254.266 627.279 274.263 625.77 285.967 620.814C295.406 617.119 305.018 608.868 310.529 600.288C323.367 580.297 321.506 570.91 345.631 561.831C248.876 534.007 172.397 457.445 180.92 350.11C182.076 335.546 186.078 314.826 192.128 301.557Z"/><path fill="#1272CB" transform="scale(0.566406 0.566406)" d="M192.128 301.557C192.324 301.938 192.52 302.321 192.714 302.704C193.447 404.059 239.084 496.814 336.223 537.418C348.647 542.612 368.305 549.217 382.429 551.044C364.095 569.534 369.126 582.433 367.036 605.343C366.903 602.354 367.194 601.746 366.075 599.073C355.192 640.694 336.288 648.329 301.028 668.08C288.559 676.405 285.988 688.936 268.379 683.331C251.064 677.821 242.533 657.478 249.037 640.736C254.266 627.279 274.263 625.77 285.967 620.814C295.406 617.119 305.018 608.868 310.529 600.288C323.367 580.297 321.506 570.91 345.631 561.831C248.876 534.007 172.397 457.445 180.92 350.11C182.076 335.546 186.078 314.826 192.128 301.557Z"/><defs><linearGradient id="gradient_3" gradientUnits="userSpaceOnUse" x1="515.52399" y1="513.573" x2="544.05902" y2="551.99402"><stop offset="0" stop-color="#0767C6"/><stop offset="1" stop-color="#217ECF"/></linearGradient></defs><path fill="url(#gradient_3)" transform="scale(0.566406 0.566406)" d="M652.133 527.483C669.306 525.937 667.071 540.525 657.832 549.879L646.666 551.971C641.665 557.864 639.41 561.81 635.629 568.572C642.073 571.265 647.381 576.234 642.656 583.724C636.102 594.105 626.319 597.073 614.599 596.333L606.628 591.554L597.892 596.284L600.596 606.792C593.08 621.953 572.266 630.208 564.139 611.608C546.139 629.791 512.162 622.994 490.042 617.357C495.702 640.185 494.388 676.038 484.979 697.743L480.642 698.917C482.816 689.869 485.068 667.819 487.616 661.209C487.711 653.751 487.754 646.294 487.741 638.836C486.583 623.148 483.538 611.608 480.042 596.204C504.443 604.908 520.44 608.056 546.897 605.434C579.658 602.188 608.599 585.459 628.838 559.661C636.676 549.67 643.457 538.246 651.393 528.389L652.133 527.483Z"/><path fill="#2583DC" transform="scale(0.566406 0.566406)" d="M564.139 611.608C568.947 606.425 580.406 603.655 587.57 601.174C591.113 603.047 596.58 604.922 600.596 606.792C593.08 621.953 572.266 630.208 564.139 611.608Z"/><path fill="#014991" transform="scale(0.566406 0.566406)" d="M487.741 638.836L489.161 639.472C489.919 646.264 490.051 653.11 489.555 659.927C488.078 661.137 488.783 660.815 487.616 661.209C487.711 653.751 487.754 646.294 487.741 638.836Z"/><path fill="#1272CB" transform="scale(0.566406 0.566406)" d="M376.511 694.722C387.255 687.591 388.698 684.793 397.086 675.503C403.201 668.73 410.891 652.009 416.638 649.173C414.195 660.384 406.171 683.582 399.842 693.078C393.363 704.395 379.291 718.152 367.373 705.211C364.445 707.254 360.523 713.784 357.576 715.802C334.151 731.851 305.945 722.421 308.666 691.525C311.758 695.444 314.22 698.892 318.456 701.68C335.951 713.195 360.12 704.072 376.511 694.722Z"/><path fill="#2583DC" transform="scale(0.566406 0.566406)" d="M386.891 691.226C391.2 691.894 395.518 692.512 399.842 693.078C393.363 704.395 379.291 718.152 367.373 705.211C369.412 698.186 371.15 698.525 377.403 695.469L386.891 691.226Z"/><path fill="#99DEFA" transform="scale(0.566406 0.566406)" d="M551.329 525.396C572.786 518.294 595.948 503.848 610.499 486.504C629.401 463.972 635.968 450.039 668.727 450.861C638.363 457.936 633.908 472.978 614.214 494.756C597.196 513.574 578.568 521.772 554.531 527.315L551.329 525.396Z"/><path fill="#1272CB" transform="scale(0.566406 0.566406)" d="M415.23 709.168C427.952 729.549 447.097 724.824 465.779 716.957C466.969 718.338 468.539 720.329 469.874 721.457C463.077 725.022 458.668 731.765 452.711 735.167C428.353 749.077 407.847 737.132 415.23 709.168Z"/><path fill="#2583DC" transform="scale(0.566406 0.566406)" d="M484.979 697.743C491.842 701.401 492.581 706.752 487.635 712.787C482.281 719.319 478.052 720.578 469.874 721.457C468.539 720.329 466.969 718.338 465.779 716.957C472.15 707.075 474.926 706.549 480.642 698.917L484.979 697.743Z"/><path fill="#020B1E" transform="scale(0.566406 0.566406)" d="M426.106 608.425C427.664 623.111 427.754 634.917 427.708 649.726C424.226 645.017 426.073 640.581 426.255 634.331C425.123 634.368 424.438 634.502 423.322 634.666C421.884 637.378 420.832 641.214 419.844 644.225L418.487 644.168C421.594 631.684 424.187 621.209 426.106 608.425Z"/><path fill="#99DEFA" transform="scale(0.566406 0.566406)" d="M530.877 529.489C538.645 528.399 543.676 527.285 551.329 525.396L554.531 527.315C549.111 528.638 535.667 532.752 530.877 529.489Z"/><path fill="#F9F9F9" transform="scale(0.566406 0.566406)" d="M552.601 285.979C618.122 279.993 646.429 345.986 631.991 401.745C622.191 440.869 593.112 469.821 558.988 489.433C498.981 523.917 433.894 531.037 367.525 513.751C324.188 500.411 285.649 472.229 276.437 424.977C271.485 399.582 275.269 372.509 290.811 351.328C333.872 292.644 402.309 324.062 461.484 313.702C495.976 307.462 518.146 291.716 552.601 285.979Z"/><path fill="#002654" transform="scale(0.566406 0.566406)" d="M417.904 419.806C416.092 432.007 412.767 442.48 403.936 451.691C396.579 459.382 386.422 463.766 375.779 463.845C327.526 464.219 310.667 393.166 343.694 363.281C361.01 347.614 386.533 348.758 401.548 367.043C415.615 381.453 418.107 400.701 417.904 419.806Z"/><path fill="#F9F9F9" transform="scale(0.566406 0.566406)" d="M378.244 365.156C397.303 365.862 406.855 386.448 389.404 397.663C382.431 398.074 377.145 396.632 372.826 390.673C369.842 386.517 368.747 381.295 369.813 376.289C371.007 370.601 373.746 368.292 378.244 365.156Z"/><path fill="#002654" transform="scale(0.566406 0.566406)" d="M559.23 323.931C612.514 325.275 621.202 422.479 566.346 430.786C511.452 429.952 502.093 332.949 559.23 323.931Z"/><path fill="#F9F9F9" transform="scale(0.566406 0.566406)" d="M566.336 335.919C584.314 336.33 593.67 356.962 577.076 368.011C556.597 368.442 550.328 347.485 566.336 335.919Z"/><path fill="#002654" transform="scale(0.566406 0.566406)" d="M459.683 478.873C451.655 472.106 443.433 452.888 448.183 442.855C449.383 442.129 477.63 454.251 487.787 446.901C487.54 447.081 514.579 434.257 511.674 434.553C522.701 444.852 512.753 468.1 504.515 477.999C491.351 490.135 472.712 492.499 459.683 478.873Z"/><path fill="#EB3E48" transform="scale(0.566406 0.566406)" d="M459.683 478.873C459.78 457.83 499.958 457.191 504.515 477.999C491.351 490.135 472.712 492.499 459.683 478.873Z"/><defs><linearGradient id="gradient_4" gradientUnits="userSpaceOnUse" x1="633.17499" y1="345.58899" x2="675.18103" y2="293.39099"><stop offset="0" stop-color="#4591CD"/><stop offset="1" stop-color="#134F8C"/></linearGradient></defs><path fill="url(#gradient_4)" transform="scale(0.566406 0.566406)" d="M579.262 80.254C611.857 77.3603 658.28 88.2112 688.138 101.13C691.571 102.586 694.961 103.057 698.516 104.228C702.768 105.626 709.058 110.451 712.959 111.548C725.11 114.964 734.641 122.388 745.43 129.187L781.781 151.685C793.173 158.836 805.213 165.416 816.419 172.51C825.256 178.103 837.629 188.468 845.823 195.329C863.711 210.518 879.94 227.557 894.237 246.163C901.002 254.807 905.876 262.03 913.259 270.697C929.685 289.987 940.927 314.542 950.653 337.7C953.175 343.705 965.865 364.605 965.699 368.717C952.375 368.835 916.709 366.397 907.412 369.328C895.072 370.031 873.846 369.612 861.412 369.379C840.651 369.879 818.272 369.503 797.429 369.418C774.38 370.209 747.334 369.511 723.978 369.487L684.47 369.579C684.781 350.447 683.707 339.379 681.669 320.324C678.936 310.757 677.352 301.195 674.288 291.368C663.477 257.058 644.814 225.742 619.78 199.907C619.085 199.141 617.287 197.37 617.216 196.293C615.629 172.442 610.091 150.598 603.125 127.805C595.962 111.043 589.951 95.3633 579.262 80.254Z"/><defs><linearGradient id="gradient_5" gradientUnits="userSpaceOnUse" x1="636.92102" y1="335.32901" x2="616.27899" y2="358.17899"><stop offset="0" stop-color="#438FCA"/><stop offset="1" stop-color="#7BC4EF"/></linearGradient></defs><path fill="url(#gradient_5)" transform="scale(0.566406 0.566406)" d="M603.125 127.805C606.326 129.703 609.854 143.578 612.959 149.33C668.402 172.054 710.095 211.46 754.131 250.881C784.835 278.367 815.685 304.004 842.973 334.964C854.024 347.499 861.361 353.075 871.218 367.472L870.994 368.235C867.987 368.277 863.819 367.908 861.412 369.379C840.651 369.879 818.272 369.503 797.429 369.418C774.38 370.209 747.334 369.511 723.978 369.487L684.47 369.579C684.781 350.447 683.707 339.379 681.669 320.324C678.936 310.757 677.352 301.195 674.288 291.368C663.477 257.058 644.814 225.742 619.78 199.907C619.085 199.141 617.287 197.37 617.216 196.293C615.629 172.442 610.091 150.598 603.125 127.805Z"/><defs><linearGradient id="gradient_6" gradientUnits="userSpaceOnUse" x1="617.58099" y1="353.42599" x2="592.25403" y2="378.67001"><stop offset="0" stop-color="#77C1ED"/><stop offset="1" stop-color="#C3F8FF"/></linearGradient></defs><path fill="url(#gradient_6)" transform="scale(0.566406 0.566406)" d="M619.78 199.907L618.599 195.804L618.987 195.286C623.266 198.221 626.44 202.931 630.6 205.594C644.169 214.278 654.353 221.741 665.794 233.318C680.53 248.309 698.389 261.896 712.442 277.387C724.837 291.05 738.648 304.085 751.11 317.347C764.553 331.655 792.596 352.487 802.49 367.4C800.431 367.709 799.251 367.787 797.168 367.882C797.228 369.217 797.007 368.747 797.429 369.418C774.38 370.209 747.334 369.511 723.978 369.487L684.47 369.579C684.781 350.447 683.707 339.379 681.669 320.324C678.936 310.757 677.352 301.195 674.288 291.368C663.477 257.058 644.814 225.742 619.78 199.907Z"/><path fill="#C7F1FD" transform="scale(0.566406 0.566406)" d="M681.669 320.324L683.05 320.292C683.582 321.654 684.113 322.875 684.37 324.318C685.259 329.309 709.655 356.092 714.552 365.949C715.093 367.034 715.739 367.548 716.756 368.168L717.611 368.231C720.574 368.47 721.086 368.445 723.978 369.487L684.47 369.579C684.781 350.447 683.707 339.379 681.669 320.324Z"/><defs><linearGradient id="gradient_7" gradientUnits="userSpaceOnUse" x1="508.87701" y1="661.03101" x2="510.69699" y2="608.84497"><stop offset="0" stop-color="#175593"/><stop offset="1" stop-color="#246CAD"/></linearGradient></defs><path fill="url(#gradient_7)" transform="scale(0.566406 0.566406)" d="M637.905 735.49C674.915 735.135 711.926 735.073 748.936 735.304C756.178 735.325 792.172 735.068 796.779 735.873L793.38 736.314C790.736 736.632 788.25 736.572 786.371 738.533C781.151 743.991 775.844 745.574 770.049 749.328C741.312 768.044 711.059 784.329 679.609 798.009C654.012 808.856 635.269 809.906 609.572 814.357C549.449 824.77 491.49 820.468 431.934 809.361C428.847 808.787 424.759 806.192 419.844 805.503C415.484 802.661 387.439 796.063 381.327 794.11C362.985 788.252 344.616 781.526 326.123 776.183C319.607 774.299 307.569 765.214 301.092 762.894C287.941 758.184 273.548 743.087 261.564 737.324C258.216 735.716 231.692 737.863 225.646 736.429C277.786 735.875 326.517 739.515 377.998 738.555C386.416 748.495 396.651 756.999 410.024 757.984C442.644 760.387 452.838 754.441 476.316 736.92C489.096 735.352 518.634 735.988 532.446 735.942L637.905 735.49Z"/><path fill="#EA591C" transform="scale(0.566406 0.566406)" d="M697.637 441.096C707.187 437.952 782.523 417.394 789.186 418.316C796.922 432.087 806.906 424.386 822.446 430.06C822.243 447.563 822.181 465.067 822.263 482.572C796.929 482.418 778.294 478.425 777.171 509.909C777.358 540.41 777.391 570.913 777.271 601.414C770.732 604.589 756.64 611.589 749.979 613.845C737.878 619.617 725.691 625.674 713.572 631.317C698.038 637.929 682.828 630.683 670.166 621.555C672.384 611.564 673.949 593.401 675.145 582.421C677.235 563.223 680.508 541.286 681.104 522.233C695.385 514.872 711.349 512.54 718.513 494.83C723.477 482.558 720.726 472.858 716.226 461.389C711.46 451.075 706.457 447.337 697.637 441.096Z"/><path fill="#F08422" transform="scale(0.566406 0.566406)" d="M716.226 461.389C723.657 458.847 734.229 456.206 742.013 454.016C744.196 462.35 732.988 510.209 730.712 521.581C725.803 547.121 721.187 572.718 716.864 598.364C715.474 606.764 711.728 623.882 713.572 631.317C698.038 637.929 682.828 630.683 670.166 621.555C672.384 611.564 673.949 593.401 675.145 582.421C677.235 563.223 680.508 541.286 681.104 522.233C695.385 514.872 711.349 512.54 718.513 494.83C723.477 482.558 720.726 472.858 716.226 461.389Z"/><path fill="#F9F9F9" transform="scale(0.566406 0.566406)" d="M697.637 441.096C707.187 437.952 782.523 417.394 789.186 418.316C796.922 432.087 806.906 424.386 822.446 430.06C816.852 433.148 751.268 451.958 742.013 454.016C734.229 456.206 723.657 458.847 716.226 461.389C711.46 451.075 706.457 447.337 697.637 441.096Z"/><path fill="#B2450E" transform="scale(0.566406 0.566406)" d="M777.171 509.909C777.358 540.41 777.391 570.913 777.271 601.414C770.732 604.589 756.64 611.589 749.979 613.845C749.294 611.758 749.482 609.751 750.257 607.714C760.582 580.601 766.521 553.115 774.086 525.34C775.223 529.236 775.479 534.069 775.883 538.18C776.077 529.925 776.009 517.782 777.171 509.909Z"/><defs><linearGradient id="gradient_8" gradientUnits="userSpaceOnUse" x1="421.052" y1="278.202" x2="415.43301" y2="242.289"><stop offset="0" stop-color="#3482C2"/><stop offset="1" stop-color="#16528E"/></linearGradient></defs><path fill="url(#gradient_8)" transform="scale(0.566406 0.566406)" d="M223.294 134.307C205.264 133.329 187.445 129.579 171.884 138.16C176.273 129.463 189.461 134.388 198.391 129.927C219.093 119.586 240.923 112.247 262.269 103.388C338.651 75.6919 420.719 72.2544 501.192 73.2449C509.131 73.342 516.513 75.789 524.141 76.7689C522.429 76.5482 535.788 72.3145 539.823 71.8519L540.769 72.6782C508.217 89.1734 489.283 104.869 463.896 130.51C403.229 124.388 357.846 132.506 302.008 156.41C287.14 149.584 276.444 146.133 260.858 141.246C247.464 138.456 236.898 136.293 223.294 134.307Z"/><path fill="#1272CB" transform="scale(0.566406 0.566406)" d="M223.294 134.307C230.931 132.501 256.399 134.854 260.858 141.246C247.464 138.456 236.898 136.293 223.294 134.307Z"/><path fill="#C52629" transform="scale(0.566406 0.566406)" d="M904.719 540.041C906.66 541.314 940.718 540.68 946.304 541.154L951.268 541.676C968.969 543.74 983.063 546.519 1000.12 552.236C1001.14 566.499 1000.63 586.284 1000.63 600.858L1000.47 682.845C984.288 682.791 967.357 682.98 951.241 682.378C936.502 681.88 919.876 682.259 904.994 682.268C904.779 671.327 904.693 660.384 904.737 649.442L904.67 631.082C904.844 600.735 904.86 570.387 904.719 540.041Z"/><path fill="#EA591C" transform="scale(0.566406 0.566406)" d="M904.719 540.041C906.66 541.314 940.718 540.68 946.304 541.154L951.268 541.676C951.003 566.016 950.888 590.357 950.922 614.696C950.941 621.649 951.787 644.454 950.777 649.828C950.556 661.126 950.818 671.073 951.241 682.378C936.502 681.88 919.876 682.259 904.994 682.268C904.779 671.327 904.693 660.384 904.737 649.442L904.67 631.082C904.844 600.735 904.86 570.387 904.719 540.041Z"/><path fill="#EA591C" transform="scale(0.566406 0.566406)" d="M904.737 649.442C907.103 650.951 944.372 649.629 950.777 649.828C950.556 661.126 950.818 671.073 951.241 682.378C936.502 681.88 919.876 682.259 904.994 682.268C904.779 671.327 904.693 660.384 904.737 649.442Z"/><path fill="#FDAC5B" transform="scale(0.566406 0.566406)" d="M904.67 631.082C919.826 630.667 935.41 630.921 950.607 631.003C950.625 636.605 950.419 644.412 950.777 649.828C944.372 649.629 907.103 650.951 904.737 649.442L904.67 631.082Z"/><defs><linearGradient id="gradient_9" gradientUnits="userSpaceOnUse" x1="733.18701" y1="448.39001" x2="771.78198" y2="437.88"><stop offset="0" stop-color="#438EC9"/><stop offset="1" stop-color="#16558F"/></linearGradient></defs><path fill="url(#gradient_9)" transform="scale(0.566406 0.566406)" d="M907.412 369.328C916.709 366.397 952.375 368.835 965.699 368.717C964.842 374.305 966.126 375.874 969.056 380.641C986.605 409.193 991.898 449.339 991.393 482.794C996.916 485.34 1010.8 497.046 1011.26 503.029L1010.53 503.349C993.204 477.369 966.554 473.188 936.925 470.617C930.448 463.068 927.534 459.843 919.628 453.679C897.115 439.359 877.295 443.446 851.601 443.669C850.572 422.438 850.746 421.884 830.027 416.928L832.65 416.199C831.131 409.292 827.696 404.621 826.148 397.795C825.547 395.154 827.136 393.856 828.708 391.656C840.11 391.651 859.758 391 870.478 391.755C900.431 390.952 933.892 391.746 964.12 391.792C964.334 383.975 964.277 377.312 964.016 369.492L907.412 369.328Z"/><defs><linearGradient id="gradient_10" gradientUnits="userSpaceOnUse" x1="729.45599" y1="427.034" x2="692.37701" y2="446.50299"><stop offset="0" stop-color="#3E8AC6"/><stop offset="1" stop-color="#8BD0F9"/></linearGradient></defs><path fill="url(#gradient_10)" transform="scale(0.566406 0.566406)" d="M828.708 391.656C840.11 391.651 859.758 391 870.478 391.755C880.44 393.747 896.707 391.669 904.527 394.236C905.567 398.639 911.498 411.104 914.207 414.824C923.792 427.982 922.244 444.013 927.197 456.822L925.622 457.055C923.273 454.821 922.675 454.638 919.628 453.679C897.115 439.359 877.295 443.446 851.601 443.669C850.572 422.438 850.746 421.884 830.027 416.928L832.65 416.199C831.131 409.292 827.696 404.621 826.148 397.795C825.547 395.154 827.136 393.856 828.708 391.656Z"/><path fill="#10AD82" transform="scale(0.566406 0.566406)" d="M846.236 461.188C858.677 460.978 871.121 461.045 883.558 461.386C900.391 461.184 904.007 463.532 903.596 481.055C899.683 482.71 885.056 488.276 883.297 490.564C883.29 541.282 883.97 593.581 883.216 644.158L883.244 660.091L883.392 683.304C871.003 683.101 858.613 683.087 846.226 683.262L846.18 659.872L846.183 644.226L846.236 461.188Z"/><path fill="#10AD82" transform="scale(0.566406 0.566406)" d="M846.18 659.872L849.034 659.961C855.163 659.925 876.113 659.482 881.104 660.69L883.244 660.091L883.392 683.304C871.003 683.101 858.613 683.087 846.226 683.262L846.18 659.872Z"/><path fill="#05836A" transform="scale(0.566406 0.566406)" d="M880.938 645.003L883.216 644.158L883.244 660.091L881.104 660.69C876.113 659.482 855.163 659.925 849.034 659.961L846.18 659.872L846.183 644.226L848.504 645.033L880.938 645.003Z"/><path fill="#099676" transform="scale(0.566406 0.566406)" d="M880.938 645.003L883.216 644.158L883.244 660.091L881.104 660.69C879.931 654.646 880.489 651.103 880.938 645.003Z"/><path fill="#099676" transform="scale(0.566406 0.566406)" d="M846.183 644.226L848.504 645.033C848.852 650.339 849.034 654.636 849.034 659.961L846.18 659.872L846.183 644.226Z"/><path fill="#05625C" transform="scale(0.566406 0.566406)" d="M883.558 461.386C900.391 461.184 904.007 463.532 903.596 481.055C899.683 482.71 885.056 488.276 883.297 490.564L883.558 461.386Z"/><path fill="#C52629" transform="scale(0.566406 0.566406)" d="M171.062 665.227C189.09 665.109 207.12 665.164 225.146 665.393C228.283 680.347 229.105 686.209 241.34 696.401C245.046 697.12 249.567 697.609 252.334 700.089C250.432 704.584 247.842 702.704 244.047 704.183C238.078 706.239 196.977 705.271 188.368 705.11C155.65 704.499 123.177 707.796 90.566 705.577C81.7543 704.978 73.5782 705.05 64.7717 705.283L64.5951 704.058C62.5626 703.675 62.0717 703.603 60.1557 702.87L59.6595 700.483L59.6065 697.22C81.1115 695.697 108.628 697.012 130.966 696.246L130.846 695.375C120.503 696.288 100.75 695.527 90.144 695.368C86.6016 689.632 83.9634 683.578 83.6438 676.733C83.4884 673.416 84.0658 669.915 86.6211 667.572C91.147 663.423 160.059 665.208 171.062 665.227Z"/><path fill="#EB3E48" transform="scale(0.566406 0.566406)" d="M90.144 695.368C86.6016 689.632 83.9634 683.578 83.6438 676.733C83.4884 673.416 84.0658 669.915 86.6211 667.572C91.147 663.423 160.059 665.208 171.062 665.227C168.913 675.37 168.871 685.435 167.093 694.987C160.405 694.985 136.336 694.581 130.846 695.375C120.503 696.288 100.75 695.527 90.144 695.368Z"/><path fill="#2583DC" transform="scale(0.566406 0.566406)" d="M130.966 696.246C151.961 696.02 172.959 695.974 193.955 696.113C209.108 696.131 226.322 695.767 241.34 696.401C245.046 697.12 249.567 697.609 252.334 700.089C250.432 704.584 247.842 702.704 244.047 704.183C238.078 706.239 196.977 705.271 188.368 705.11C155.65 704.499 123.177 707.796 90.566 705.577C81.7543 704.978 73.5782 705.05 64.7717 705.283L64.5951 704.058C62.5626 703.675 62.0717 703.603 60.1557 702.87L59.6595 700.483L59.6065 697.22C81.1115 695.697 108.628 697.012 130.966 696.246Z"/><path fill="#020B1E" transform="scale(0.566406 0.566406)" d="M64.5951 704.058C123.406 704.032 185.546 703.006 244.047 704.183C238.078 706.239 196.977 705.271 188.368 705.11C155.65 704.499 123.177 707.796 90.566 705.577C81.7543 704.978 73.5782 705.05 64.7717 705.283L64.5951 704.058Z"/><defs><linearGradient id="gradient_11" gradientUnits="userSpaceOnUse" x1="255.004" y1="591.91803" x2="254.99001" y2="593.08197"><stop offset="0" stop-color="#0888FE"/><stop offset="1" stop-color="#0C61B7"/></linearGradient></defs><path fill="url(#gradient_11)" transform="scale(0.566406 0.566406)" d="M59.6065 697.22C68.1516 699.123 77.2583 696.874 85.724 698.135C86.5168 699.678 86.3915 698.97 86.4392 700.167L90.7638 700.352L90.6385 701.207C84.2371 701.59 65.3227 701.818 59.6595 700.483L59.6065 697.22Z"/><path fill="#F9F9F9" transform="scale(0.566406 0.566406)" d="M660.057 635.898C691.663 656.195 710.411 652.779 742.752 635.95L742.812 682.137L688.818 682.04L605.183 682.07C605.335 667.808 604.318 662.394 596.605 650.245C620.746 656.14 643.563 657.932 660.057 635.898Z"/><path fill="#FEC127" transform="scale(0.566406 0.566406)" d="M797.786 499.362C805.752 498.908 821.058 499.083 829.13 499.885L829.233 511.018L829.218 527.46L829.181 631.202L829.208 650.347L797.581 650.34L797.524 631.229C796.76 597.553 797.47 560.899 797.582 526.962L797.604 510.877C797.65 507.22 797.59 502.958 797.786 499.362Z"/><path fill="#FEFAB4" transform="scale(0.566406 0.566406)" d="M797.786 499.362C805.752 498.908 821.058 499.083 829.13 499.885L829.233 511.018L829.218 527.46C818.674 527.204 808.13 527.038 797.582 526.962L797.604 510.877C797.65 507.22 797.59 502.958 797.786 499.362Z"/><path fill="#62DD76" transform="scale(0.566406 0.566406)" d="M797.786 499.362C805.752 498.908 821.058 499.083 829.13 499.885L829.233 511.018C819.928 510.573 807.293 510.979 797.604 510.877C797.65 507.22 797.59 502.958 797.786 499.362Z"/><path fill="#FEFAB4" transform="scale(0.566406 0.566406)" d="M797.524 631.229C806.634 631.151 820.468 630.651 829.181 631.202L829.208 650.347L797.581 650.34L797.524 631.229Z"/><path fill="#EA591C" transform="scale(0.566406 0.566406)" d="M904.924 493.389C925.329 490.868 931.995 491.02 952.073 493.673C969.993 497.284 985.943 502.716 1000.2 514.837C1000.39 521.629 1000.74 528.67 1000.21 535.419C1000.11 541.078 999.987 546.572 1000.12 552.236C983.063 546.519 968.969 543.74 951.268 541.676L946.304 541.154C940.718 540.68 906.66 541.314 904.719 540.041L904.654 522.282C904.435 512.904 904.777 502.817 904.924 493.389Z"/><path fill="#C52629" transform="scale(0.566406 0.566406)" d="M952.073 493.673C969.993 497.284 985.943 502.716 1000.2 514.837C1000.39 521.629 1000.74 528.67 1000.21 535.419C1000.11 541.078 999.987 546.572 1000.12 552.236C983.063 546.519 968.969 543.74 951.268 541.676L946.304 541.154C949.56 540.779 948.338 541.512 950.512 539.688C951.648 534.874 951.031 527.953 951.072 522.533C950.939 514.982 950.5 500.704 952.073 493.673Z"/><path fill="#F08422" transform="scale(0.566406 0.566406)" d="M951.072 522.533C974.094 526.404 979.732 529.605 1000.21 535.419C1000.11 541.078 999.987 546.572 1000.12 552.236C983.063 546.519 968.969 543.74 951.268 541.676L946.304 541.154C949.56 540.779 948.338 541.512 950.512 539.688C951.648 534.874 951.031 527.953 951.072 522.533Z"/><path fill="#FDAC5B" transform="scale(0.566406 0.566406)" d="M904.654 522.282C909.473 520.312 944.522 521.496 951.072 522.533C951.031 527.953 951.648 534.874 950.512 539.688C948.338 541.512 949.56 540.779 946.304 541.154C940.718 540.68 906.66 541.314 904.719 540.041L904.654 522.282Z"/><path fill="#F9F9F9" transform="scale(0.566406 0.566406)" d="M103.605 579.843C103.487 575.247 103.047 574.487 105.86 571.303C114.879 567.926 198.541 569.924 213.154 570.226L213.068 578.595L213.064 608.912L103.734 608.75C103.519 599.308 103.641 589.329 103.605 579.843Z"/><path fill="#FEFAB4" transform="scale(0.566406 0.566406)" d="M103.605 579.843C103.487 575.247 103.047 574.487 105.86 571.303C114.879 567.926 198.541 569.924 213.154 570.226L213.068 578.595L210.436 578.927C193.42 581.309 167.416 579.543 149.775 579.969C137.21 580.271 115.571 581.116 103.605 579.843Z"/><path fill="#10AD82" transform="scale(0.566406 0.566406)" d="M82.6019 625.434C115.924 626.132 150.507 625.664 183.922 625.646L204.399 625.676C213.714 625.706 223.213 625.602 232.496 626.132C227.394 636.252 226.065 641.956 225.016 653.435C217.853 653.155 211.826 653.005 204.676 653.199L183.214 653.224C154.251 653.215 109.378 654.618 81.394 652.643C70.0164 645.309 68.8085 630.623 82.6019 625.434Z"/><path fill="#05625C" transform="scale(0.566406 0.566406)" d="M204.399 625.676C213.714 625.706 223.213 625.602 232.496 626.132C227.394 636.252 226.065 641.956 225.016 653.435C217.853 653.155 211.826 653.005 204.676 653.199C204.869 643.753 205.179 635.129 204.399 625.676Z"/><path fill="#099676" transform="scale(0.566406 0.566406)" d="M183.922 625.646L204.399 625.676C205.179 635.129 204.869 643.753 204.676 653.199L183.214 653.224C183.201 644.278 183.662 634.641 183.922 625.646Z"/><path fill="#099676" transform="scale(0.566406 0.566406)" d="M81.394 652.643C70.0164 645.309 68.8085 630.623 82.6019 625.434C81.1273 633.741 83.3824 645.231 81.394 652.643Z"/><path fill="#C7F1FD" transform="scale(0.566406 0.566406)" d="M683.034 390.952L790.053 391.764C802.937 391.529 815.822 391.492 828.708 391.656C827.136 393.856 825.547 395.154 826.148 397.795C827.696 404.621 831.131 409.292 832.65 416.199L830.027 416.928C820.31 415.025 810.775 414.387 801.15 412.596L800.535 411.455C798.557 406.81 799.747 407.931 796.078 405.157C794.259 406.494 794.916 406.736 792.804 406.602C775.919 405.532 759.611 411.211 742.886 413.095L743.405 412.929C729.407 414.885 715.41 419.047 701.696 422.452C696.496 423.745 683.153 430.554 678.576 428.007C677.648 427.738 678.258 427.971 676.921 426.958C677.126 421.305 682.159 401.937 683.034 390.952Z"/><path fill="#99DEFA" transform="scale(0.566406 0.566406)" d="M790.053 391.764C802.937 391.529 815.822 391.492 828.708 391.656C827.136 393.856 825.547 395.154 826.148 397.795C827.696 404.621 831.131 409.292 832.65 416.199L830.027 416.928C820.31 415.025 810.775 414.387 801.15 412.596L800.535 411.455C801.123 408.929 801.452 408.777 800.627 406.418C796.828 402.038 791.872 402.297 785.97 401.506C803.292 396.896 799.813 408.658 803.463 411.644C807.288 411.557 815.427 413.055 816.388 412.731C815.155 410.06 809.546 399.315 810.873 396.589C811.295 395.721 813.394 395.343 813.762 393.085C807.851 391.395 797.544 393.364 790.053 391.764Z"/><path fill="#002654" transform="scale(0.566406 0.566406)" d="M785.97 401.506C791.872 402.297 796.828 402.038 800.627 406.418C801.452 408.777 801.123 408.929 800.535 411.455C798.557 406.81 799.747 407.931 796.078 405.157C794.259 406.494 794.916 406.736 792.804 406.602C775.919 405.532 759.611 411.211 742.886 413.095L743.405 412.929C729.407 414.885 715.41 419.047 701.696 422.452C696.496 423.745 683.153 430.554 678.576 428.007C687.034 422.661 773.554 402.668 785.97 401.506Z"/><path fill="#FEC127" transform="scale(0.566406 0.566406)" d="M213.154 570.226L261.317 570.848C274.187 570.933 283.324 571.383 295.531 575.818C289.905 598.529 285.13 608.376 259.994 608.704C244.58 609.05 228.528 608.87 213.064 608.912L213.068 578.595L213.154 570.226Z"/><path fill="#F08422" transform="scale(0.566406 0.566406)" d="M261.317 570.848C274.187 570.933 283.324 571.383 295.531 575.818C289.905 598.529 285.13 608.376 259.994 608.704C262 602.735 261.172 578.595 261.317 570.848Z"/><path fill="#1272CB" transform="scale(0.566406 0.566406)" d="M599.84 696.413C616.13 695.811 635.144 696.316 651.697 696.316L753.065 696.339L992.77 696.292C996.33 696.327 996.208 696.292 998.571 698.025C999.132 700.439 999.341 700.391 998.504 702.66L996.478 702.949L594.662 703.177L599.84 696.413Z"/><path fill="#1272CB" transform="scale(0.566406 0.566406)" d="M546.06 653.919C551.73 652.261 556.652 652.007 562.477 652.496C575.764 654.11 584.143 658.04 588.77 671.49C592.375 684.885 584.208 696.269 571.587 700.912C534.44 714.581 500.131 667.784 546.06 653.919Z"/><path fill="#53BCF4" transform="scale(0.566406 0.566406)" d="M562.477 652.496C575.764 654.11 584.143 658.04 588.77 671.49C586.304 670.245 583.986 668.633 581.378 668.841C581.702 670.335 582.137 671.419 582.718 672.819C581.242 672.496 573.984 667.805 571.102 666.534L569.989 666.053C567.349 662.42 561.833 657.305 560.621 653.605L562.477 652.496Z"/><path fill="#2599E7" transform="scale(0.566406 0.566406)" d="M546.06 653.919C551.73 652.261 556.652 652.007 562.477 652.496L560.621 653.605C561.833 657.305 567.349 662.42 569.989 666.053C562.083 663.691 553.293 658.165 546.06 653.919Z"/><path fill="#1272CB" transform="scale(0.566406 0.566406)" d="M660.235 573.155C662.824 580.279 658.796 596.215 657.984 603.844C656.899 614.022 652.335 625.839 643.736 631.958C629.726 641.933 609.946 637.885 594.023 635.743L591.069 634.65C595.279 628.001 631.66 608.995 639.911 601.849C652.211 591.197 653.279 587.894 660.235 573.155Z"/><path fill="#FEC127" transform="scale(0.566406 0.566406)" d="M829.208 650.347L829.058 682.506L797.53 682.36C797.537 671.811 797.388 660.851 797.581 650.34L829.208 650.347Z"/><defs><linearGradient id="gradient_12" gradientUnits="userSpaceOnUse" x1="320.371" y1="281.62799" x2="345.47198" y2="315.84799"><stop offset="0" stop-color="#126EC8"/><stop offset="1" stop-color="#1595EF"/></linearGradient></defs><path fill="url(#gradient_12)" transform="scale(0.566406 0.566406)" d="M184.206 247.714C182.818 231.105 174.854 163.731 184.315 153.041C188.564 148.242 204.477 149.653 210.288 149.962C236.964 151.383 262.73 159.695 286.439 171.711C277.429 170.13 268.806 166.862 259.966 164.575C235.775 158.315 210.382 154.01 185.384 156.961C182.311 179.353 182.595 195.41 184.25 217.912C184.692 223.923 186.804 244.444 186.231 249.407L184.206 247.714Z"/><defs><linearGradient id="gradient_13" gradientUnits="userSpaceOnUse" x1="525.81" y1="246.196" x2="519.47498" y2="275.26401"><stop offset="0" stop-color="#1174D4"/><stop offset="1" stop-color="#138CE3"/></linearGradient></defs><path fill="url(#gradient_13)" transform="scale(0.566406 0.566406)" d="M497.417 126.908C511.228 113.779 536.987 93.5395 555.066 88.7885C574.847 83.5891 584.77 142.474 585.796 155.594C582.916 146.39 579.52 133.949 575.984 125.324C575.456 125.199 574.928 125.073 574.4 124.948C570.456 117.582 565.25 98.7178 558.057 95.9795C550.457 96.5797 540.525 103.75 532.323 107.487L531.334 106.79C522.307 111.006 506.152 122.573 498.301 129.168L497.417 126.908Z"/><path fill="#020B1E" transform="scale(0.566406 0.566406)" d="M531.334 106.79C541.53 99.8866 558.458 86.3927 566.586 101.712C570.145 108.419 574.134 117.978 575.984 125.324C575.456 125.199 574.928 125.073 574.4 124.948C570.456 117.582 565.25 98.7178 558.057 95.9795C550.457 96.5797 540.525 103.75 532.323 107.487L531.334 106.79Z"/><path fill="#014991" transform="scale(0.566406 0.566406)" d="M589.96 170.643C594.733 172.144 610.559 189.224 614.124 194.123C609.455 193.018 591.738 175.154 589.96 170.643Z"/><path fill="#014991" transform="scale(0.566406 0.566406)" d="M184.206 247.714L186.231 249.407C185.027 252.608 176.242 269.186 173.561 270.863L172.641 270.591C176.602 265.363 181.296 254.048 184.206 247.714Z"/><path fill="#2583DC" transform="scale(0.566406 0.566406)" d="M497.417 126.908L498.301 129.168C493.189 133.536 491.391 134.895 485.62 138.308C489.405 134.302 493.388 130.665 497.417 126.908Z"/><path fill="#F9F9F9" fill-opacity="0.38431373" transform="scale(0.566406 0.566406)" d="M876.562 985.729C879.884 985.087 884.941 983.565 887.722 984.922C889.004 987.362 888.48 987.032 887.986 990.362C799.433 1007.59 696.536 1004 605.833 1003.61L424.42 1002.93C396.503 1002.56 368.582 1002.36 340.662 1002.33C308.374 1002.54 275.843 1004.13 243.598 1001.36C229.497 1000.15 193.95 996.462 181.686 991.783C197.04 991.605 213.862 994.495 229.109 994.401C242.528 994.317 254.734 992.304 268.589 992.232L489.18 993.047C536.038 993.3 582.849 995.973 629.736 996.158C643.277 996.213 658.547 994.484 671.729 995.12C704.312 996.693 737.616 992.461 769.754 992.399C791.654 993.019 808.12 991.783 829.165 991.144C833.753 991.663 840.151 991.474 845.17 990.9C852.498 990.065 861.638 985.221 869.212 987.486C871.289 988.106 874.657 986.386 876.562 985.729Z"/><path fill="#C7CBCE" fill-opacity="0.88627452" transform="scale(0.566406 0.566406)" d="M152.344 964.938C207.171 989.592 248.973 988.983 307.576 989.061L391.336 989.061L678.851 989.101L767.506 988.999C778.64 988.943 795.363 987.998 805.492 988.427C798.158 990.992 779.471 990.777 769.754 992.399C737.616 992.461 704.312 996.693 671.729 995.12C658.547 994.484 643.277 996.213 629.736 996.158C582.849 995.973 536.038 993.3 489.18 993.047L268.589 992.232C254.734 992.304 242.528 994.317 229.109 994.401C213.862 994.495 197.04 991.605 181.686 991.783L177.291 991.185C175.055 990.095 173.118 989.269 170.84 988.321C174.312 988.402 184.859 989.416 187.068 989.029C182.097 986.93 180.964 981.877 178.474 980.484C173.058 977.456 155.228 970.865 152.344 964.938Z"/><defs><linearGradient id="gradient_14" gradientUnits="userSpaceOnUse" x1="742.83099" y1="747.68799" x2="710.45801" y2="744.44202"><stop offset="0" stop-color="#DADBDB" stop-opacity="0.1882353"/><stop offset="1" stop-color="#C6C8CB" stop-opacity="0.47450981"/></linearGradient></defs><path fill="url(#gradient_14)" transform="scale(0.566406 0.566406)" d="M922.277 953.696C928.615 953.046 941.561 952.271 948.354 951.927C944.563 953.293 934.033 956.19 932.186 958.33C933.881 964.734 936.563 964.598 936.311 972.332C938.774 971.082 943.124 969.64 945.773 970.597L945.476 973.279C950.046 971.345 944.098 971.822 949.822 968.807L950.606 969.885C948.404 975.461 941.529 977.211 936.245 979.779C919.461 987.934 905.618 987.842 887.986 990.362C888.48 987.032 889.004 987.362 887.722 984.922C884.941 983.565 879.884 985.087 876.562 985.729L877.113 984.657C879.954 983.053 883.525 980.828 884.256 977.444C881.983 977.048 883.246 976.884 881.21 978.185C867.607 986.882 841.778 986.492 829.165 991.144C808.12 991.783 791.654 993.019 769.754 992.399C779.471 990.777 798.158 990.992 805.492 988.427C809.23 987.454 821.427 986.661 825.964 986.34C864.201 983.644 889.388 971.367 922.277 953.696Z"/><defs><linearGradient id="gradient_15" gradientUnits="userSpaceOnUse" x1="267.98099" y1="739.06403" x2="284.026" y2="744.43597"><stop offset="0" stop-color="#EBEBEA" stop-opacity="0.27058825"/><stop offset="1" stop-color="#DBDCDD" stop-opacity="0.58431375"/></linearGradient></defs><path fill="url(#gradient_15)" transform="scale(0.566406 0.566406)" d="M117.883 942.931C125.578 947.943 133.414 953.6 141.002 958.854C136.993 958.809 134.957 957.062 131.808 957.638C127.809 960.68 120.946 968.321 125.19 973.247L131.358 974.55C133.993 975.09 134.318 975.06 136.529 976.801C137.837 980.244 137.095 983.807 135.13 986.984C125.716 988.127 80.0096 978.383 80.8484 966.563C89.5577 965.496 86.9301 972.089 93.8736 974.885L94.8907 974.274L95.1627 972.483C99.1483 969.532 96.4518 966.647 94.7971 962.317C95.7755 960.332 96.3776 958.851 97.1987 956.815L96.5259 955.283L96.8632 955.744L94.9137 955.899L93.8488 958.923L92.6904 958.609L90.0257 953.508L91.8675 949.118C89.7908 946.669 87.3927 951.15 81.2739 950.283L80.9755 949.324C88.7755 941.604 106.747 943.519 117.132 944.089L117.883 942.931Z"/><path fill="#F9F9F9" fill-opacity="0.73333335" transform="scale(0.566406 0.566406)" d="M135.13 986.984C137.095 983.807 137.837 980.244 136.529 976.801C134.318 975.06 133.993 975.09 131.358 974.55L125.19 973.247C120.946 968.321 127.809 960.68 131.808 957.638C134.957 957.062 136.993 958.809 141.002 958.854C145.204 960.901 148.334 962.622 152.344 964.938C155.228 970.865 173.058 977.456 178.474 980.484C180.964 981.877 182.097 986.93 187.068 989.029C184.859 989.416 174.312 988.402 170.84 988.321C173.118 989.269 175.055 990.095 177.291 991.185C164.333 990.711 148.018 988.66 135.13 986.984Z"/><path fill="#C7CBCE" fill-opacity="0.43921569" transform="scale(0.566406 0.566406)" d="M829.165 991.144C841.778 986.492 867.607 986.882 881.21 978.185C883.246 976.884 881.983 977.048 884.256 977.444C883.525 980.828 879.954 983.053 877.113 984.657L876.562 985.729C874.657 986.386 871.289 988.106 869.212 987.486C861.638 985.221 852.498 990.065 845.17 990.9C840.151 991.474 833.753 991.663 829.165 991.144Z"/></g></svg>