<?xml version="1.0" encoding="utf-8" ?><svg xmlns="http://www.w3.org/2000/svg" xmlns:xlink="http://www.w3.org/1999/xlink" width="831" height="510" viewBox="0 0 831 510"><clipPath id="cl_5"><rect width="830.74219" height="510"/></clipPath><g clip-path="url(#cl_5)"><path fill="#242223" transform="scale(0.498047 0.498047)" d="M831.142 15.928C833.548 15.663 835.973 15.5746 838.395 15.663C859.579 16.2332 869.143 37.8376 876.778 54.6091C895.448 95.8903 903.62 141.145 900.567 186.347C902.307 187.843 903.835 189.176 905.416 190.875C950.051 238.842 984.248 296.612 994.401 362.062C999.319 393.759 998.622 415.211 998.006 446.531L1340.13 446.582L1443.05 446.576C1462.97 446.596 1484.56 447.172 1504.31 446.325C1504.2 456.571 1504.31 467.066 1504.33 477.332C1485.85 476.031 1459.33 476.806 1440.31 476.802L1322.87 476.822L1177.27 477.599C1115.37 477.526 1055.84 476.657 993.672 477.551C987.922 504.988 980.773 523.616 968.733 548.526C976.976 546.231 982.706 544.661 991.181 543.679C999.211 542.564 1008.79 543.123 1016.56 541.093C1070.03 527.128 1127.1 506.048 1181.25 496.48C1185.95 499.783 1193.42 505.291 1199.14 507.783C1218.04 516.003 1247.74 515.736 1263.81 527.194C1267.57 529.879 1266.87 542.323 1266.79 547.255C1281.26 539.787 1289.59 541.374 1305.25 541.255C1329.42 541.077 1350.23 539.84 1372.95 550.02C1387.55 556.557 1405 560.175 1418.54 569.397C1428.44 576.161 1429.56 583.687 1431.43 594.471C1436.32 594.503 1459.53 594.194 1463.86 595.26C1491.13 602.346 1525.35 612.136 1547.89 629.235C1559.35 637.937 1556.92 666.667 1556.89 679.905L1556.64 733.265L1557.2 893.932C1574.72 893.92 1592.84 894.147 1610.3 893.485C1610.39 913.782 1610.28 934.079 1609.96 954.374L1098.1 954.172L890.885 954.308L820.807 954.304C806.838 954.302 790.345 953.868 776.698 954.967C764.585 971.953 753.242 981.283 735.164 991.122C709.916 1004.86 666.261 1005.92 641.051 992.648C622.909 983.099 625.653 979.699 601.69 971.845C565.147 984.669 532.44 978.617 502.358 954.406L255.913 954.26C199.948 954.26 139.802 953.097 84.2229 954.581L84.3193 894.27C98.1854 893.324 121.069 894.155 135.616 894.262C135.411 885.941 135.522 879.472 135.936 871.147C120.83 855.609 116.858 829.706 131.164 811.173C138.008 802.305 148.177 801.371 158.729 800.859C158.569 797.494 158.438 794.129 158.342 790.762C156.608 731.787 162.328 730.346 219.024 730.49L280.825 730.591L497.949 730.822L505.455 715.219C488.201 710.297 471.306 704.19 454.895 696.937C352.953 650.998 277.614 563.016 262.924 450.573C254.609 386.925 268.439 335.012 294.43 277.863C293.028 275.14 291.761 272.349 290.63 269.502C271.651 222.228 272.042 145.747 288.433 96.5247C294.247 79.0686 315.452 80.9058 330.821 80.7371C384.482 80.442 437.446 92.9126 485.334 117.119C497.893 111.537 516.085 106.06 529.546 102.621C585.966 88.2083 639.581 81.9699 697.138 92.6797C722.917 60.7129 790.681 25.2484 831.142 15.928ZM1281.43 842.305C1301.87 842.329 1328.79 841.622 1348.58 842.66L1348.27 826.644L1348.49 699.294C1348.52 670.839 1348.05 641.087 1348.71 612.821C1350.98 610.763 1354.17 608.47 1355.05 605.88C1351.89 608.165 1351.39 608.57 1348.68 611.357C1348.66 599.123 1348.08 575.099 1349.79 564.086C1328.71 563.442 1303.12 563.127 1282.04 564.054C1280.88 574.585 1281.33 589.929 1281.33 600.914L1281.39 659.3L1281.43 842.305ZM812.285 273.054C759.813 280.435 736.508 301.792 686.401 313.108C602.01 332.032 502.006 289.408 439.966 371.356C415.255 403.995 407.422 443.855 413.307 483.933C424.489 560.101 484.609 611.877 554.587 634.728C569.552 638.895 584.498 643.125 599.889 645.356C676.839 656.509 760.655 643.667 828.588 605.161C877.384 577.999 920.778 535.846 935.729 480.55C948.553 433.129 945.835 377.351 921.093 333.95C897.061 291.793 860.907 270.104 812.285 273.054ZM499.128 903.608C504.487 923.11 511.054 935.101 529.224 945.532C545.714 954.919 565.217 957.497 583.578 952.718C588.017 951.519 592.936 949.815 597.244 948.228C610.17 952.224 614.064 952.441 627.954 949.883C635.474 971.349 663.953 975.615 683.744 978.001C661.537 969.554 647.111 956.557 657.143 930.262C661.764 918.145 669.748 906.843 673.907 894.426C686.697 858.448 686.193 819.66 681.228 782.511C679.223 812.318 668.448 851.43 653.616 877.625C644.492 895.515 630.656 917.735 610.668 925.056C605.293 927.024 603.172 924.953 598.724 922.07C592.02 922.446 594.386 927.028 585.012 930.565C570.994 935.858 555.87 937.37 541.843 930.441C533.275 926.186 526.778 918.663 523.822 909.565C521.88 903.407 523.014 895.244 526.437 889.601C533.127 878.572 545.011 875.175 554.836 866.58C587.667 837.859 598.77 792.384 593.219 750.33C593.086 749.312 592.333 747.679 591.917 746.768L591.787 748.573C588.887 785.756 564.508 828.884 535.758 852.39C509.433 873.914 460.281 902.168 432.063 867.728C421.413 854.615 422.853 831.482 438.169 822.419C449.428 815.147 462.137 814.141 474.152 808.643C499.006 797.829 517.138 773.087 528.152 749.117C532 740.744 535.262 729.398 539.325 721.8C538.09 719.714 534.932 719.529 532.37 718.985C515.77 744.133 506.228 766.194 481.679 785.836C456.562 805.935 421.469 794.962 409.362 831.256C401.248 855.577 410.999 882.825 432.577 896.525C454.799 910.634 474.79 908.503 499.128 903.608ZM1082.42 592.582C1094.73 625.048 1078.39 650.962 1047.87 661.993C1037.97 665.946 1028.81 666.043 1025.04 677.722C1018.9 696.72 1006.25 720.475 1005.45 740.501C1004.6 761.957 988.452 804.636 1003.74 820.891C1024.19 833.597 1046.71 834.802 1068.12 823.477L1069.64 822.684C1084.42 753.546 1093.98 682.041 1109.05 612.775C1111.15 603.129 1113.44 590.672 1114.49 580.904L1113.71 580.005C1105.74 583.131 1088.9 589.078 1082.42 592.582ZM1463.21 837.725C1461.57 787.987 1462.98 734.956 1463.06 684.898C1447.6 684.181 1432.18 683.84 1416.76 683.169C1402.56 682.551 1389.29 680.312 1374.78 680.093C1374.79 730.472 1373.42 788.509 1375.03 838.363L1432.55 838.247C1438.72 838.255 1458.18 838.618 1463.21 837.725ZM762.326 780.664C772.717 839.195 769.622 894.902 736.877 947.795C730.962 957.348 723.025 963.584 714.222 970.252L725.385 966.004C742.525 957.101 763.123 942.713 771.35 924.524C788.65 886.272 791.195 849.077 789.355 807.754C811.269 812.051 838.204 809.585 858.485 799.823C864.165 803.098 868.471 805.873 875.066 807.137C888.559 809.725 903.156 805.523 910.061 792.898C914.474 784.832 913.315 778.803 912.377 770.071C927.548 773.61 941.997 777.857 956.399 768.969C967.944 761.843 972.017 748.009 967.448 735.618L965.489 730.189C968.799 727.764 971.442 726.029 974.935 723.868C975.393 720.248 975.992 716.249 976.237 712.636C996.987 706.153 1001.93 696.766 998.472 676.058C1003.83 667.201 1007.76 661.161 1014.03 652.955L1013.34 652.327C980.681 670.01 976.642 690.554 955.341 716.923C926.51 752.615 872.166 777.801 827.037 783.61C806.314 786.276 782.878 784.513 762.326 780.664ZM978.809 829.772C957.95 845.455 948.619 847.921 922.784 848.216C926.534 858.55 927.402 864.186 926.998 875.276C925.434 883.038 924.542 887.042 921.949 894.458L1051.15 894.244C1076.29 894.262 1105.09 893.699 1130.04 894.651C1130.31 881.144 1130.92 835.568 1129.5 822.865C1107.15 835.34 1078.15 847.993 1053.17 852.473C1028 856.99 995.467 850.39 978.809 829.772ZM1198.24 842.006C1207.41 841.907 1249.48 842.389 1256.13 838.711L1257.61 836.653C1256.28 833.396 1256.51 832.76 1252.82 830.95C1249.6 830.946 1245.48 831.354 1242.82 830.125C1248.21 828.736 1250.56 828.933 1256.05 828.868C1256.44 797.855 1256.56 766.84 1256.41 735.825C1256.4 717.62 1256.88 696.55 1256.24 678.62C1235.92 677.835 1218.83 676.925 1198.24 677.343C1197.99 731.841 1197.6 787.557 1198.24 842.006ZM361.309 800.859C363.02 783.451 363.265 774.801 362.502 756.968C379.605 758.514 408.322 757.656 426.287 757.652C436.11 757.644 466.913 758.373 475.013 755.319L475.132 755.753L473.762 756.018L472.173 754.809C409.342 752.546 338.368 753.412 275.194 753.45L217.01 753.359C209.795 753.347 193.778 752.912 187.622 753.683C178.311 761.021 182.625 769.384 182.051 780.068C181.714 786.328 181.575 791.928 184.999 797.427C190.081 801.895 239.309 800.508 249.984 800.544L361.309 800.859ZM388.029 823.62L389.22 823.106C385.781 821.02 366.802 821.889 361.258 822.007C321.795 820.536 274.059 821.805 234.161 821.923L184.084 822.058C176.389 822.058 168.301 821.323 160.659 821.945C156.894 822.252 153.307 822.682 150.487 825.443C146.598 829.252 145.853 837.504 146.323 842.572C146.713 846.764 148.163 852.093 151.78 854.703C153.736 856.117 156.004 856.281 158.32 856.43C179.685 857.805 346.438 858.361 354.363 855.286C358.029 853.862 360.481 849.081 361.457 845.554C363.293 838.93 362.562 830.926 362.53 824.035C370.455 823.933 380.26 824.084 388.029 823.62ZM1374.77 671.466C1409.33 669.074 1428.03 670.887 1461.25 671.48L1462.74 670.783C1463.89 657.901 1462.88 632.23 1462.66 618.218C1445.56 616.447 1395.58 616.86 1376.88 617.473C1373.34 621.709 1374.75 663.75 1374.77 671.466ZM1198.31 895.272L1256.09 895.229C1256.08 880.179 1255.77 863.867 1256.26 848.919C1236.97 849.491 1217.55 848.963 1198.24 849.214C1198.1 864.566 1198.12 879.92 1198.31 895.272ZM1281.41 895.163C1299.85 895.207 1331.27 894.448 1348.67 895.814L1348.51 859.096C1326.24 859.512 1303.97 859.534 1281.71 859.167C1281.33 871.161 1281.23 883.164 1281.41 895.163ZM725.144 99.8015C729.347 101.225 735.419 103.078 739.319 104.851C754.638 87.64 780.763 73.4085 801.735 63.7488C812.807 59.1066 826.754 52.5872 838.361 50.8223C857.254 84.3833 861.385 96.6131 871.714 133.612C870.551 118.828 854.462 38.0183 837.037 39.9077C801.142 49.2461 750.452 73.1234 725.144 99.8015ZM160.32 895.956C193.364 894.171 230.319 896.476 263.643 895.741C273.545 895.525 286.812 896.41 296.196 895.838L295.665 875.518C252.537 875.824 202.483 873.782 160.444 875.577L160.32 895.956ZM127.338 912.712C123.875 912.74 121.148 912.294 118.37 914.147C122.863 916.183 385.859 914.591 408.729 914.595L414.044 914.631L414.728 913.736C404.998 910.25 149.946 912.386 127.338 912.712ZM1115.46 805.13C1130.49 797.646 1153.98 745.726 1160.61 729.181L1160.41 727.266C1154.49 740.547 1114.42 799.098 1115.46 805.13ZM1253.72 671.811L1255.69 671.622C1256.88 665.434 1256.23 627.032 1256.2 618.401C1238.89 618.057 1215.45 617.666 1198.16 618.451L1198.07 673.361C1212.24 672.709 1239.88 671.458 1253.72 671.811ZM810.685 864.174C830.889 833.623 867.402 834.522 890.744 860.96C895.584 871.276 895.516 876.777 894.417 887.929C894.179 890.358 893.492 893.736 893.807 896.031C896.816 895.408 900.099 892.669 901.61 890.045C919.985 858.133 879.202 826.192 849.726 828.461C835.876 829.969 828.324 833.012 816.643 840.594C816.358 852.159 815.772 853.693 810.685 864.174ZM1533.46 798.385C1533.39 804.357 1532.59 833.372 1534.36 837.307C1534.5 830.28 1535.68 803.694 1533.46 798.385ZM322.538 241.194C312.41 207.669 314.872 157.37 320.949 123.394C321.686 120.938 321.751 118.458 324.514 117.561C330.999 115.455 338.525 115.587 345.307 115.876C376.775 117.212 420.993 123.701 449.571 137.81C453.023 136.139 456.861 134.168 460.362 132.704C422.397 115.214 368.601 101.591 326.736 104.422C321.733 104.909 315.991 105.327 311.082 106.084C300.528 147.361 294.715 215.202 313.942 253.636L322.538 241.194ZM1229.58 538.284C1213.63 534.786 1185.32 531.178 1174.93 520.155L1174.33 520.083C1160.78 522.604 1137.99 529.449 1124.25 533.415C1099.4 540.723 1074.45 547.714 1049.42 554.393C1066.21 563.207 1070.36 567.024 1080.07 583.599C1087.52 580.332 1093.58 578.254 1101.38 575.754C1129.45 567.962 1157.43 559.84 1185.31 551.391C1198.42 547.458 1216.9 540.988 1229.58 538.284ZM1532.81 648.918C1532.77 661.429 1532.28 676.574 1533.47 688.677C1535.82 676.471 1534.91 661.406 1534.79 648.829C1531.1 639.76 1479.97 622.96 1468.41 619.959L1467.64 620.786C1473.69 623.88 1480.15 624.944 1486.03 627.604C1500.29 634.056 1519.85 640.254 1532.81 648.918ZM1388.51 849.449L1374.92 850.005C1374.89 864.718 1375.17 880.626 1374.76 895.238L1452.34 895.207L1463.1 895.322C1462.97 880.183 1462.64 864.572 1462.98 849.475C1438.89 848.69 1412.73 849.154 1388.51 849.449ZM999.112 566.144C953.355 572.935 944.471 595.475 913.421 623.838C869.208 664.223 823.526 675.781 765.756 676.758C792.858 681.39 810.69 682.41 838.431 677.052C864.494 671.775 889.413 662.854 910.881 647.39C946.817 621.503 967.709 577.186 1017.91 576.953C1033.61 576.88 1042.26 578.509 1053.93 589.566C1054.06 586.954 1053.6 587.6 1051.77 585.554C1040.01 572.387 1016.67 563.849 999.112 566.144ZM1404.03 586.066C1394.35 579.689 1369.53 569.086 1357.9 567.923C1362.95 570.608 1399.18 585.247 1404.03 586.066Z"/><path fill="#242223" transform="scale(0.498047 0.498047)" d="M548.821 382.642C615.358 377.532 644.46 462.717 615.265 513.075C605.8 529.399 592.403 537.382 574.344 541.896C559.385 542.639 550.275 542.39 536.539 535.119C479.074 504.701 477.502 395.695 548.821 382.642ZM559.694 449.613C565.794 452.009 569.096 453.679 575.804 453.476C590.67 448.393 598.421 436.498 593.321 420.869C591.401 414.836 587.161 409.812 581.536 406.905C577.842 405.021 573.038 404.086 568.909 404.292C545.306 411.338 546.895 432.725 559.694 449.613Z"/><path fill="#242223" transform="scale(0.498047 0.498047)" d="M823.587 340.182C835.153 339.425 846.959 340.16 857.085 346.053C912.564 378.329 916.984 481.048 846.671 497.442C832.331 498.308 822.476 497.266 810.036 489.29C772.257 465.066 759.574 403.692 784.228 366.571C793.284 352.862 807.461 343.355 823.587 340.182ZM852.436 409.531C880.355 396.452 867.529 358.63 838.985 360.08C810.407 373.107 823.504 414.711 852.436 409.531Z"/><path fill="#242223" transform="scale(0.498047 0.498047)" d="M687.289 574.624C679.045 567.419 671.38 558.193 667.918 547.596C665.261 539.462 660.583 519.866 675.303 522.02C681.121 522.871 689.039 526.353 695.164 527.931C700.153 529.214 705.273 529.933 710.422 530.072C724.085 530.469 738.138 524.849 748.652 516.464C769.1 500.155 771.215 516.928 769.574 534.547C768.198 549.295 762.601 559.312 754.085 571.122C735.887 591.64 708.114 589.877 687.289 574.624Z"/><defs><linearGradient id="gradient_0" gradientUnits="userSpaceOnUse" x1="449.55899" y1="487.50299" x2="447.47198" y2="473.21201"><stop offset="0" stop-color="#504D4F"/><stop offset="1" stop-color="#6B6968"/></linearGradient></defs><path fill="url(#gradient_0)" transform="scale(0.498047 0.498047)" d="M687.289 574.624C691.535 551.531 743.069 545.03 754.085 571.122C735.887 591.64 708.114 589.877 687.289 574.624Z"/><path fill="#929393" transform="scale(0.498047 0.498047)" d="M931.457 912.712C932.14 912.641 932.822 912.581 933.507 912.531C953.682 910.985 992.706 912.244 1014.64 912.244L1176.18 912.214L1415.41 912.107C1465.58 912.011 1515.93 912.204 1566.1 912.392C1570.75 912.411 1571.94 912.292 1574.88 914.838C1562.54 915.882 1543.93 915.272 1530.95 915.252L1451.59 915.187L1198.87 915.278L1013.11 915.298L960.41 915.42C953.355 915.438 938.555 915.868 932.485 915.067L931.457 912.712Z"/><defs><linearGradient id="gradient_1" gradientUnits="userSpaceOnUse" x1="535.90399" y1="542.034" x2="510.42999" y2="576.34302"><stop offset="0" stop-color="#393736"/><stop offset="1" stop-color="#565658"/></linearGradient></defs><path fill="url(#gradient_1)" transform="scale(0.498047 0.498047)" d="M785.933 732.37C799.222 730.898 814.848 731.737 828.79 731.093C849.274 730.147 867.031 725.864 887.225 723.937C897.695 722.939 915.323 713.646 925.042 713.161C927.151 715.516 926.617 714.172 926.725 717.315C918.38 732.352 837.668 744.374 820.915 743.744C818.166 742.593 814.804 739.817 813.155 739.317C805.183 736.905 794.005 733.032 785.933 732.37Z"/><defs><linearGradient id="gradient_2" gradientUnits="userSpaceOnUse" x1="517.36499" y1="484.16101" x2="524.57703" y2="500.47"><stop offset="0" stop-color="#232222"/><stop offset="1" stop-color="#5F5E5E"/></linearGradient></defs><path fill="url(#gradient_2)" transform="scale(0.498047 0.498047)" d="M809.385 631.869C841.462 618.109 868.555 599.892 893.439 575.435C905.179 563.898 906.968 557.501 921.421 548.785C905.727 584.902 855.273 618.921 820.447 635.812C816.836 633.939 813.404 634.152 809.385 631.869Z"/><path fill="#929393" fill-opacity="0.074509807" transform="scale(0.498047 0.498047)" d="M127.338 912.712C149.946 912.386 404.998 910.25 414.728 913.736L414.044 914.631L408.729 914.595C385.859 914.591 122.863 916.183 118.37 914.147C121.148 912.294 123.875 912.74 127.338 912.712Z"/><path fill="#393838" transform="scale(0.498047 0.498047)" d="M741.535 660.055C764.125 651.16 786.585 640.73 809.385 631.869C813.404 634.152 816.836 633.939 820.447 635.812C813.205 642.161 774.031 656.057 762.87 657.947C757.387 658.876 747.504 659.692 741.535 660.055Z"/><path fill="#797879" transform="scale(0.498047 0.498047)" d="M746.967 731.117C760.735 732.386 772.115 732.295 785.933 732.37C794.005 733.032 805.183 736.905 813.155 739.317C814.804 739.817 818.166 742.593 820.915 743.744C793.157 744.563 772.822 741.553 746.144 733.524L746.967 731.117Z"/><path fill="#575757" transform="scale(0.498047 0.498047)" d="M712.115 936.187C718.604 931.881 724.363 927.228 731.948 931.965C734.949 943.675 708.472 950.945 699.04 946.743L697.946 945.016C699.494 938.332 706.186 940.189 712.115 936.187Z"/><path fill="#393838" transform="scale(0.498047 0.498047)" d="M712.115 936.187C718.604 931.881 724.363 927.228 731.948 931.965C724.573 935.356 720.249 935.926 712.115 936.187Z"/><path fill="#393838" transform="scale(0.498047 0.498047)" d="M578.316 891.902C590.672 892.896 595.854 895.352 593.004 908.369C582.63 907.493 575.025 903.821 578.316 891.902Z"/><path fill="#F1F2F1" fill-opacity="0.0078431377" transform="scale(0.498047 0.498047)" d="M1532.81 648.918C1519.85 640.254 1500.29 634.056 1486.03 627.604C1480.15 624.944 1473.69 623.88 1467.64 620.786L1468.41 619.959C1479.97 622.96 1531.1 639.76 1534.79 648.829L1532.81 648.918Z"/><path fill="#393838" transform="scale(0.498047 0.498047)" d="M299.491 874.589C308.724 874.37 384.229 872.912 387.428 875.047L385.624 875.808C360.168 876.84 323.888 876.508 297.913 875.97L299.491 874.589Z"/><path fill="#393838" transform="scale(0.498047 0.498047)" d="M616.751 900.562C618.939 901.544 617.916 900.922 619.475 903.271C617.75 909.865 607.479 912.589 601.594 913.912C599.166 913.061 600.072 913.487 598.095 911.521C598.009 903.688 610.648 901.616 616.751 900.562Z"/><path fill="#797879" fill-opacity="0.32941177" transform="scale(0.498047 0.498047)" d="M1532.81 648.918L1534.79 648.829C1534.91 661.406 1535.82 676.471 1533.47 688.677C1532.28 676.574 1532.77 661.429 1532.81 648.918Z"/><path fill="#929393" fill-opacity="0.078431375" transform="scale(0.498047 0.498047)" d="M1357.9 567.923C1369.53 569.086 1394.35 579.689 1404.03 586.066C1399.18 585.247 1362.95 570.608 1357.9 567.923Z"/><path fill="#393838" fill-opacity="0.63137257" transform="scale(0.498047 0.498047)" d="M1533.46 798.385C1535.68 803.694 1534.5 830.28 1534.36 837.307C1532.59 833.372 1533.39 804.357 1533.46 798.385Z"/><path fill="#575757" fill-opacity="0.53725493" transform="scale(0.498047 0.498047)" d="M361.258 822.007C366.802 821.889 385.781 821.02 389.22 823.106L388.029 823.62C380.449 822.361 370.278 823.317 361.258 822.007Z"/><path fill="#575757" transform="scale(0.498047 0.498047)" d="M730.346 727.462C736.05 728.535 741.418 729.392 746.967 731.117L746.144 733.524C740.673 732.137 735.529 729.707 730.346 727.462Z"/></g></svg>