<?xml version="1.0" encoding="utf-8" ?><svg xmlns="http://www.w3.org/2000/svg" xmlns:xlink="http://www.w3.org/1999/xlink" width="1024" height="1024" viewBox="0 0 1024 1024"><path fill="#072D56" d="M482.308 161.619C485.171 161.613 488.7 163.014 490.384 165.406C497.668 175.753 503.662 191.389 506.347 203.556C508.265 212.253 507.697 222.729 507.109 231.167C536.671 262.961 551.753 296.451 552.087 340.526C587.282 339.856 624.786 340.536 660.048 340.708L825.295 340.575C825.162 345.886 825.338 350.765 825.031 356.134C795.019 356.754 762.59 356.057 732.4 356.039L551.682 356.055C551.463 361.881 549.05 372.975 547.633 378.831C557.41 377.596 563.789 380.085 570.954 379.229C575.222 378.719 589.209 374.318 594.01 372.931C605.08 369.64 616.287 366.823 627.598 364.489L628.372 364.963C647.001 376.539 665.887 364.084 665.098 392.496C673.234 393.167 685.795 394.442 693.62 396.146C692.802 370.942 696.191 373.942 719.911 373.391C735.329 373.032 749.547 377.206 764.262 381.444C769.241 382.878 772.457 390.051 773.978 394.434C785.712 394.344 794.385 395.285 805.184 400.207C813.352 403.929 820.767 404.807 826.389 412.596C827.78 423.29 826.958 441.252 826.937 452.201L826.866 521.022C833.617 520.78 841.843 520.66 848.548 520.893C848.654 528.882 848.634 536.872 848.488 544.86C797.128 545.503 744.692 544.981 693.25 544.985L528.086 544.93C500.651 544.948 472.108 544.579 444.762 545.117C435.287 559.364 415.964 572.663 397.638 564.038C391.924 561.348 389.778 556.787 388.073 550.992C383.439 553.378 378.811 552.712 373.767 552.264C359.42 561.092 342.459 559.721 332.437 545.082C314.005 544.728 294.891 544.984 276.391 544.98L135.166 544.898C135.158 537.915 135.444 527.756 134.723 521.099C141.469 520.34 161.661 520.327 168.285 520.949C168.059 518.779 168.154 514.303 168.146 511.937C166.198 510.077 164.621 508.4 162.807 506.436C162.107 503.475 161.703 500.452 161.603 497.41C161.116 484.749 167.968 480.659 179.503 480.385C178.164 476.645 177.356 472.736 177.102 468.772C175.673 447.277 186.786 448.433 203.455 448.11C233.036 447.538 263.632 449.066 293.099 447.499C288.224 443.418 283.414 440.194 278.442 435.727C260.808 419.989 247.542 399.959 239.934 377.581C227.281 340.088 232.143 301.96 249.619 266.925C247.686 262.398 246.057 257.747 244.743 253.002C240.161 236.168 240.581 223.31 243.701 206.473C244.656 201.316 245.222 197.78 247.866 193.141C248.963 192.499 251.023 191.358 252.261 191.194C274.633 188.236 302.007 196.831 320.767 208.377C356.797 194.868 390.908 191.115 428.928 196.095C439.035 181.202 464.645 164.755 482.308 161.619ZM542.675 493.401C538.1 501.912 535.299 504.554 525.26 505.696L523.011 505.958C523.876 511.655 523.755 515.084 522.154 520.786C529.051 520.64 535.913 520.809 542.807 520.862C561.317 521.003 579.871 520.561 598.375 520.753C606.192 520.718 614.308 520.573 622.1 520.713C621.734 514.496 621.655 508.767 621.598 502.541C606.001 510.103 572.071 522.212 559.148 502.655C557.952 500.844 555.843 491.786 555.628 491.58C550.613 493.865 548.217 494.077 542.675 493.401ZM587.151 397.231C590.813 396.725 593.182 396.07 596.772 395.102C609.076 391.411 632.82 384.583 645.059 382.173L645.248 381.728C638.537 379.603 630.14 377.36 623.904 374.562C610.308 378.373 591.495 382.856 578.78 387.355C582.466 390.654 585.122 392.629 587.151 397.231Z"/><path fill="#3C9ADA" d="M351.006 455.106C334.49 450.291 322.629 445.126 308.092 435.717C217.235 376.912 238.588 247.46 340.537 216.061C386.219 201.992 440.356 202.916 481.086 229.906C509.712 248.864 529.681 278.372 536.637 311.995C540.963 333.483 539.63 354.418 534.435 375.698C530.574 391.514 528.198 389.388 517.926 399.598C497.308 420.092 474.242 433.31 445.379 438.072L450.697 439.267C510.917 448.173 528.473 381.532 565.069 391.187C569.281 392.385 571.73 393.812 574.38 397.411C577.343 401.504 577.772 409.276 572.952 412.017C565.397 416.312 558.711 413.506 552.974 421.769C549.975 431.399 553.408 446.939 537.359 441.702C536.22 441.328 535.085 440.942 533.954 440.546L533.067 442.682C534.146 454.442 533.556 464.162 519.539 466.517C515.354 465.418 513.859 464.525 509.96 462.708L508.853 463.927C509.364 468.465 510.571 475.421 507.211 478.882C496.004 490.427 458.728 489.132 447.488 480.1C448.171 486.13 448.768 505.846 446.627 510.507C444.823 524.509 437.313 541.786 425.892 550.606C425.49 550.916 425.083 551.22 424.671 551.517C415.424 559.061 396.153 559.543 399.58 542.949C401.867 537.515 404.401 532.692 406.507 527.141C411.242 514.661 411.39 502.262 412.147 489.141C410.584 494.551 409.682 499.955 407.326 505.129C404.052 515.285 394.946 535.097 384.592 539.775C379.422 542.942 376.918 541.969 372.74 538.037C370.539 541.002 369.585 542.539 366.667 544.8C355.283 551.936 335.8 544.296 342.509 530.326L343.593 528.82C347.749 523.728 355.198 520.72 359.669 515.435C364.719 509.467 367.453 502.928 369.778 495.548C372.332 484.042 372.636 479.393 372.568 467.959C372.754 465.836 372.58 461.417 372.548 459.11C367.098 458.844 356.705 456.336 351.006 455.106Z"/><path fill="#247EBD" d="M447.488 480.1C451.885 479.572 459.084 480.074 464.011 479.626C482.113 477.98 493.62 472.35 508.853 463.927C509.364 468.465 510.571 475.421 507.211 478.882C496.004 490.427 458.728 489.132 447.488 480.1Z"/><path fill="#8BC9F1" d="M450.697 439.267C510.917 448.173 528.473 381.532 565.069 391.187L563.528 392.715C545.284 390.603 529.256 410.645 517.213 421.807C499.569 438.16 479.932 445.604 455.858 443.344C453.609 443.157 449.984 442.323 448.452 440.567L448.561 439.809C449.836 439.28 449.382 439.33 450.697 439.267Z"/><path fill="#247EBD" d="M533.067 442.682C534.146 454.442 533.556 464.162 519.539 466.517C515.354 465.418 513.859 464.525 509.96 462.708C516.856 460.042 528.085 447.962 533.067 442.682Z"/><path fill="#247EBD" d="M342.509 530.326C344.505 530.799 346.004 528.373 346.649 530.984C348.996 540.483 363.337 539.102 366.055 541.738C366.274 542.76 366.512 543.768 366.667 544.8C355.283 551.936 335.8 544.296 342.509 530.326Z"/><path fill="#247EBD" d="M399.58 542.949C405.015 544.052 409.302 551.506 417.941 549.466C420.198 549.228 422.016 548.684 423.884 549.568L424.671 551.517C415.424 559.061 396.153 559.543 399.58 542.949Z"/><path fill="#8BC9F1" d="M382.17 535.476C394.182 529.977 399.522 517.104 404.669 505.683C405.535 503.761 406.696 499.945 408.211 498.793C408.262 500.307 407.27 502.661 407.326 505.129C404.052 515.285 394.946 535.097 384.592 539.775C382.099 539.402 375.32 540.61 374.6 536.736C376.924 534.527 379.294 535.129 382.17 535.476Z"/><path fill="#247EBD" d="M533.954 440.546C535.981 437.662 549.796 423.194 552.974 421.769C549.975 431.399 553.408 446.939 537.359 441.702C536.22 441.328 535.085 440.942 533.954 440.546Z"/><defs><linearGradient id="gradient_0" gradientUnits="userSpaceOnUse" x1="430.05905" y1="530.39026" x2="437.45935" y2="538.84436"><stop offset="0" stop-color="#67B9E8"/><stop offset="1" stop-color="#97D7F9"/></linearGradient></defs><path fill="url(#gradient_0)" d="M417.941 549.466C418.973 548.87 419.668 548.952 420.693 548.5C433.971 542.649 437.217 531.582 442.446 519.303C445.219 517.755 445.425 513.514 446.062 510.507L446.627 510.507C444.823 524.509 437.313 541.786 425.892 550.606C425.49 550.916 425.083 551.22 424.671 551.517L423.884 549.568C422.016 548.684 420.198 549.228 417.941 549.466Z"/><defs><linearGradient id="gradient_1" gradientUnits="userSpaceOnUse" x1="362.48575" y1="514.53992" x2="356.83084" y2="510.81525"><stop offset="0" stop-color="#A0D8F4"/><stop offset="1" stop-color="#66C3F9"/></linearGradient></defs><path fill="url(#gradient_1)" d="M369.778 495.548C371.025 498.722 368.575 504.111 367.209 507.218C361.961 519.156 356.724 525.69 343.593 528.82C347.749 523.728 355.198 520.72 359.669 515.435C364.719 509.467 367.453 502.928 369.778 495.548Z"/><path fill="#8BC9F1" d="M565.069 391.187C569.281 392.385 571.73 393.812 574.38 397.411C570.155 397.768 566.881 395.016 563.528 392.715L565.069 391.187Z"/><path fill="#FEFEFE" d="M483.853 297.721C524.035 294.137 529.757 344.461 521.093 372.868C510.328 408.168 469.067 425.691 435.557 431.213C410.702 435.31 385.983 434.397 361.877 426.466C335.162 417.408 316.485 401.27 314.128 371.902C312.953 357.266 316.056 339.365 326.22 328.239C351.391 300.683 392.8 316.731 424.743 311.825C445.917 308.428 461.598 299.32 483.853 297.721Z"/><path fill="#072D56" d="M368.45 333.646C399.603 332.502 411.038 394.363 373.405 397.806C339.533 396.761 333.858 339.066 368.45 333.646Z"/><path fill="#FEFEFE" d="M374.752 344.545C385.853 343.472 388.348 355.147 379.678 361.455C369.078 363.057 365.566 351.304 374.752 344.545Z"/><path fill="#072D56" d="M480.485 319.099C506.655 315.429 519.379 371.125 489.434 382.342C477.972 383.271 471.62 377.407 467.216 367.262C460.038 350.723 461.891 327.185 480.485 319.099Z"/><path fill="#FEFEFE" d="M487.29 328.48C496.896 328.225 499.528 339.228 492.1 345.305C482.74 346.768 479.865 335.229 487.29 328.48Z"/><path fill="#072D56" d="M424.601 408.927C420.913 405.316 414.282 396.621 416.632 391.322C419.313 390.076 432.514 397.281 440.008 394.61C444.097 393.152 453.55 387.025 455.616 386.583C460.274 391.849 454.377 403.595 450.713 408.225C443.603 415.734 432.202 415.681 424.601 408.927Z"/><path fill="#F23F43" d="M424.601 408.927C430.52 400.981 444.323 400.164 450.713 408.225C443.603 415.734 432.202 415.681 424.601 408.927Z"/><path fill="#F23F43" d="M748.04 402.933C759.922 402.97 774.534 402.828 786.149 404.5C794.823 406.064 809.738 412.768 817.546 417.308C817.526 451.011 816.967 486.679 817.786 520.244C807.185 520.39 796.581 520.345 785.981 520.107C773.367 519.749 761.062 520.103 748.251 519.523C747.914 514.115 748.037 507.7 748.007 502.215L747.996 489.466L747.976 437.034L748.045 423.371C748.202 416.717 748.064 409.621 748.04 402.933Z"/><path fill="#CC2D2B" d="M786.149 404.5C794.823 406.064 809.738 412.768 817.546 417.308C817.526 451.011 816.967 486.679 817.786 520.244C807.185 520.39 796.581 520.345 785.981 520.107L786.025 502.197C786.142 497.954 786.18 493.709 786.14 489.464C785.654 473.181 785.553 453.201 785.995 436.929C786.083 432.527 786.013 427.917 786.015 423.497C785.722 417.232 785.237 410.684 786.149 404.5Z"/><path fill="#F23F43" d="M748.04 402.933C759.922 402.97 774.534 402.828 786.149 404.5C785.237 410.684 785.722 417.232 786.015 423.497C773.452 423.317 760.629 423.41 748.045 423.371C748.202 416.717 748.064 409.621 748.04 402.933Z"/><path fill="#F23F43" d="M786.025 502.197L785.981 520.107C773.367 519.749 761.062 520.103 748.251 519.523C747.914 514.115 748.037 507.7 748.007 502.215C760.52 502.232 773.554 502.427 786.025 502.197Z"/><path fill="#FDA069" d="M748.045 423.371C760.629 423.41 773.452 423.317 786.015 423.497C786.013 427.917 786.083 432.527 785.995 436.929C773.453 436.927 760.479 436.777 747.976 437.034L748.045 423.371Z"/><path fill="#FDA069" d="M747.996 489.466C760.619 489.462 773.544 489.307 786.14 489.464C786.18 493.709 786.142 497.954 786.025 502.197C773.554 502.427 760.52 502.232 748.007 502.215L747.996 489.466Z"/><path fill="#F96D1B" d="M645.248 381.728C655.647 383.607 654.249 386.936 654.592 396.833C652.011 397.457 648.287 398.236 645.834 398.981C645.709 426.368 645.769 453.756 646.013 481.143C637.656 484.502 629.218 487.98 620.831 491.234C613.097 494.425 605.313 497.491 597.481 500.431C591.639 502.647 576.042 504.462 570.781 499.819C567.586 495.372 567.256 487.743 567.216 482.439C567.089 465.54 566.711 448.56 567.259 431.686C567.418 426.772 570.245 424.94 574.691 423.781C588.011 420.309 588.136 408.59 587.151 397.231C590.813 396.725 593.182 396.07 596.772 395.102C609.076 391.411 632.82 384.583 645.059 382.173L645.248 381.728Z"/><path fill="#F89618" d="M587.151 397.231C590.813 396.725 593.182 396.07 596.772 395.102C597.145 400.377 597.086 405.598 597.139 410.878C597.441 440.679 596.414 470.653 597.481 500.431C591.639 502.647 576.042 504.462 570.781 499.819C567.586 495.372 567.256 487.743 567.216 482.439C567.089 465.54 566.711 448.56 567.259 431.686C567.418 426.772 570.245 424.94 574.691 423.781C588.011 420.309 588.136 408.59 587.151 397.231Z"/><path fill="#CC2D2B" d="M645.248 381.728C655.647 383.607 654.249 386.936 654.592 396.833C652.011 397.457 648.287 398.236 645.834 398.981C645.709 426.368 645.769 453.756 646.013 481.143C637.656 484.502 629.218 487.98 620.831 491.234C621.107 487.458 625.745 472.276 627.085 467.34C630.807 453.537 634.286 439.671 637.52 425.746C641.146 410.719 645.38 397.648 645.059 382.173L645.248 381.728Z"/><path fill="#26B450" d="M704.286 382.009L727.467 382.487C730.007 382.536 732.181 382.372 734.531 383.263C735.617 384.767 735.429 388.216 735.431 390.186C735.458 414.232 735.464 438.284 735.48 462.329L735.512 497.314C735.532 504.135 735.78 512.288 735.33 518.974L727.453 519.937C719.794 519.989 712.199 520.094 704.543 519.782L704.403 508.976C704.338 503.478 704.066 497.992 704.066 492.491L704.021 421.956C704.013 409.795 703.57 393.766 704.286 382.009Z"/><path fill="#017A33" d="M727.467 382.487C730.007 382.536 732.181 382.372 734.531 383.263C735.617 384.767 735.429 388.216 735.431 390.186C735.458 414.232 735.464 438.284 735.48 462.329L735.512 497.314C735.532 504.135 735.78 512.288 735.33 518.974L727.453 519.937C719.794 519.989 712.199 520.094 704.543 519.782L704.403 508.976C704.338 503.478 704.066 497.992 704.066 492.491C704.327 494.342 704.096 495.029 705.086 496.275C710.306 496.895 721.799 496.567 727.496 496.551C728.179 459.967 727.924 419.141 727.467 382.487Z"/><path fill="#26B450" d="M704.403 508.976C711.25 509.061 720.904 508.892 727.521 509.413C727.514 512.555 727.635 516.893 727.453 519.937C719.794 519.989 712.199 520.094 704.543 519.782L704.403 508.976Z"/><path fill="#FEC81D" d="M656.758 402.537C673.084 402.226 677.631 403.034 693.628 405.103L693.589 519.423L687.122 519.446C677.991 519.752 665.999 519.419 656.883 519.163C656.595 514.667 656.684 509.56 656.662 505.012C656.736 500.171 656.751 495.328 656.707 490.486C656.02 471.751 656.576 448.845 656.608 429.931C656.619 423.22 656.677 416.509 656.78 409.798L656.758 402.537Z"/><defs><linearGradient id="gradient_2" gradientUnits="userSpaceOnUse" x1="657.93311" y1="460.6412" x2="692.93091" y2="460.36383"><stop offset="0" stop-color="#FFCF04"/><stop offset="1" stop-color="#FFA929"/></linearGradient></defs><path fill="url(#gradient_2)" d="M656.758 402.537C673.084 402.226 677.631 403.034 693.628 405.103L693.589 519.423L687.122 519.446C687.406 516.65 686.592 509.326 686.71 505.527C687.139 501.76 686.753 494.548 686.63 490.549C686.086 482.86 686.453 470.429 686.451 462.402C686.449 453.123 686.108 440.56 686.672 431.507C678.472 430.43 665.182 430.266 656.608 429.931C656.619 423.22 656.677 416.509 656.78 409.798L656.758 402.537Z"/><path fill="#FEF9D3" d="M656.78 409.798C666.674 409.608 677.309 410.338 686.84 413.255C686.947 417.814 687.221 427.084 686.672 431.507C678.472 430.43 665.182 430.266 656.608 429.931C656.619 423.22 656.677 416.509 656.78 409.798Z"/><path fill="#FEF9D3" d="M656.707 490.486C666.003 490.164 677.189 490.51 686.63 490.549C686.753 494.548 687.139 501.76 686.71 505.527C686.592 509.326 687.406 516.65 687.122 519.446C677.991 519.752 665.999 519.419 656.883 519.163C656.595 514.667 656.684 509.56 656.662 505.012C656.736 500.171 656.751 495.328 656.707 490.486Z"/><path fill="#FEC81D" d="M656.662 505.012C666.78 505.347 676.719 505.233 686.71 505.527C686.592 509.326 687.406 516.65 687.122 519.446C677.991 519.752 665.999 519.419 656.883 519.163C656.595 514.667 656.684 509.56 656.662 505.012Z"/><path fill="#3C9ADA" d="M351.006 455.106C356.705 456.336 367.098 458.844 372.548 459.11C372.58 461.417 372.754 465.836 372.568 467.959L369.959 470.879C363.881 477.691 363.008 495.845 352.69 506.043C348.804 510.773 337.65 523.261 331.019 517.303C330.474 516.81 329.961 516.282 329.483 515.724L329.182 514.524C326.64 517.317 325.172 519.691 322.019 521.767C317.94 523.828 313.287 524.458 308.807 523.556C298.076 521.445 294.43 513.161 296.575 503.17L297.615 501.852C301.2 494.788 307.47 493.771 314.572 492.679C328.059 489.902 334.509 480.872 341.661 470.036C344.175 463.998 345.737 459.269 351.006 455.106Z"/><defs><linearGradient id="gradient_3" gradientUnits="userSpaceOnUse" x1="365.91122" y1="456.36002" x2="345.06888" y2="490.13803"><stop offset="0" stop-color="#01659E"/><stop offset="1" stop-color="#017DBA"/></linearGradient></defs><path fill="url(#gradient_3)" d="M351.006 455.106C356.705 456.336 367.098 458.844 372.548 459.11C372.58 461.417 372.754 465.836 372.568 467.959L369.959 470.879C363.881 477.691 363.008 495.845 352.69 506.043C353.035 503.821 353.356 503.288 354.269 501.179C356.17 499.839 359.586 486.643 360.345 483.862C361.92 478.093 362.374 466.96 354.415 465.544C349.46 464.662 345.552 467.216 341.661 470.036C344.175 463.998 345.737 459.269 351.006 455.106Z"/><path fill="#247EBD" d="M296.575 503.17C297.862 503.173 299.37 502.908 300.047 504.141C301.865 507.455 302.481 508.879 305.196 511.615C310.119 516.578 317.191 517.258 322.019 521.767C317.94 523.828 313.287 524.458 308.807 523.556C298.076 521.445 294.43 513.161 296.575 503.17Z"/><path fill="#8BC9F1" d="M329.483 515.724C331.718 510.964 333.499 514.14 338.495 513.165C344.968 511.902 349.784 503.697 354.269 501.179C353.356 503.288 353.035 503.821 352.69 506.043C348.804 510.773 337.65 523.261 331.019 517.303C330.474 516.81 329.961 516.282 329.483 515.724Z"/><path fill="#8BC9F1" d="M314.572 492.679C316.34 493.657 315.832 492.972 316.534 494.476C314.804 497.462 306.809 498.439 303.485 499.713C302.157 500.222 298.72 501.764 297.615 501.852C301.2 494.788 307.47 493.771 314.572 492.679Z"/><path fill="#FEC81D" d="M267.293 457.401C273.989 456.947 304.614 455.831 309.39 457.107C316.298 458.953 323.066 463.449 329.816 466.103C323.678 477.183 320.87 481.134 307.536 480.766C299.948 480.556 291.529 480.586 283.885 480.562L255.588 480.536C250.878 480.528 243.454 480.701 238.938 480.196C239.023 475.071 239.412 462.438 238.523 457.754C241.397 456.98 263.158 457.33 267.293 457.401Z"/><path fill="#F89618" d="M267.293 457.401C273.989 456.947 304.614 455.831 309.39 457.107C316.298 458.953 323.066 463.449 329.816 466.103C323.678 477.183 320.87 481.134 307.536 480.766C299.948 480.556 291.529 480.586 283.885 480.562L283.534 457.513C278.268 457.573 272.507 457.771 267.293 457.401Z"/><path fill="#F23F43" d="M189.419 511.404C195.546 510.944 202.26 511.029 208.429 511.102C233.722 511.4 259.129 510.71 284.407 511.073C285.262 517.438 286.357 520.872 288.517 526.965C279.032 528.217 264.677 527.114 254.831 527.449C252.854 527.517 238.215 527.428 236.619 527.177C218.603 527.091 198.25 527.409 180.355 526.457C179.977 523.518 179.568 520.57 179.292 517.621C178.602 510.231 184.432 511.307 189.419 511.404Z"/><path fill="#CC2D2B" d="M189.419 511.404C195.546 510.944 202.26 511.029 208.429 511.102C233.722 511.4 259.129 510.71 284.407 511.073C285.262 517.438 286.357 520.872 288.517 526.965C279.032 528.217 264.677 527.114 254.831 527.449C252.854 527.517 238.215 527.428 236.619 527.177C236.91 527.056 237.331 526.679 237.607 526.464C238.131 522.606 237.944 515.718 237.952 511.617C223.367 511.616 203.588 512.214 189.419 511.404Z"/><path fill="#247EBD" d="M493.194 533.518C488.077 535.356 480.323 535.548 475.138 534.948C455.447 532.671 458.843 511.85 472.447 503.564C479.907 499.021 487.621 497.132 496.049 498.951C505.306 500.459 514.232 504.755 512.426 515.929C511.521 521.534 506.687 527.32 501.621 529.787C499.478 531.725 495.982 532.665 493.194 533.518Z"/><path fill="#3C9ADA" d="M496.049 498.951C505.306 500.459 514.232 504.755 512.426 515.929C511.521 521.534 506.687 527.32 501.621 529.787C499.478 531.725 495.982 532.665 493.194 533.518C492.744 533.396 492.295 533.27 491.848 533.138C479.65 529.514 482.249 516.692 489.885 509.849C494.012 506.152 495.764 506.434 500.32 504.441L500.97 504.15C495.361 502.208 493.516 502.079 487.519 501.835C491.088 498.77 491.325 498.921 496.049 498.951Z"/><path fill="#8BC9F1" d="M496.049 498.951C505.306 500.459 514.232 504.755 512.426 515.929C511.521 521.534 506.687 527.32 501.621 529.787C501.765 528.872 505.775 522.868 506.596 520.774C509.377 513.678 509.538 506.454 500.97 504.15C495.361 502.208 493.516 502.079 487.519 501.835C491.088 498.77 491.325 498.921 496.049 498.951Z"/><path fill="#FEF9D3" d="M238.938 480.196C230.877 479.597 195.821 481.359 191.588 478.482C190.32 477.62 189.775 475.834 189.608 474.378C189.21 470.906 188.647 462.035 190.996 459.439C191.858 458.486 193.272 458.337 194.51 458.198C198.923 457.702 203.541 458.043 207.976 458.087C218.066 458.186 228.468 458.512 238.523 457.754C239.412 462.438 239.023 475.071 238.938 480.196Z"/><path fill="#26B450" d="M241.761 503.887L200.747 503.776C194.963 503.763 179.418 504.101 174.942 502.936C172.631 500.694 172.993 493.822 174.714 491.211C175.519 489.99 178.056 489.729 179.472 489.683C186.861 489.441 194.299 489.567 201.7 489.589C216.772 489.656 231.845 489.631 246.918 489.514C247.787 489.761 248.945 489.859 249.168 490.499C250.37 493.96 249.561 499.783 249.588 503.559C247.102 503.646 244.201 503.67 241.761 503.887Z"/><path fill="#247EBD" d="M555.494 445.965L555.729 446.192C557.235 450.007 557.895 473.402 555.967 477.594C552.383 485.386 544.232 484.29 537.208 480.884C536.877 484.086 536.755 486.429 535.741 489.496C529.761 496.491 522.85 496.542 514.623 494.158C511.572 492.405 511.046 491.96 508.471 489.627C515.394 484.749 516.846 483.198 519.674 475.331C530.364 472.678 539.315 467.783 541.545 455.847L542.21 452.375C548.792 451.133 550.729 450.595 555.494 445.965Z"/><path fill="#28598C" d="M532.182 529.071L748.221 529.143L802.575 529.187C810.6 529.143 824.296 528.568 831.896 529.209C832.933 530.417 832.593 530.474 832.747 532.436L625.044 532.482L563.875 532.463C556.317 532.477 539.498 533.068 532.95 532.312C531.905 530.984 532.257 531.175 532.182 529.071Z"/><path fill="#017A33" d="M246.918 489.514C260.661 490.407 275.18 489.475 289.092 490.11C286.512 495.648 285.535 497.871 284.478 503.821C270.24 504.04 255.999 504.062 241.761 503.887C244.201 503.67 247.102 503.646 249.588 503.559C249.561 499.783 250.37 493.96 249.168 490.499C248.945 489.859 247.787 489.761 246.918 489.514Z"/><path fill="#28598C" d="M153.006 528.673C158.359 528.819 163.519 528.494 168.952 528.77C169.867 529.958 169.619 530.676 169.802 532.455C165.285 532.493 157.829 532.774 153.553 532.292C152.759 531.051 153.051 530.418 153.006 528.673Z"/><path fill="#072D56" d="M213.302 588.305C244.969 584.711 273.522 607.551 276.971 639.234C280.42 670.917 257.451 699.365 225.753 702.67C194.258 705.954 166.031 683.165 162.604 651.685C159.177 620.205 181.838 591.875 213.302 588.305ZM221.463 680.64C226.195 679.884 230.683 679.107 234.594 676.102C256.522 659.252 252.548 611.2 219.677 610.21C216.675 610.558 213.312 611.044 210.484 612.128C187.005 621.128 186.171 661.081 204.487 675.415C209.536 679.365 215.239 680.582 221.463 680.64Z"/><path fill="#F96D1B" d="M493.69 590.062L519.005 589.997C538.85 589.931 562.068 589.995 576.855 605.269C597.419 626.51 595.243 665.876 574.865 686.278C557.603 701.549 539.991 701.805 518.131 701.614C509.925 701.53 501.718 701.525 493.511 701.6L493.54 629.198C493.545 617.216 493.099 601.697 493.69 590.062ZM554.445 672.428C566.583 659.206 567.693 630.672 553.74 618.002C543.744 608.926 531.215 611.305 519.113 610.237C518.837 633.814 519.365 657.639 519.032 681.145C532.64 681.441 543.891 682.469 554.445 672.428Z"/><path fill="#072D56" d="M440.638 623.392C462.915 621.794 482.298 638.494 484.011 660.763C485.723 683.031 469.123 702.5 446.864 704.327C424.441 706.168 404.799 689.42 403.074 666.988C401.349 644.557 418.198 625.001 440.638 623.392ZM446.627 683.913C466.695 679.873 463.727 640.498 440.866 644.091C436.376 645.304 432.555 647.141 430.304 651.459C423.419 664.668 427.958 686.526 446.627 683.913Z"/><path fill="#F96D1B" d="M629.698 625.172C641.307 624.321 652.369 624.899 662.258 631.881C679.556 644.093 681.87 671.073 669.992 687.775C663.799 696.481 654.852 700.873 644.509 702.463C585.158 711.19 578.982 631.31 629.698 625.172ZM637.451 684.328C639.642 683.933 641.704 683.617 643.703 682.547C658.684 674.525 655.25 642.997 635.879 643.548C623.504 646.458 620.539 652.543 620.191 664.975C619.916 674.816 626.409 685.665 637.451 684.328Z"/><path fill="#F96D1B" d="M779.741 625.177C789.8 624.314 798.196 625.139 807.439 629.346C807.177 635.15 807.053 640.919 806.746 646.739C799.874 643.836 779.224 636.487 775.633 647.295C776.478 651.465 783.631 654.236 787.708 655.135C807.053 659.4 821.501 675.008 806.712 693.896C801.295 700.814 789.533 702.729 780.625 703.185C769.018 703.029 763.778 701.607 753.027 697.555L753.13 677.744C759.246 681.337 765.534 684.059 772.536 685.428C777.367 686.372 788.284 686.422 789.411 680.08C787.065 673.277 766.531 670.983 760.605 665.374C756.597 662.112 753.353 657.694 752.94 652.2C751.608 634.529 765.055 626.849 779.741 625.177Z"/><path fill="#072D56" d="M379.855 604.273C380.518 606.327 380.238 623.904 380.23 627.129L399 626.977L398.969 645.079C392.827 644.962 386.487 645.011 380.327 644.98C380.182 655.305 378.115 673.737 382.93 682.384C384.451 683.256 386.029 684.021 387.594 684.815C392.856 684.592 394.914 684.002 399.81 682.279C400.116 688.254 399.922 693.898 400.379 700.038C395.365 701.581 391.821 702.279 386.653 702.796C347.894 708.436 357.766 668.087 356.559 644.837L345.998 644.616C346.042 639.206 345.962 633.795 345.759 628.389L356.858 628.457C356.375 622.591 356.545 613.946 356.502 607.863C363.826 606.668 372.618 604.793 379.855 604.273Z"/><path fill="#F96D1B" d="M718.859 625.187C728.289 624.452 735.161 624.379 743.967 628.078C744.061 634.818 744.061 641.559 743.966 648.299C737.291 644.724 729.753 642.273 722.178 644.745C717.218 646.368 713.171 650.004 711.028 654.762C706.739 664.192 710.075 678.018 720.257 682.196C728.343 685.513 736.651 683.245 744.28 680.014C744.639 684.784 744.532 691.228 744.595 696.125C744.616 696.422 744.502 697.889 744.479 698.237C742.119 701.062 736.183 701.875 732.328 702.568C693.301 709.587 669.97 671.461 691.655 639.377C697.293 631.035 708.584 626.511 718.859 625.187Z"/><path fill="#072D56" d="M322.78 624.728C327.766 624.335 335.62 626.222 340.51 627.372C340.423 634.009 340.256 640.751 340.426 647.378C333.611 644.39 325.857 642.356 318.561 644.96C313.957 646.564 310.238 650.03 308.315 654.51C305.934 660.025 305.923 667.384 308.26 672.916C310.105 677.376 313.723 680.867 318.247 682.551C326.499 685.682 334.108 683.167 341.586 679.776C341.562 685.438 342.551 692.838 341.703 698.5C341.588 699.271 341.038 699.299 340.115 699.805C325.696 705.418 305.036 704.253 293.156 693.487C278.152 679.891 277.252 652.092 291.192 637.349C300.175 627.848 310.177 625.315 322.78 624.728Z"/></svg>