<?xml version="1.0" encoding="utf-8" ?><svg xmlns="http://www.w3.org/2000/svg" xmlns:xlink="http://www.w3.org/1999/xlink" width="1024" height="1024" viewBox="0 0 1024 1024"><path fill="#083668" d="M233.112 504.769L233.052 399.059L233.059 359.678C233.051 338.309 232.679 319.911 238.018 298.828C243.031 278.795 253.276 260.452 267.704 245.676C295.912 217.049 333.806 209.125 372.523 208.989L573.334 208.988L632.278 208.984C653.11 208.977 671.357 208.65 691.857 212.267C741.161 220.968 776.995 254.881 787.237 304.147C791.703 325.63 790.969 343.794 790.977 365.697L790.982 421.558L790.985 617.636C790.963 668.074 778.467 706.471 735.606 736.845C716.981 746.854 702.718 753.808 681.065 755.335C678.496 755.517 671.589 755.966 669.472 756.517C663.736 756.274 654.266 756.809 647.961 756.841L597.757 756.899L434.941 756.876L387.509 756.876C354.323 756.832 330.651 757.177 299.603 743.213C297.332 741.901 295.56 740.926 293.18 739.767C288.883 736.791 284.446 733.587 280.088 730.748C277.348 728.73 273.185 724.877 270.719 722.389C228.663 679.961 233.158 631.002 233.03 577.222C233.126 553.139 232.788 528.809 233.112 504.769Z"/><defs><linearGradient id="gradient_0" gradientUnits="userSpaceOnUse" x1="311.43021" y1="445.14142" x2="253.29764" y2="432.15799"><stop offset="0" stop-color="#52A1DC"/><stop offset="1" stop-color="#104F8C"/></linearGradient></defs><path fill="url(#gradient_0)" d="M233.112 504.769C233.789 501.594 233.472 483.864 233.668 478.788C234.358 484.542 234.019 495.479 234.018 501.772L234.006 553.089C234.004 557.495 233.15 577.749 235.162 579.897L235.372 579.435C233.67 577.025 235.342 574.98 234.879 573.15C233.29 566.872 235.316 560.817 235.331 554.513C235.362 541.695 238.002 530.118 240.527 517.669C241.65 511.4 241.773 504.389 243.115 498.211C246.467 482.774 249.342 467.203 252.648 451.773C253.7 446.867 253.809 442.952 254.608 438.212C255.873 430.71 257.852 423.215 258.863 415.64C260.58 404.179 262.183 393.183 264.635 381.881C267.633 368.063 271.829 357.516 277.252 344.598C280.682 336.427 283.783 327.516 287.273 319.296C288.703 315.929 290.927 313.064 292.303 309.87C296.473 300.193 301.888 296.867 305.338 286.285C301.269 305.948 301.998 336.607 309.38 355.043C298.359 384.675 297.607 409.377 305.214 439.901C303.804 443.946 309.88 451.002 308.646 456.96C305.603 471.652 301.652 486.206 298.538 500.917C297.889 503.987 296.889 506.911 296.455 510C293.038 509.984 289.498 510.017 286.096 509.846C286.569 510.238 290.302 510.623 291.295 510.873C260.403 510.826 259.183 510.433 259.476 541.921C242.047 545.678 241.659 559.226 250.688 572.182L247.512 581.824C242.011 582.334 234.315 584.247 233.03 577.222C233.126 553.139 232.788 528.809 233.112 504.769Z"/><defs><linearGradient id="gradient_1" gradientUnits="userSpaceOnUse" x1="302.07675" y1="481.40845" x2="318.48267" y2="484.95737"><stop offset="0" stop-color="#5AA6DB"/><stop offset="1" stop-color="#7CC5F0"/></linearGradient></defs><path fill="url(#gradient_1)" d="M305.214 439.901C308.995 451.623 312.263 459.123 318.533 470.012C318.51 470.199 318.488 470.386 318.466 470.573C320.909 484.977 315.855 496.107 312.113 509.749L315.3 509.746C315.898 510.522 315.785 510.12 315.821 510.886C309.096 511.313 298.234 510.955 291.295 510.873C290.302 510.623 286.569 510.238 286.096 509.846C289.498 510.017 293.038 509.984 296.455 510C296.889 506.911 297.889 503.987 298.538 500.917C301.652 486.206 305.603 471.652 308.646 456.96C309.88 451.002 303.804 443.946 305.214 439.901Z"/><defs><linearGradient id="gradient_2" gradientUnits="userSpaceOnUse" x1="315.19244" y1="490.98816" x2="358.47659" y2="499.90234"><stop offset="0" stop-color="#76C5F1"/><stop offset="1" stop-color="#DEFFFF"/></linearGradient></defs><path fill="url(#gradient_2)" d="M318.533 470.012C330.267 487.442 340.989 499.252 358.847 510.974C344.976 510.97 329.564 511.305 315.821 510.886C315.785 510.12 315.898 510.522 315.3 509.746L312.113 509.749C315.855 496.107 320.909 484.977 318.466 470.573C318.488 470.386 318.51 470.199 318.533 470.012Z"/><path fill="#2599E7" d="M322.132 367.47C324.111 360.807 327.551 354.423 331.154 348.543C365.151 293.054 439.387 268.655 500.823 287.144C531.6 296.406 557.066 315.381 572.106 344.042C586.95 372.136 589.745 405.424 580.548 435.861C579.662 438.79 578.932 440.715 577.483 443.386C563.156 450.454 563.048 453.801 551.966 464.345C538.849 476.825 510.181 491.394 492.257 494.602C502.155 496.384 505.446 495.726 513.961 496.572C518.36 495.955 521.209 495.324 525.543 494.254C537.694 490.231 550.81 482.049 559.05 472.225C569.754 459.463 573.473 451.571 592.024 452.037C610.951 453.661 620.163 473.198 599.148 481.02C591.428 483.894 587.233 488.885 582.627 495.436C592.352 494.56 591.086 502.823 585.854 508.121L579.531 509.306C576.699 512.644 575.422 514.879 573.281 518.709C576.93 520.234 579.936 523.049 577.26 527.291C573.549 533.171 568.009 534.852 561.372 534.433L556.858 531.726L551.911 534.405L553.442 540.357C549.186 548.944 537.399 553.62 532.797 543.085C522.604 553.384 503.363 549.534 490.837 546.341C494.042 559.271 493.298 579.578 487.97 591.872C491.856 593.944 492.275 596.975 489.474 600.393C486.442 604.093 484.047 604.806 479.416 605.304C475.567 607.323 473.07 611.142 469.697 613.069C455.903 620.948 444.291 614.182 448.472 598.343C452.539 589.888 455.407 573.88 455.538 564.675C453.566 562.008 454.612 559.495 454.715 555.955C454.074 555.976 453.686 556.052 453.054 556.145C452.24 557.681 451.644 559.854 451.085 561.559L450.316 561.527L449.269 564.362C447.886 570.712 443.342 583.851 439.758 589.23C436.089 595.64 428.12 603.432 421.371 596.102C419.713 597.259 417.492 600.958 415.823 602.101C402.558 611.191 386.585 605.85 388.126 588.35C394.747 568.351 419.12 579.736 421.18 539.536C421.105 537.843 421.27 537.499 420.636 535.985C414.473 559.559 403.768 563.884 383.801 575.071C376.74 579.786 375.284 586.884 365.312 583.709C355.507 580.588 350.676 569.066 354.359 559.583C357.32 551.961 368.644 551.106 375.272 548.299C380.617 546.206 386.06 541.533 389.181 536.673C396.451 525.35 395.397 520.033 409.059 514.891C354.268 499.131 310.959 455.766 315.785 394.971C316.44 386.722 318.706 374.986 322.132 367.47Z"/><path fill="#1272CB" d="M322.132 367.47C322.243 367.686 322.354 367.903 322.464 368.12C322.879 425.528 348.723 478.065 403.731 501.063C410.767 504.005 421.899 507.746 429.897 508.781C419.515 519.254 422.364 526.56 421.18 539.536C421.105 537.843 421.27 537.499 420.636 535.985C414.473 559.559 403.768 563.884 383.801 575.071C376.74 579.786 375.284 586.884 365.312 583.709C355.507 580.588 350.676 569.066 354.359 559.583C357.32 551.961 368.644 551.106 375.272 548.299C380.617 546.206 386.06 541.533 389.181 536.673C396.451 525.35 395.397 520.033 409.059 514.891C354.268 499.131 310.959 455.766 315.785 394.971C316.44 386.722 318.706 374.986 322.132 367.47Z"/><defs><linearGradient id="gradient_3" gradientUnits="userSpaceOnUse" x1="515.52362" y1="513.57312" x2="544.05872" y2="551.99438"><stop offset="0" stop-color="#0767C6"/><stop offset="1" stop-color="#217ECF"/></linearGradient></defs><path fill="url(#gradient_3)" d="M582.627 495.436C592.352 494.56 591.086 502.823 585.854 508.121L579.531 509.306C576.699 512.644 575.422 514.879 573.281 518.709C576.93 520.234 579.936 523.049 577.26 527.291C573.549 533.171 568.009 534.852 561.372 534.433L556.858 531.726L551.911 534.405L553.442 540.357C549.186 548.944 537.399 553.62 532.797 543.085C522.604 553.384 503.363 549.534 490.837 546.341C494.042 559.271 493.298 579.578 487.97 591.872L485.514 592.537C486.745 587.412 488.02 574.923 489.463 571.179C489.517 566.955 489.541 562.731 489.534 558.507C488.878 549.621 487.154 543.085 485.174 534.36C498.992 539.29 508.051 541.073 523.033 539.588C541.585 537.749 557.974 528.274 569.435 513.662C573.874 508.003 577.714 501.532 582.208 495.949L582.627 495.436Z"/><path fill="#2583DC" d="M532.797 543.085C535.52 540.149 542.009 538.58 546.066 537.175C548.072 538.236 551.168 539.298 553.442 540.357C549.186 548.944 537.399 553.62 532.797 543.085Z"/><path fill="#014991" d="M489.534 558.507L490.338 558.867C490.767 562.714 490.842 566.592 490.561 570.453C489.725 571.138 490.124 570.956 489.463 571.179C489.517 566.955 489.541 562.731 489.534 558.507Z"/><path fill="#1272CB" d="M426.546 590.161C432.63 586.122 433.447 584.537 438.197 579.275C441.66 575.439 446.015 565.968 449.269 564.362C447.886 570.712 443.342 583.851 439.758 589.23C436.089 595.64 428.12 603.432 421.371 596.102C419.713 597.259 417.492 600.958 415.823 602.101C402.558 611.191 386.585 605.85 388.126 588.35C389.877 590.57 391.271 592.523 393.67 594.102C403.577 600.624 417.264 595.457 426.546 590.161Z"/><path fill="#2583DC" d="M432.424 588.181C434.864 588.559 437.309 588.909 439.758 589.23C436.089 595.64 428.12 603.432 421.371 596.102C422.526 592.123 423.51 592.315 427.051 590.584L432.424 588.181Z"/><path fill="#99DEFA" d="M525.543 494.254C537.694 490.231 550.81 482.049 559.05 472.225C569.754 459.463 573.473 451.571 592.024 452.037C574.829 456.044 572.306 464.564 561.154 476.899C551.517 487.558 540.968 492.201 527.356 495.341L525.543 494.254Z"/><path fill="#1272CB" d="M448.472 598.343C455.676 609.887 466.518 607.211 477.097 602.755C477.771 603.537 478.66 604.665 479.416 605.304C475.567 607.323 473.07 611.142 469.697 613.069C455.903 620.948 444.291 614.182 448.472 598.343Z"/><path fill="#2583DC" d="M487.97 591.872C491.856 593.944 492.275 596.975 489.474 600.393C486.442 604.093 484.047 604.806 479.416 605.304C478.66 604.665 477.771 603.537 477.097 602.755C480.705 597.158 482.277 596.86 485.514 592.537L487.97 591.872Z"/><path fill="#020B1E" d="M454.631 541.282C455.513 549.6 455.564 556.287 455.538 564.675C453.566 562.008 454.612 559.495 454.715 555.955C454.074 555.976 453.686 556.052 453.054 556.145C452.24 557.681 451.644 559.854 451.085 561.559L450.316 561.527C452.076 554.456 453.544 548.523 454.631 541.282Z"/><path fill="#99DEFA" d="M513.961 496.572C518.36 495.955 521.209 495.324 525.543 494.254L527.356 495.341C524.287 496.09 516.674 498.42 513.961 496.572Z"/><path fill="#F9F9F9" d="M526.263 358.647C563.367 355.256 579.397 392.635 571.221 424.217C565.671 446.377 549.204 462.776 529.88 473.884C495.899 493.416 459.041 497.449 421.457 487.658C396.916 480.102 375.092 464.14 369.875 437.376C367.071 422.992 369.214 407.658 378.015 395.661C402.4 362.422 441.155 380.217 474.665 374.349C494.197 370.815 506.752 361.896 526.263 358.647Z"/><path fill="#002654" d="M449.986 434.447C448.96 441.358 447.077 447.29 442.076 452.507C437.91 456.863 432.158 459.346 426.131 459.391C398.806 459.603 389.259 419.358 407.962 402.431C417.768 393.557 432.221 394.205 440.724 404.562C448.69 412.724 450.101 423.626 449.986 434.447Z"/><path fill="#F9F9F9" d="M427.527 403.493C438.32 403.893 443.729 415.553 433.847 421.905C429.898 422.138 426.905 421.321 424.459 417.946C422.769 415.592 422.149 412.634 422.753 409.799C423.429 406.577 424.98 405.269 427.527 403.493Z"/><path fill="#002654" d="M530.017 380.143C560.191 380.904 565.111 435.961 534.047 440.666C502.961 440.194 497.661 385.251 530.017 380.143Z"/><path fill="#F9F9F9" d="M534.041 386.933C544.222 387.166 549.52 398.852 540.123 405.11C528.526 405.354 524.976 393.484 534.041 386.933Z"/><path fill="#002654" d="M473.645 467.903C469.099 464.07 464.443 453.185 467.133 447.502C467.812 447.091 483.808 453.957 489.56 449.794C489.42 449.896 504.732 442.632 503.087 442.8C509.331 448.633 503.698 461.801 499.033 467.408C491.578 474.282 481.023 475.621 473.645 467.903Z"/><path fill="#EB3E48" d="M473.645 467.903C473.7 455.984 496.452 455.622 499.033 467.408C491.578 474.282 481.023 475.621 473.645 467.903Z"/><defs><linearGradient id="gradient_4" gradientUnits="userSpaceOnUse" x1="633.17499" y1="345.58902" x2="675.18134" y2="293.39124"><stop offset="0" stop-color="#4591CD"/><stop offset="1" stop-color="#134F8C"/></linearGradient></defs><path fill="url(#gradient_4)" d="M541.361 242.123C559.819 240.484 586.108 246.63 603.016 253.947C604.96 254.772 606.88 255.039 608.893 255.702C611.301 256.494 614.863 259.227 617.072 259.848C623.953 261.783 629.35 265.988 635.46 269.839L656.045 282.582C662.496 286.632 669.314 290.359 675.66 294.377C680.664 297.545 687.671 303.416 692.311 307.302C702.441 315.905 711.631 325.556 719.727 336.095C723.558 340.991 726.318 345.082 730.499 349.991C739.801 360.917 746.167 374.825 751.675 387.942C753.103 391.343 760.289 403.181 760.195 405.51C752.65 405.577 732.453 404.196 727.188 405.856C720.2 406.254 708.18 406.017 701.139 405.885C689.382 406.168 676.709 405.955 664.906 405.907C651.854 406.355 636.538 405.96 623.312 405.946L600.939 405.998C601.115 395.162 600.507 388.893 599.353 378.1C597.805 372.681 596.908 367.265 595.173 361.699C589.051 342.266 578.482 324.528 564.306 309.895C563.912 309.461 562.894 308.458 562.854 307.848C561.955 294.339 558.819 281.966 554.874 269.056C550.818 259.562 547.414 250.681 541.361 242.123Z"/><defs><linearGradient id="gradient_5" gradientUnits="userSpaceOnUse" x1="636.92114" y1="335.32941" x2="616.27911" y2="358.17865"><stop offset="0" stop-color="#438FCA"/><stop offset="1" stop-color="#7BC4EF"/></linearGradient></defs><path fill="url(#gradient_5)" d="M554.874 269.056C556.687 270.131 558.685 277.99 560.443 281.248C591.84 294.119 615.45 316.439 640.387 338.767C657.774 354.335 675.244 368.856 690.697 386.392C696.955 393.492 701.11 396.65 706.692 404.805L706.565 405.237C704.862 405.261 702.502 405.052 701.139 405.885C689.382 406.168 676.709 405.955 664.906 405.907C651.854 406.355 636.538 405.96 623.312 405.946L600.939 405.998C601.115 395.162 600.507 388.893 599.353 378.1C597.805 372.681 596.908 367.265 595.173 361.699C589.051 342.266 578.482 324.528 564.306 309.895C563.912 309.461 562.894 308.458 562.854 307.848C561.955 294.339 558.819 281.966 554.874 269.056Z"/><defs><linearGradient id="gradient_6" gradientUnits="userSpaceOnUse" x1="617.58057" y1="353.42624" x2="592.25421" y2="378.66956"><stop offset="0" stop-color="#77C1ED"/><stop offset="1" stop-color="#C3F8FF"/></linearGradient></defs><path fill="url(#gradient_6)" d="M564.306 309.895L563.637 307.571L563.857 307.278C566.28 308.94 568.077 311.608 570.433 313.116C578.117 318.035 583.884 322.262 590.363 328.819C598.708 337.31 608.821 345.006 616.779 353.78C623.798 361.519 631.619 368.902 638.676 376.414C646.289 384.518 662.169 396.317 667.772 404.764C666.606 404.939 665.938 404.983 664.758 405.037C664.792 405.793 664.667 405.527 664.906 405.907C651.854 406.355 636.538 405.96 623.312 405.946L600.939 405.998C601.115 395.162 600.507 388.893 599.353 378.1C597.805 372.681 596.908 367.265 595.173 361.699C589.051 342.266 578.482 324.528 564.306 309.895Z"/><path fill="#C7F1FD" d="M599.353 378.1L600.135 378.082C600.436 378.853 600.737 379.545 600.882 380.362C601.386 383.189 615.201 398.359 617.974 403.942C618.28 404.557 618.646 404.848 619.222 405.199L619.706 405.235C621.384 405.37 621.674 405.356 623.312 405.946L600.939 405.998C601.115 395.162 600.507 388.893 599.353 378.1Z"/><defs><linearGradient id="gradient_7" gradientUnits="userSpaceOnUse" x1="508.87708" y1="661.03058" x2="510.69724" y2="608.84485"><stop offset="0" stop-color="#175593"/><stop offset="1" stop-color="#246CAD"/></linearGradient></defs><path fill="url(#gradient_7)" d="M574.57 613.252C595.528 613.051 616.487 613.016 637.445 613.147C641.546 613.159 661.929 613.013 664.538 613.469L662.613 613.719C661.116 613.899 659.708 613.865 658.644 614.976C655.688 618.067 652.683 618.964 649.401 621.09C633.128 631.691 615.996 640.915 598.186 648.663C583.691 654.807 573.077 655.402 558.525 657.923C524.478 663.821 491.657 661.384 457.931 655.093C456.183 654.768 453.868 653.298 451.085 652.908C448.616 651.298 432.734 647.561 429.273 646.455C418.886 643.137 408.484 639.327 398.012 636.301C394.322 635.234 387.505 630.088 383.837 628.774C376.39 626.106 368.239 617.555 361.453 614.291C359.557 613.38 344.537 614.596 341.113 613.784C370.639 613.47 398.235 615.532 427.388 614.988C432.155 620.618 437.951 625.435 445.524 625.993C463.996 627.354 469.769 623.986 483.064 614.062C490.301 613.174 507.028 613.534 514.85 613.508L574.57 613.252Z"/><path fill="#EA591C" d="M608.395 446.506C613.803 444.725 656.465 433.081 660.238 433.603C664.619 441.403 670.273 437.041 679.073 440.255C678.958 450.169 678.923 460.083 678.969 469.998C664.623 469.911 654.07 467.649 653.434 485.482C653.54 502.758 653.559 520.035 653.491 537.311C649.788 539.109 641.808 543.074 638.036 544.352C631.183 547.621 624.282 551.052 617.419 554.248C608.622 557.993 600.009 553.889 592.839 548.719C594.095 543.06 594.981 532.772 595.658 526.553C596.842 515.679 598.695 503.254 599.033 492.462C607.12 488.293 616.16 486.972 620.217 476.941C623.028 469.99 621.47 464.496 618.922 458C616.223 452.158 613.39 450.041 608.395 446.506Z"/><path fill="#F08422" d="M618.922 458C623.13 456.56 629.117 455.064 633.525 453.824C634.761 458.544 628.414 485.652 627.125 492.093C624.345 506.559 621.731 521.057 619.283 535.583C618.496 540.341 616.375 550.037 617.419 554.248C608.622 557.993 600.009 553.889 592.839 548.719C594.095 543.06 594.981 532.772 595.658 526.553C596.842 515.679 598.695 503.254 599.033 492.462C607.12 488.293 616.16 486.972 620.217 476.941C623.028 469.99 621.47 464.496 618.922 458Z"/><path fill="#F9F9F9" d="M608.395 446.506C613.803 444.725 656.465 433.081 660.238 433.603C664.619 441.403 670.273 437.041 679.073 440.255C675.905 442.004 638.766 452.658 633.525 453.824C629.117 455.064 623.13 456.56 618.922 458C616.223 452.158 613.39 450.041 608.395 446.506Z"/><path fill="#B2450E" d="M653.434 485.482C653.54 502.758 653.559 520.035 653.491 537.311C649.788 539.109 641.808 543.074 638.036 544.352C637.648 543.17 637.754 542.033 638.193 540.879C644.04 525.522 647.403 509.954 651.687 494.222C652.331 496.429 652.476 499.166 652.705 501.495C652.815 496.819 652.776 489.941 653.434 485.482Z"/><defs><linearGradient id="gradient_8" gradientUnits="userSpaceOnUse" x1="421.05243" y1="278.202" x2="415.43277" y2="242.28923"><stop offset="0" stop-color="#3482C2"/><stop offset="1" stop-color="#16528E"/></linearGradient></defs><path fill="url(#gradient_8)" d="M339.781 272.739C329.571 272.185 319.48 270.061 310.668 274.921C313.154 269.995 320.622 272.785 325.679 270.258C337.402 264.401 349.764 260.244 361.852 255.226C405.106 239.539 451.58 237.592 497.151 238.153C501.647 238.208 505.827 239.594 510.147 240.149C509.177 240.024 516.742 237.626 519.027 237.364L519.563 237.832C501.129 247.175 490.407 256.065 476.031 270.588C441.676 267.121 415.976 271.719 384.356 285.258C375.936 281.392 369.879 279.437 361.053 276.669C353.468 275.089 347.485 273.864 339.781 272.739Z"/><path fill="#1272CB" d="M339.781 272.739C344.106 271.716 358.528 273.049 361.053 276.669C353.468 275.089 347.485 273.864 339.781 272.739Z"/><path fill="#C52629" d="M725.663 502.549C726.762 503.27 746.049 502.911 749.212 503.179L752.023 503.475C762.047 504.644 770.028 506.218 779.685 509.456C780.266 517.535 779.974 528.741 779.976 536.996L779.888 583.434C770.722 583.403 761.134 583.51 752.008 583.169C743.661 582.887 734.246 583.102 725.819 583.107C725.697 576.91 725.648 570.712 725.673 564.514L725.635 554.115C725.734 536.926 725.743 519.737 725.663 502.549Z"/><path fill="#EA591C" d="M725.663 502.549C726.762 503.27 746.049 502.911 749.212 503.179L752.023 503.475C751.873 517.261 751.808 531.048 751.827 544.834C751.838 548.772 752.317 561.689 751.745 564.733C751.62 571.132 751.768 576.766 752.008 583.169C743.661 582.887 734.246 583.102 725.819 583.107C725.697 576.91 725.648 570.712 725.673 564.514L725.635 554.115C725.734 536.926 725.743 519.737 725.663 502.549Z"/><path fill="#EA591C" d="M725.673 564.514C727.013 565.369 748.118 564.62 751.745 564.733C751.62 571.132 751.768 576.766 752.008 583.169C743.661 582.887 734.246 583.102 725.819 583.107C725.697 576.91 725.648 570.712 725.673 564.514Z"/><path fill="#FDAC5B" d="M725.635 554.115C734.218 553.88 743.043 554.024 751.649 554.07C751.659 557.243 751.542 561.665 751.745 564.733C748.118 564.62 727.013 565.369 725.673 564.514L725.635 554.115Z"/><defs><linearGradient id="gradient_9" gradientUnits="userSpaceOnUse" x1="733.18652" y1="448.38998" x2="771.78198" y2="437.8797"><stop offset="0" stop-color="#438EC9"/><stop offset="1" stop-color="#16558F"/></linearGradient></defs><path fill="url(#gradient_9)" d="M727.188 405.856C732.453 404.196 752.65 405.577 760.195 405.51C759.71 408.675 760.437 409.564 762.096 412.264C772.034 428.436 775.031 451.175 774.745 470.124C777.873 471.566 785.735 478.196 785.995 481.585L785.583 481.766C775.771 467.051 760.679 464.683 743.901 463.227C740.233 458.951 738.583 457.124 734.106 453.633C721.357 445.522 710.133 447.837 695.583 447.963C695 435.938 695.099 435.624 683.366 432.817L684.851 432.404C683.991 428.492 682.046 425.846 681.169 421.98C680.829 420.484 681.729 419.749 682.619 418.503C689.076 418.5 700.202 418.131 706.273 418.559C723.235 418.104 742.183 418.554 759.301 418.58C759.422 414.152 759.39 410.378 759.242 405.949L727.188 405.856Z"/><defs><linearGradient id="gradient_10" gradientUnits="userSpaceOnUse" x1="729.45605" y1="427.03442" x2="692.37738" y2="446.5029"><stop offset="0" stop-color="#3E8AC6"/><stop offset="1" stop-color="#8BD0F9"/></linearGradient></defs><path fill="url(#gradient_10)" d="M682.619 418.503C689.076 418.5 700.202 418.131 706.273 418.559C711.914 419.687 721.126 418.51 725.554 419.964C726.143 422.458 729.502 429.518 731.036 431.625C736.464 439.078 735.587 448.158 738.392 455.413L737.5 455.545C736.17 454.28 735.831 454.176 734.106 453.633C721.357 445.522 710.133 447.837 695.583 447.963C695 435.938 695.099 435.624 683.366 432.817L684.851 432.404C683.991 428.492 682.046 425.846 681.169 421.98C680.829 420.484 681.729 419.749 682.619 418.503Z"/><path fill="#10AD82" d="M692.545 457.886C699.59 457.767 706.637 457.805 713.68 457.998C723.212 457.884 725.26 459.214 725.027 469.139C722.811 470.076 714.528 473.229 713.532 474.525C713.528 503.252 713.913 532.874 713.486 561.521L713.502 570.546L713.586 583.694C706.57 583.579 699.554 583.571 692.539 583.67L692.513 570.422L692.515 561.56L692.545 457.886Z"/><path fill="#10AD82" d="M692.513 570.422L694.129 570.472C697.6 570.452 709.464 570.201 712.29 570.885L713.502 570.546L713.586 583.694C706.57 583.579 699.554 583.571 692.539 583.67L692.513 570.422Z"/><path fill="#05836A" d="M712.196 562L713.486 561.521L713.502 570.546L712.29 570.885C709.464 570.201 697.6 570.452 694.129 570.472L692.513 570.422L692.515 561.56L693.829 562.017L712.196 562Z"/><path fill="#099676" d="M712.196 562L713.486 561.521L713.502 570.546L712.29 570.885C711.626 567.462 711.942 565.455 712.196 562Z"/><path fill="#099676" d="M692.515 561.56L693.829 562.017C694.026 565.022 694.129 567.456 694.129 570.472L692.513 570.422L692.515 561.56Z"/><path fill="#05625C" d="M713.68 457.998C723.212 457.884 725.26 459.214 725.027 469.139C722.811 470.076 714.528 473.229 713.532 474.525L713.68 457.998Z"/><path fill="#C52629" d="M310.203 573.455C320.412 573.388 330.622 573.419 340.83 573.549C342.606 582.019 343.072 585.339 350 591.112C352.099 591.519 354.659 591.796 356.226 593.201C355.149 595.747 353.682 594.682 351.533 595.52C348.153 596.684 324.878 596.136 320.003 596.045C301.475 595.699 283.086 597.566 264.619 596.309C259.629 595.97 254.999 596.011 250.012 596.143L249.912 595.449C248.761 595.232 248.483 595.191 247.398 594.776L247.117 593.424L247.087 591.576C259.265 590.713 274.847 591.458 287.497 591.024L287.429 590.531C281.572 591.048 270.386 590.617 264.38 590.527C262.374 587.278 260.88 583.849 260.699 579.972C260.611 578.093 260.938 576.11 262.385 574.783C264.948 572.433 303.972 573.444 310.203 573.455Z"/><path fill="#EB3E48" d="M264.38 590.527C262.374 587.278 260.88 583.849 260.699 579.972C260.611 578.093 260.938 576.11 262.385 574.783C264.948 572.433 303.972 573.444 310.203 573.455C308.986 579.2 308.962 584.901 307.955 590.311C304.168 590.31 290.538 590.081 287.429 590.531C281.572 591.048 270.386 590.617 264.38 590.527Z"/><path fill="#2583DC" d="M287.497 591.024C299.386 590.896 311.277 590.87 323.167 590.949C331.748 590.959 341.496 590.753 350 591.112C352.099 591.519 354.659 591.796 356.226 593.201C355.149 595.747 353.682 594.682 351.533 595.52C348.153 596.684 324.878 596.136 320.003 596.045C301.475 595.699 283.086 597.566 264.619 596.309C259.629 595.97 254.999 596.011 250.012 596.143L249.912 595.449C248.761 595.232 248.483 595.191 247.398 594.776L247.117 593.424L247.087 591.576C259.265 590.713 274.847 591.458 287.497 591.024Z"/><path fill="#020B1E" d="M249.912 595.449C283.216 595.434 318.405 594.853 351.533 595.52C348.153 596.684 324.878 596.136 320.003 596.045C301.475 595.699 283.086 597.566 264.619 596.309C259.629 595.97 254.999 596.011 250.012 596.143L249.912 595.449Z"/><defs><linearGradient id="gradient_11" gradientUnits="userSpaceOnUse" x1="255.0042" y1="591.91797" x2="254.9895" y2="593.08197"><stop offset="0" stop-color="#0888FE"/><stop offset="1" stop-color="#0C61B7"/></linearGradient></defs><path fill="url(#gradient_11)" d="M247.087 591.576C251.926 592.654 257.083 591.38 261.877 592.094C262.326 592.968 262.255 592.567 262.282 593.245L264.731 593.35L264.66 593.834C261.035 594.051 250.324 594.18 247.117 593.424L247.087 591.576Z"/><path fill="#F9F9F9" d="M587.114 556.843C605.012 568.339 615.629 566.404 633.943 556.872L633.977 583.033L603.401 582.978L556.04 582.995C556.126 574.917 555.55 571.85 551.182 564.969C564.853 568.308 577.774 569.323 587.114 556.843Z"/><path fill="#FEC127" d="M665.108 479.508C669.619 479.251 678.287 479.35 682.858 479.804L682.916 486.11L682.908 495.423L682.887 554.183L682.902 565.027L664.992 565.023L664.96 554.198C664.527 535.124 664.929 514.363 664.993 495.141L665.005 486.03C665.031 483.959 664.997 481.545 665.108 479.508Z"/><path fill="#FEFAB4" d="M665.108 479.508C669.619 479.251 678.287 479.35 682.858 479.804L682.916 486.11L682.908 495.423C676.937 495.278 670.966 495.184 664.993 495.141L665.005 486.03C665.031 483.959 664.997 481.545 665.108 479.508Z"/><path fill="#62DD76" d="M665.108 479.508C669.619 479.251 678.287 479.35 682.858 479.804L682.916 486.11C677.647 485.858 670.492 486.088 665.005 486.03C665.031 483.959 664.997 481.545 665.108 479.508Z"/><path fill="#FEFAB4" d="M664.96 554.198C670.119 554.154 677.953 553.871 682.887 554.183L682.902 565.027L664.992 565.023L664.96 554.198Z"/><path fill="#EA591C" d="M725.779 476.125C737.334 474.697 741.109 474.783 752.479 476.286C762.627 478.331 771.659 481.408 779.731 488.273C779.838 492.12 780.037 496.108 779.739 499.931C779.679 503.136 779.612 506.248 779.685 509.456C770.028 506.218 762.047 504.644 752.023 503.475L749.212 503.179C746.049 502.911 726.762 503.27 725.663 502.549L725.626 492.49C725.502 487.178 725.696 481.465 725.779 476.125Z"/><path fill="#C52629" d="M752.479 476.286C762.627 478.331 771.659 481.408 779.731 488.273C779.838 492.12 780.037 496.108 779.739 499.931C779.679 503.136 779.612 506.248 779.685 509.456C770.028 506.218 762.047 504.644 752.023 503.475L749.212 503.179C751.056 502.967 750.364 503.382 751.595 502.349C752.238 499.622 751.889 495.702 751.912 492.632C751.837 488.355 751.588 480.268 752.479 476.286Z"/><path fill="#F08422" d="M751.912 492.632C764.949 494.825 768.142 496.638 779.739 499.931C779.679 503.136 779.612 506.248 779.685 509.456C770.028 506.218 762.047 504.644 752.023 503.475L749.212 503.179C751.056 502.967 750.364 503.382 751.595 502.349C752.238 499.622 751.889 495.702 751.912 492.632Z"/><path fill="#FDAC5B" d="M725.626 492.49C728.355 491.374 748.203 492.045 751.912 492.632C751.889 495.702 752.238 499.622 751.595 502.349C750.364 503.382 751.056 502.967 749.212 503.179C746.049 502.911 726.762 503.27 725.663 502.549L725.626 492.49Z"/><path fill="#F9F9F9" d="M272.003 525.093C271.936 522.49 271.687 522.059 273.28 520.256C278.387 518.343 325.764 519.475 334.039 519.646L333.99 524.386L333.988 541.558L272.076 541.466C271.954 536.118 272.023 530.466 272.003 525.093Z"/><path fill="#FEFAB4" d="M272.003 525.093C271.936 522.49 271.687 522.059 273.28 520.256C278.387 518.343 325.764 519.475 334.039 519.646L333.99 524.386L332.5 524.574C322.864 525.923 308.138 524.923 298.148 525.164C291.033 525.335 278.779 525.814 272.003 525.093Z"/><path fill="#10AD82" d="M260.109 550.916C278.979 551.311 298.563 551.046 317.485 551.036L329.081 551.053C334.356 551.07 339.735 551.011 344.992 551.311C342.103 557.043 341.35 560.274 340.756 566.776C336.7 566.617 333.287 566.532 329.238 566.642L317.084 566.656C300.683 566.651 275.272 567.446 259.425 566.327C252.982 562.173 252.298 553.855 260.109 550.916Z"/><path fill="#05625C" d="M329.081 551.053C334.356 551.07 339.735 551.011 344.992 551.311C342.103 557.043 341.35 560.274 340.756 566.776C336.7 566.617 333.287 566.532 329.238 566.642C329.347 561.292 329.523 556.407 329.081 551.053Z"/><path fill="#099676" d="M317.485 551.036L329.081 551.053C329.523 556.407 329.347 561.292 329.238 566.642L317.084 566.656C317.077 561.589 317.338 556.131 317.485 551.036Z"/><path fill="#099676" d="M259.425 566.327C252.982 562.173 252.298 553.855 260.109 550.916C259.274 555.621 260.551 562.129 259.425 566.327Z"/><path fill="#C7F1FD" d="M600.126 418.104L660.729 418.564C668.025 418.431 675.322 418.41 682.619 418.503C681.729 419.749 680.829 420.484 681.169 421.98C682.046 425.846 683.991 428.492 684.851 432.404L683.366 432.817C677.863 431.739 672.464 431.378 667.013 430.363L666.665 429.717C665.545 427.086 666.219 427.721 664.141 426.15C663.111 426.907 663.483 427.044 662.287 426.968C652.725 426.362 643.49 429.579 634.019 430.646L634.313 430.552C626.386 431.66 618.46 434.017 610.694 435.946C607.749 436.678 600.193 440.535 597.601 439.092C597.076 438.94 597.421 439.072 596.664 438.498C596.78 435.296 599.63 424.326 600.126 418.104Z"/><path fill="#99DEFA" d="M660.729 418.564C668.025 418.431 675.322 418.41 682.619 418.503C681.729 419.749 680.829 420.484 681.169 421.98C682.046 425.846 683.991 428.492 684.851 432.404L683.366 432.817C677.863 431.739 672.464 431.378 667.013 430.363L666.665 429.717C666.998 428.286 667.184 428.2 666.717 426.864C664.566 424.383 661.759 424.53 658.417 424.082C668.226 421.471 666.256 428.133 668.323 429.824C670.489 429.775 675.098 430.623 675.642 430.44C674.944 428.927 671.768 422.841 672.519 421.297C672.758 420.805 673.947 420.591 674.155 419.312C670.808 418.355 664.971 419.47 660.729 418.564Z"/><path fill="#002654" d="M658.417 424.082C661.759 424.53 664.566 424.383 666.717 426.864C667.184 428.2 666.998 428.286 666.665 429.717C665.545 427.086 666.219 427.721 664.141 426.15C663.111 426.907 663.483 427.044 662.287 426.968C652.725 426.362 643.49 429.579 634.019 430.646L634.313 430.552C626.386 431.66 618.46 434.017 610.694 435.946C607.749 436.678 600.193 440.535 597.601 439.092C602.391 436.064 651.386 424.74 658.417 424.082Z"/><path fill="#FEC127" d="M334.039 519.646L361.313 519.998C368.601 520.046 373.775 520.301 380.688 522.813C377.502 535.677 374.798 541.254 360.564 541.44C351.835 541.636 342.745 541.534 333.988 541.558L333.99 524.386L334.039 519.646Z"/><path fill="#F08422" d="M361.313 519.998C368.601 520.046 373.775 520.301 380.688 522.813C377.502 535.677 374.798 541.254 360.564 541.44C361.7 538.059 361.231 524.386 361.313 519.998Z"/><path fill="#1272CB" d="M553.014 591.119C562.239 590.778 573.006 591.064 582.38 591.064L639.783 591.077L775.525 591.05C777.541 591.07 777.472 591.05 778.81 592.032C779.128 593.399 779.246 593.372 778.772 594.657L777.625 594.821L550.082 594.95L553.014 591.119Z"/><path fill="#1272CB" d="M522.559 567.05C525.77 566.111 528.557 565.967 531.856 566.244C539.38 567.158 544.125 569.384 546.745 577.002C548.787 584.589 544.162 591.037 537.015 593.667C515.979 601.409 496.55 574.903 522.559 567.05Z"/><path fill="#53BCF4" d="M531.856 566.244C539.38 567.158 544.125 569.384 546.745 577.002C545.349 576.297 544.036 575.384 542.559 575.502C542.743 576.348 542.989 576.962 543.318 577.755C542.482 577.572 538.372 574.915 536.74 574.195L536.11 573.923C534.615 571.865 531.491 568.968 530.805 566.872L531.856 566.244Z"/><path fill="#2599E7" d="M522.559 567.05C525.77 566.111 528.557 565.967 531.856 566.244L530.805 566.872C531.491 568.968 534.615 571.865 536.11 573.923C531.633 572.585 526.655 569.455 522.559 567.05Z"/><path fill="#1272CB" d="M587.215 521.305C588.681 525.34 586.4 534.366 585.94 538.687C585.326 544.452 582.741 551.145 577.872 554.611C569.938 560.261 558.737 557.968 549.72 556.755L548.047 556.136C550.431 552.37 571.033 541.605 575.706 537.557C582.671 531.524 583.276 529.653 587.215 521.305Z"/><path fill="#FEC127" d="M682.902 565.027L682.817 583.242L664.963 583.159C664.967 577.184 664.883 570.976 664.992 565.023L682.902 565.027Z"/><defs><linearGradient id="gradient_12" gradientUnits="userSpaceOnUse" x1="320.37057" y1="281.62787" x2="345.47235" y2="315.84799"><stop offset="0" stop-color="#126EC8"/><stop offset="1" stop-color="#1595EF"/></linearGradient></defs><path fill="url(#gradient_12)" d="M317.646 336.973C316.86 327.566 312.35 289.405 317.708 283.35C320.114 280.632 329.125 281.431 332.416 281.606C347.522 282.411 362.113 287.119 375.539 293.925C370.437 293.029 365.554 291.178 360.548 289.883C346.849 286.337 332.469 283.899 318.313 285.57C316.573 298.253 316.734 307.348 317.671 320.093C317.921 323.498 319.117 335.121 318.793 337.932L317.646 336.973Z"/><defs><linearGradient id="gradient_13" gradientUnits="userSpaceOnUse" x1="525.81006" y1="246.19576" x2="519.47461" y2="275.26355"><stop offset="0" stop-color="#1174D4"/><stop offset="1" stop-color="#138CE3"/></linearGradient></defs><path fill="url(#gradient_13)" d="M495.013 268.548C502.834 261.112 517.421 249.648 527.659 246.957C538.861 244.012 544.48 277.365 545.061 284.796C543.43 279.583 541.507 272.536 539.505 267.651C539.206 267.58 538.907 267.509 538.608 267.438C536.374 263.266 533.426 252.581 529.353 251.03C525.049 251.37 519.425 255.431 514.78 257.548L514.22 257.153C509.108 259.541 499.96 266.093 495.514 269.828L495.013 268.548Z"/><path fill="#020B1E" d="M514.22 257.153C519.994 253.243 529.58 245.6 534.183 254.277C536.198 258.076 538.457 263.49 539.505 267.651C539.206 267.58 538.907 267.509 538.608 267.438C536.374 263.266 533.426 252.581 529.353 251.03C525.049 251.37 519.425 255.431 514.78 257.548L514.22 257.153Z"/><path fill="#014991" d="M547.419 293.32C550.122 294.17 559.084 303.844 561.103 306.619C558.459 305.993 548.426 295.875 547.419 293.32Z"/><path fill="#014991" d="M317.646 336.973L318.793 337.932C318.111 339.745 313.136 349.135 311.618 350.085L311.097 349.931C313.34 346.97 315.998 340.561 317.646 336.973Z"/><path fill="#2583DC" d="M495.013 268.548L495.514 269.828C492.619 272.302 491.601 273.072 488.333 275.005C490.476 272.736 492.732 270.676 495.013 268.548Z"/><path fill="#F9F9F9" fill-opacity="0.38431373" d="M709.718 754.989C711.599 754.625 714.463 753.763 716.038 754.532C716.764 755.914 716.467 755.727 716.187 757.613C666.041 767.37 607.772 765.337 556.408 765.119L453.676 764.73C437.867 764.523 422.056 764.411 406.245 764.392C387.961 764.513 369.539 765.41 351.279 763.844C343.294 763.159 323.164 761.068 316.219 758.418C324.914 758.317 334.44 759.954 343.074 759.901C350.673 759.853 357.585 758.713 365.431 758.672L490.349 759.134C516.884 759.277 543.392 760.791 569.944 760.896C577.612 760.927 586.259 759.948 593.724 760.308C612.175 761.199 631.035 758.802 649.234 758.767C661.636 759.118 670.96 758.418 682.878 758.056C685.476 758.35 689.099 758.243 691.941 757.918C696.091 757.445 701.267 754.701 705.556 755.984C706.732 756.335 708.639 755.361 709.718 754.989Z"/><path fill="#C7CBCE" fill-opacity="0.88627452" d="M299.603 743.213C330.651 757.177 354.323 756.832 387.509 756.876L434.941 756.876L597.757 756.899L647.961 756.841C654.266 756.809 663.736 756.274 669.472 756.517C665.319 757.97 654.737 757.848 649.234 758.767C631.035 758.802 612.175 761.199 593.724 760.308C586.259 759.948 577.612 760.927 569.944 760.896C543.392 760.791 516.884 759.277 490.349 759.134L365.431 758.672C357.585 758.713 350.673 759.853 343.074 759.901C334.44 759.954 324.914 758.317 316.219 758.418L313.73 758.079C312.464 757.462 311.367 756.994 310.077 756.457C312.043 756.503 318.016 757.077 319.267 756.858C316.452 755.669 315.81 752.807 314.4 752.018C311.333 750.303 301.236 746.57 299.603 743.213Z"/><defs><linearGradient id="gradient_14" gradientUnits="userSpaceOnUse" x1="742.83069" y1="747.68829" x2="710.45837" y2="744.44232"><stop offset="0" stop-color="#DADBDB" stop-opacity="0.1882353"/><stop offset="1" stop-color="#C6C8CB" stop-opacity="0.47450981"/></linearGradient></defs><path fill="url(#gradient_14)" d="M735.606 736.845C739.195 736.477 746.526 736.038 750.373 735.843C748.226 736.617 742.263 738.258 741.217 739.47C742.177 743.097 743.696 743.02 743.553 747.401C744.948 746.693 747.411 745.876 748.911 746.418L748.743 747.937C751.331 746.842 747.963 747.112 751.204 745.404L751.648 746.015C750.401 749.173 746.508 750.164 743.516 751.619C734.011 756.238 726.172 756.186 716.187 757.613C716.467 755.727 716.764 755.914 716.038 754.532C714.463 753.763 711.599 754.625 709.718 754.989L710.03 754.382C711.639 753.473 713.661 752.213 714.075 750.296C712.788 750.072 713.503 749.979 712.35 750.716C704.647 755.642 690.02 755.421 682.878 758.056C670.96 758.418 661.636 759.118 649.234 758.767C654.737 757.848 665.319 757.97 669.472 756.517C671.589 755.966 678.496 755.517 681.065 755.335C702.718 753.808 716.981 746.854 735.606 736.845Z"/><defs><linearGradient id="gradient_15" gradientUnits="userSpaceOnUse" x1="267.98059" y1="739.06433" x2="284.02582" y2="744.43567"><stop offset="0" stop-color="#EBEBEA" stop-opacity="0.27058825"/><stop offset="1" stop-color="#DBDCDD" stop-opacity="0.58431375"/></linearGradient></defs><path fill="url(#gradient_15)" d="M280.088 730.748C284.446 733.587 288.883 736.791 293.18 739.767C290.91 739.741 289.757 738.752 287.974 739.078C285.709 740.801 281.823 745.129 284.226 747.919L287.719 748.657C289.211 748.963 289.395 748.946 290.647 749.932C291.388 751.882 290.968 753.9 289.855 755.7C284.524 756.347 258.641 750.828 259.116 744.133C264.048 743.529 262.56 747.263 266.492 748.847L267.068 748.501L267.222 747.486C269.479 745.815 267.952 744.181 267.015 741.728C267.569 740.604 267.91 739.765 268.375 738.612L267.994 737.744L268.185 738.005L267.081 738.093L266.478 739.806L265.822 739.628L264.313 736.739L265.356 734.252C264.18 732.865 262.822 735.403 259.357 734.912L259.188 734.369C263.605 729.996 273.782 731.081 279.663 731.404L280.088 730.748Z"/><path fill="#F9F9F9" fill-opacity="0.73333335" d="M289.855 755.7C290.968 753.9 291.388 751.882 290.647 749.932C289.395 748.946 289.211 748.963 287.719 748.657L284.226 747.919C281.823 745.129 285.709 740.801 287.974 739.078C289.757 738.752 290.91 739.741 293.18 739.767C295.56 740.926 297.332 741.901 299.603 743.213C301.236 746.57 311.333 750.303 314.4 752.018C315.81 752.807 316.452 755.669 319.267 756.858C318.016 757.077 312.043 756.503 310.077 756.457C311.367 756.994 312.464 757.462 313.73 758.079C306.392 757.811 297.153 756.649 289.855 755.7Z"/><path fill="#C7CBCE" fill-opacity="0.43921569" d="M682.878 758.056C690.02 755.421 704.647 755.642 712.35 750.716C713.503 749.979 712.788 750.072 714.075 750.296C713.661 752.213 711.639 753.473 710.03 754.382L709.718 754.989C708.639 755.361 706.732 756.335 705.556 755.984C701.267 754.701 696.091 757.445 691.941 757.918C689.099 758.243 685.476 758.35 682.878 758.056Z"/></svg>